<?xml version="1.0" encoding="UTF-8"?>
<svg id="Capa_1" data-name="Capa 1" xmlns="http://www.w3.org/2000/svg" viewBox="0 0 505.49 600.34">
  <defs>
    <style>
      .cls-1 {
        fill: #fff;
      }
    </style>
  </defs>
  <path class="cls-1" d="m489.43,201.4c-7.84,5.94-15.69,11.25-22.81,17.4-29.1,25.13-43.38,57.07-43.69,95.55-.2,25.65,5.34,49.63,19.06,71.38,15.1,23.95,35.77,41.72,61.56,53.43,2.27,1.03,2.21,2.01,1.54,3.97-11.86,34.65-28.74,66.64-51.17,95.59-8.93,11.53-18.19,22.89-28.19,33.48-12.4,13.13-27.35,22.6-45.43,26.17-11.92,2.35-23.79,1.45-35.34-2.04-9.92-2.99-19.75-6.37-29.47-9.97-12.76-4.72-25.71-8.58-39.3-9.69-22.06-1.8-43.1,2.58-63.69,10.43-11.85,4.52-23.96,8.63-36.29,11.52-22.21,5.21-41.59-1.82-59.11-15.65-14-11.05-25.28-24.54-36.27-38.38-30.97-38.98-53.4-82.44-66.82-130.31-4.96-17.7-9.01-35.84-11.4-54.05-5.39-41.11-3.11-81.79,13.68-120.38,20.84-47.9,56.13-79.58,107.31-92.48,25.64-6.46,50.72-3.79,75.41,4.99,14.17,5.04,28.48,9.71,42.65,14.77,10.59,3.79,20.89,3.43,31.46-.33,17.58-6.25,35.21-12.41,53.03-17.91,15.21-4.69,30.89-7.92,46.92-6.79,33.23,2.35,64.33,11.06,90.98,32.24,9.5,7.55,17.47,16.53,24.87,26.06.27.35.43.8.53.99Z"/>
  <path class="cls-1" d="m254.76,141.41c-1.43-7.76-1.25-15.32-.38-22.83,3.14-27.07,14.67-50.47,32.16-71,21.91-25.73,50.1-40.61,83.03-46.96,1.03-.2,2.09-.18,3.14-.3,6.64-.73,6.52-.73,6.74,5.86,1.23,36.42-12.83,66.83-36.75,93.29-13.7,15.15-29.46,27.59-48.64,35.26-12.54,5.02-25.59,6.83-39.29,6.68Z"/>
</svg>