<?xml version="1.0" encoding="UTF-8"?>
<svg id="Capa_1" data-name="Capa 1" xmlns="http://www.w3.org/2000/svg" viewBox="0 0 511.61 511.56">
  <defs>
    <style>
      .cls-1 {
        fill: #fff;
      }

      .cls-2 {
        fill: #6181c0;
      }
    </style>
  </defs>
  <path class="cls-2" d="m255.39,0c144.91-.33,244.79,113.29,255.04,229.72,6.54,74.31-13.99,140.45-63.78,195.88-52.95,58.95-120.52,88.55-199.7,85.79C113.42,506.73,11.58,401.91,1.08,278.98c-6.36-74.39,15.37-140.36,65.84-195.71C117.32,28.01,180.64.7,255.39,0Zm21,332.41c0-23.53.12-47.06-.1-70.59-.04-4.58,1.36-5.83,5.82-5.72,11.58.29,23.17.13,34.75.06,1.77-.01,4.17.85,4.43-2.41.63-7.67,1.47-15.33,2.1-23,.84-10.19,1.03-20.47,2.57-30.55.7-4.55-.53-4.81-4.07-4.79-12.85.09-25.7-.05-38.55.09-3.43.04-4.87-.86-4.7-4.58.29-6.32.45-12.69,0-19-.75-10.63,5.58-15.28,15.47-15.29,9.23-.01,18.46-.04,27.69,0,2.41.01,4.22-.22,4.2-3.39-.08-15.02-.04-30.05-.02-45.07,0-2.09-.5-3.52-3-3.46-19.7.47-39.46-1.56-59.1,1.12-28.92,3.95-45.83,26.91-48.1,51.83-.96,10.56-.63,21.28-.32,31.91.14,4.96-1.56,6.22-6.2,5.96-6.5-.36-13.03-.01-19.54-.12-2.81-.05-4.32.56-4.3,3.87.12,17.74.09,35.48.01,53.21-.01,2.87,1.15,3.79,3.88,3.74,6.51-.11,13.06.32,19.54-.14,5.41-.38,7.03,1.16,6.99,6.82-.25,46.33-.08,92.67-.24,139-.02,4.49,1.2,5.85,5.75,5.77,16.47-.26,32.94-.26,49.41,0,4.53.07,5.77-1.27,5.73-5.77-.22-23.17-.1-46.33-.1-69.5Z"/>
  <path class="cls-1" d="m276.4,332.41c0,23.17-.12,46.34.1,69.5.04,4.5-1.2,5.84-5.73,5.77-16.47-.26-32.94-.26-49.41,0-4.54.07-5.76-1.28-5.75-5.77.16-46.33-.01-92.67.24-139,.03-5.66-1.58-7.2-6.99-6.82-6.48.46-13.03.03-19.54.14-2.73.05-3.89-.87-3.88-3.74.08-17.74.1-35.48-.01-53.21-.02-3.31,1.5-3.91,4.3-3.87,6.51.11,13.05-.24,19.54.12,4.65.26,6.34-.99,6.2-5.96-.3-10.63-.64-21.34.32-31.91,2.28-24.92,19.18-47.87,48.1-51.83,19.63-2.68,39.4-.64,59.1-1.12,2.5-.06,3,1.38,3,3.46-.02,15.02-.06,30.05.02,45.07.02,3.17-1.79,3.4-4.2,3.39-9.23-.05-18.46-.02-27.69,0-9.88.01-16.22,4.66-15.47,15.29.45,6.3.29,12.67,0,19-.17,3.72,1.28,4.62,4.7,4.58,12.85-.14,25.7,0,38.55-.09,3.54-.03,4.77.24,4.07,4.79-1.55,10.08-1.73,20.36-2.57,30.55-.63,7.67-1.48,15.33-2.1,23-.27,3.26-2.67,2.4-4.43,2.41-11.58.07-23.17.23-34.75-.06-4.46-.11-5.86,1.14-5.82,5.72.22,23.53.1,47.06.1,70.59Z"/>
</svg>