<?xml version="1.0" encoding="UTF-8"?>
<svg id="Capa_1" data-name="Capa 1" xmlns="http://www.w3.org/2000/svg" viewBox="0 0 560.33 571.74">
  <defs>
    <style>
      .cls-1 {
        fill: #31a853;
      }

      .cls-2 {
        fill: #517bbd;
      }

      .cls-3 {
        fill: #1c3560;
      }

      .cls-4 {
        fill: #fbbc09;
      }

      .cls-5 {
        fill: #e84335;
      }
    </style>
  </defs>
  <path class="cls-5" d="m444.24,48.28c.45.3.9.6,1.35.9.46.96,1.4,1.24,2.28,1.61.17.12.34.23.52.35.46.88,1.39,1.13,2.15,1.62.31.2.62.41.93.61,1.28,1.28,2.68,2.41,4.29,3.26,2.38,1.89,4.76,3.79,7.14,5.68.16.67.69.87,1.27,1.02.14.13.27.26.41.38.22.59.67.89,1.26,1.01.14.13.28.26.42.39.28.5.62.93,1.24,1.01.14.13.29.26.43.39.3.65.76,1.13,1.49,1.29.25.22.5.44.75.66.32.66.76,1.17,1.53,1.28.33.31.65.63.98.94.4.51.51,1.34,1.42,1.27.64.6,1.28,1.2,1.92,1.79.04.52.82.89.29,1.52-1.22,1.21-2.45,2.41-3.67,3.63-25.2,25.19-50.39,50.39-75.59,75.58-.33.33-.64.67-.96,1.01-.74.62-1.3-.08-1.93-.25-.61-.39-1.24-.75-1.61-1.41-.32-.42-.33-1.18-1.14-1.06-.42-.23-.89-.4-1.09-.89-.32-.42-.32-1.19-1.15-1.05-1.74-1.48-3.6-2.81-5.32-4.32-1.28-1.12-2.84-1.93-4.13-3.08-.25-.65-.87-.79-1.41-1.05h0c-.67-.8-1.41-1.49-2.49-1.69-1.03-.68-2.06-1.36-3.09-2.04-.52-.64-1.08-1.2-1.96-1.3-2.05-1.2-4.1-2.4-6.15-3.6-.24-.68-.83-.78-1.43-.85-.54-.04-.95-.36-1.35-.68-.68-1.01-1.68-1.43-2.85-1.55-.71-.13-1.31-.51-1.9-.91-.67-.98-1.66-1.3-2.77-1.36-3.08-1.31-6.16-2.62-9.24-3.93-.45-.21-.75-.82-1.39-.55-.34.08-.6-.08-.85-.29-.45-.21-.75-.82-1.39-.54-2.15-.7-4.3-1.4-6.45-2.1-.5-.69-1.26-.61-1.97-.66-1.3-.35-2.6-.7-3.9-1.05-1.8-.77-3.64-1.42-5.63-1.44-2.03.01-3.85-1.01-5.86-1.21-3.01-.3-5.98-.93-8.99-1.31-1.45-.18-2.86-.7-4.34-.63-.54-.5-1.2.06-1.76-.21-1.65-.12-3.29-.24-4.94-.35-.83-.74-1.79.25-2.64-.21-1.26-.02-2.52-.05-3.78-.07-.59-.5-1.22-.1-1.84-.12-2.49-.08-4.99.31-7.47-.2-.41-.09-.72.09-1.02.32-13.51.46-26.78,2.46-39.78,6.2-23.73,6.83-44.93,18.36-63.59,34.5-23.88,20.66-40.96,45.95-51.32,75.78-.13.38-.34.74-.51,1.11-.73.37-1.24-.08-1.75-.48-9.15-7.15-18.33-14.25-27.51-21.35-9.44-7.31-18.86-14.64-28.29-21.94-9.1-7.05-18.18-14.14-27.3-21.16-3.09-2.38-6.17-4.78-9.23-7.2-.47-.37-.97-.73-1.19-1.34-.2-.75.17-1.36.48-1.98,3.75-7.38,7.83-14.57,12.21-21.59,4.82-7.73,10-15.22,15.54-22.46,3.42-4.46,7.01-8.77,10.64-13.07,6.15-7.29,12.83-14.08,19.67-20.71,4.47-4.33,9.16-8.42,13.94-12.42,5.71-4.77,11.59-9.31,17.64-13.62,7.31-5.21,14.86-10.05,22.62-14.55,6.28-3.64,12.71-7,19.23-10.15,8.29-4.01,16.78-7.54,25.42-10.72,10.74-3.96,21.7-7.18,32.84-9.81,9.09-2.15,18.27-3.77,27.53-5.01,7.32-.98,14.67-1.53,22.06-1.63,2.74-.04,5.48-.04,8.22-.1,1.7.1,3.41-.23,5.1.36.58.2,1.28-.09,1.82-.5h.84c.56.54,1.25.54,1.94.38,1.91-.45,3.82-.24,5.74-.14,1.63.03,3.26.05,4.89.08.83.66,1.78-.28,2.62.21.89.02,1.79.05,2.68.07.66.47,1.42-.17,2.09.21,1.89.27,3.81.09,5.7.52,1.19.27,2.44.05,3.69.25,2.36.39,4.77.55,7.15.84,2.86.34,5.72.77,8.58,1.14,2.95.37,5.87.97,8.81,1.48,2.19.69,4.42,1.21,6.72,1.32,1.29.3,2.59.61,3.88.91.68.64,1.58.25,2.34.52,3.77.93,7.57,1.71,11.25,3.01,1.38.49,2.86.71,4.27,1.17.41.34.86.53,1.4.35.72.32,1.57.29,2.23.78,2.81,1.17,5.66,2.23,8.66,2.83.47.19.94.38,1.4.57.54.23.98.77,1.67.53,1.12.4,2.23.79,3.35,1.19.36.67,1.09.52,1.65.76,4.1,1.57,8.16,3.24,12.14,5.11.67.31,1.39.62,2.13.81.54.76,1.29,1.1,2.22,1.07,1.03.48,2.06.95,3.09,1.43.28.53.77.78,1.28,1.02,1.71.82,3.36,1.78,5.21,2.27.91.49,1.81.98,2.72,1.47.44.79,1.18,1.01,2.01,1.05.45.23.89.45,1.34.68.37.68.98.94,1.71,1,.18.11.35.23.53.34.3.59.86.7,1.45.77,1.94,1.39,4.21,2.24,6.1,3.72.24.19.58.24.87.36.38.83,1.23.92,1.93,1.25,1.11.68,2.22,1.37,3.34,2.05.65,1.03,1.76,1.47,2.73,2.08,1.52.95,2.89,2.15,4.58,2.84Z"/>
  <path class="cls-1" d="m261.05,456.41c.18.02.37.04.55.07.41.47.89.43,1.41.21.18.02.37.04.55.06.41.47.89.44,1.41.22.28.02.55.05.83.07.42.47.9.42,1.41.19,1.21.12,2.41.24,3.62.36.71.78,1.56-.01,2.32.22.53.02,1.05.05,1.58.07.38.39.83.56,1.34.31.43-.21.85-.28,1.29-.1,4.41,0,8.83.11,13.24.01,28.19-.59,54.97-6.74,79.88-20.28,3.63-1.97,7.16-4.1,10.61-6.38.42-.28.88-.5,1.32-.75.58-.23.98.22,1.46.38.12.05.23.13.32.22.34.48.75.86,1.33,1.02.5.4,1.04.73,1.5,1.18.47.72,1.22,1.08,1.94,1.48.24.13.38.35.55.55,1.41,1.17,2.75,2.43,4.39,3.3.12.06.22.14.31.22.34.54.79.94,1.44,1.08,1.75,1.19,3.25,2.71,5.01,3.89.57.67,1.19,1.29,2.02,1.64,1.73,1.3,3.47,2.59,5.16,3.94.34.45.67.92,1.26,1.08.12.05.22.13.32.21.75.63,1.34,1.46,2.31,1.81.5.18.86.55,1.24.89.52.86,1.35,1.32,2.19,1.79.47.21.81.6,1.22.89.4.47.79.95,1.42,1.12,1.43.94,2.72,2.07,4.08,3.1.53.71,1.22,1.21,2.03,1.55.86.45,1.5,1.17,2.25,1.76.73.98,1.66,1.7,2.78,2.19,2.26,1.63,4.34,3.49,6.63,5.1.57.67,1.18,1.3,2.03,1.63,1.82,1.2,3.42,2.68,5.17,3.98.57.87,1.4,1.42,2.32,1.85,1.06.49,1.73,1.48,2.7,2.07.35.54.8.96,1.46,1.12,2.54,1.92,5.02,3.91,7.54,5.85.45.75,1.19,1.14,1.93,1.52.11.06.21.15.3.24.33.47.67.92,1.27,1.07.46.22.82.58,1.22.87.57.86,1.41,1.38,2.32,1.8,2.26,1.62,4.32,3.48,6.59,5.07.55.68,1.17,1.27,1.98,1.63.24.1.45.26.62.45.56.73,1.38,1.18,2.01,1.83.12.19.17.4.16.62-.16,1.02-.98,1.56-1.66,2.17-11.66,10.45-24.11,19.84-37.51,27.94-11.59,7.01-23.67,13.07-36.22,18.21-12.76,5.22-25.85,9.41-39.23,12.7-10.88,2.67-21.89,4.68-33.01,6.06-6.49.8-12.99,1.53-19.56,1.59-4.41.04-8.82.27-13.23.25-.27,0-.56-.07-.8.14h-8.93c-.61-.7-1.49-.75-2.18-.5-1.55.56-3.11.27-4.66.36-1.22,0-2.45,0-3.67,0-1.18-.84-2.42-.11-3.63-.14-.62,0-1.24,0-1.86-.01-.91-.93-1.9-.14-2.85-.13-.47-.01-.94.03-1.41-.03-.6-.63-1.24-.72-1.93-.14-.48.05-.96.09-1.44-.05-.64-.63-1.32-1-2.14-.27-.35.08-.69.03-1.01-.12-.52-.79-1.13-.56-1.76-.16-.35.09-.69.05-1.02-.1-.59-.78-1.23-.46-1.88-.09-.95.06-1.9.15-2.79-.33-.46-.37-.86-1-1.56-.37-.9.25-1.78.22-2.6-.28-.41-.43-.73-1.13-1.49-.48-.13.03-.26.03-.38,0-.59-.6-1.19-.53-1.79-.02-.67.13-1.32.14-1.9-.28-1.04-1.21-2.12-1.4-3.34-.58-1.16.2-2.26-.02-3.3-.53-.97-1.28-1.61-1.41-2.84-.59-1.07.28-2.06-.1-3.06-.39-.85-.3-1.18-1.31-2.26-1.44-.76-.09-1.44-.01-2.16.07-.14,0-.27-.05-.39-.11-.81-.83-1.68-1.27-2.75-.42-.45.1-.86.01-1.22-.27-.93-1.35-2.54-1.16-3.82-1.71-.68-.29-1.24-.25-1.79.22-.43.12-.84.04-1.22-.18-1.3-1.52-1.65-1.63-3.04-.99-.27.03-.51-.05-.72-.23-.28-.71-.76-.57-1.28-.32-.27,0-.5-.08-.7-.26-.24-.59-.66-.61-1.17-.35-.13,0-.26-.02-.38-.07-.6-.74-1.19-1.5-2.23-.59-.45.08-.85-.04-1.19-.35-.96-1.42-1.38-1.54-3.27-.93-2.19-.27-4.21-1.07-6.2-1.95-.94-1.06-1.86-2.16-3.53-1.5-.21,0-.41-.07-.58-.18-.52-1.03-1.29-1.46-2.43-1.05-.13-.01-.26-.05-.38-.1-.89-1.06-2.01-1.47-3.37-1.16-.21-.02-.39-.09-.56-.22-.47-.88-1.26-1.35-2.19-1.45-1.45-.15-2.51-1.52-4.07-1.21-.14-.02-.26-.07-.38-.13-.96-1.06-1.99-1.97-3.6-1.53-.13-.04-.25-.1-.36-.18-.32-1.21-1.18-1.19-2.14-.94-.13-.03-.25-.1-.36-.17-.75-1.42-1-1.54-2.2-.98-.63.09-1.13-.13-1.54-.6-.66-1.69-2.51-2.57-4.32-2.05-1.59-.27-2.96-.96-4.13-2.06-.8-1.81-2.16-2.52-4.03-2.1-.61-.04-1.1-.29-1.48-.77q-.58-1.61-2.11-1.33c-.29-.03-.53-.16-.71-.39-.15-.85-.62-1.38-1.5-1.49-.79-.1-1.29-1.06-2.22-.7-.13-.03-.25-.09-.36-.17-.21-.72-.77-1.01-1.39-1.38-2.02-1.19-4.02-2.41-6.03-3.6-1.34-.79-2.44-2.15-4.22-2.08-.2-.06-.37-.18-.5-.34-.31-.75-.83-1.3-1.52-1.74-1.56-1-3.09-2.03-4.61-3.08-.56-.39-1.12-.61-1.79-.49-.2-.06-.36-.19-.48-.36-.23-.55-.45-1.08-1.02-1.43-2.73-1.64-5.18-3.67-7.79-5.49-2.13-1.48-4.17-3.09-6.2-4.7-1.02-.81-1.91-1.73-3.09-2.39-.55-.31-1.25-.96-1.7-1.58-.44-.61-1-.57-1.56-.71-.12-.06-.23-.14-.32-.24-.08-1.04-.7-1.45-1.68-1.46-.12-.06-.22-.15-.3-.26-.03-1.24-.88-1.39-1.84-1.39-.19-.09-.33-.23-.44-.4-.16-.87-.07-1.98-1.54-1.51-.45-.06-.78-.28-1-.68-.14-1.72-.48-2.01-1.81-1.84-.76-.13-1.31-.53-1.6-1.26-.1-1.77-.68-2.39-2.24-2.39-.72-.12-1.3-.55-1.79-1.02-2.54-2.45-5.05-4.93-7.48-7.48-.47-.49-.92-1.05-1.09-1.75-.05-1.65-.68-2.29-2.24-2.28-.92-.28-1.43-.92-1.61-1.84.19-1.32-.14-1.67-1.78-1.83-.39-.21-.61-.55-.69-.97.4-1.38-.59-1.43-1.5-1.56-.18-.11-.31-.26-.39-.45.21-1.14-.26-1.75-1.43-1.81-.12-.08-.21-.18-.28-.3-.16-.69-.7-1.23-.95-1.74-.51-1.05-1.78-1.37-2.01-2.58-.14-.78-.95-1.22-1.45-1.8-2.72-3.17-5.15-6.56-7.67-9.88-1.62-2.13-3.08-4.39-4.69-6.52-1.8-2.39-3.14-5.06-4.95-7.43-.48-.63-.88-1.31-1.59-1.72-.3-.17-.51-.42-.62-.73-1.13-3.25-3.34-5.89-5.01-8.83-.67-1.18-1.54-2.24-1.98-3.56-.13-.38-.58-.44-.87-.65-.11-.08-.2-.19-.27-.3.09-.99-.05-1.85-1.23-2.1-.09-.11-.14-.23-.18-.36.3-1.19-.11-1.91-1.37-2.07-.49-.37-.73-.87-.74-1.49.42-1.6.14-2.13-1.56-2.9-.93-.81-1.55-1.76-1.34-3.07.79-.77,2.07-1.08,2.26-2.41.08-.11.18-.2.3-.27,1.31-.38,2.16-1.33,2.88-2.42,6-4.7,12.08-9.29,18.09-13.97,4.48-3.48,8.95-6.97,13.42-10.46,3.63-2.83,7.28-5.63,10.9-8.48,1.39-1.09,2.9-2.11,4.27-3.21,1.95-1.57,3.94-3.12,5.9-4.68,2.09-1.66,4.18-3.33,6.31-4.95,4.93-3.74,9.77-7.61,14.68-11.37,2.44-1.87,4.81-3.84,7.33-5.61.83-.22,1.44-.7,1.8-1.5.45-.33.86-.71,1.37-.94,1.66,0,2.53-1.37,3.73-2.16.61-.4,1.16-.94,1.97-.49.12.27.24.53.36.8-.22,1.23.28,2.22,1.08,3.09h0c.07,1.9,1,3.56,1.74,5.24.51,1.17.56,2.62,1.78,3.44.02.09.05.19.07.28-.3.82.12,1.3.78,1.68.11.28.22.56.33.84-.38,1.09.34,1.66,1.07,2.23.3.65.59,1.31.89,1.96.18,1.76,1.13,3.14,2.19,4.46.3.54.6,1.08.9,1.63.21.89.11,1.95,1.29,2.3.13.27.27.54.4.81-.12,1.45,1.05,2.31,1.64,3.4,1.97,3.7,4.38,7.14,6.69,10.62,2.4,3.6,5.09,7,7.76,10.42,1.09,1.4,2.56,2.48,3.32,4.13.22.47.79.45,1.14.75.15.17.3.34.45.51-.16,1.16.88,1.26,1.51,1.73.22.24.44.47.67.71.24,1.21,1.06,1.9,2.13,2.36,2.62,2.63,5.25,5.25,7.87,7.88.37,1.21,1.29,1.81,2.42,2.17.22.21.43.41.65.62.26.99.88,1.56,1.92,1.64l.03.02c.35,1.45,1.79,1.94,2.75,2.72,1.54,1.25,3.06,2.55,4.66,3.76,2.72,2.05,5.45,4.07,8.29,5.95,3.54,2.32,7.03,4.72,10.71,6.81,1.1.62,2.05,1.76,3.52,1.64.17.11.35.23.52.34.79,1,1.75,1.67,3.09,1.57,1.3.68,2.59,1.36,3.89,2.04.79.98,1.85,1.34,3.07,1.37.28.11.56.22.84.33.42,1.07,1.44.83,2.25,1.05h0c.42.84,1.23.73,1.97.82h-.01c1.56.71,2.93,1.89,4.78,1.89.1,0,.18.04.24.11.55.6,1.24.81,2.03.78.25.11.51.23.76.34,2.36,1.35,4.9,2.15,7.6,2.46.26.11.52.22.77.33,2.03.61,3.92,1.76,6.15,1.64.84.2,1.68.4,2.51.6.74.2,1.32,1.05,2.23.54.37.09.74.18,1.12.27.4.44.85.56,1.4.28,1.4.28,2.79.55,4.19.83,1.55.5,3.07,1.11,4.76.8Z"/>
  <path class="cls-4" d="m0,278.05c.09,0,.16-.04.23-.09.39.16.58.47.6.86.12,2.74,1.35,5.34.95,8.16-.16,1.08,0,2.19-.62,3.21-.36.6-.2,1.35-.26,2.04-.05.59.02,1.23-.67,1.55-.07-.06-.15-.09-.23-.09v-15.63Z"/>
  <path class="cls-1" d="m278.35,571.74c-.03-.09-.07-.17-.12-.24,1.48-.18,2.98.22,4.43-.72.67-.43,2.09-.59,2.39.96h-6.7Z"/>
  <path class="cls-5" d="m278.23.24c.06-.07.1-.15.12-.24h6.98c-.85,1.17-1.53,1.4-2.63.67-.87-.58-1.78-.32-2.67-.39-.6-.05-1.2-.03-1.79-.04Z"/>
  <path class="cls-5" d="m293.85.24c-1.2.01-2.4.03-3.6.03-.7,0-1.34.07-1.99.44-.89.5-1.69.38-2.09-.72h7.54c.04.08.09.16.14.24Z"/>
  <path class="cls-2" d="m559.47,267.45c.13,5.09.69,10.16.64,15.26,0,.37-.02.74-.02,1.1.24,1.65.23,3.33.07,4.97-.25,2.45-.24,4.86,0,7.31.17,1.73.17,3.5-.05,5.25-.03,1.26-.06,2.53-.09,3.79-.49.48-.44,1.06-.26,1.64.25.8.23,1.6.05,2.4-.02.61-.04,1.22-.07,1.83-.35.56-.49,1.14-.22,1.8.2.51.21,1.05.01,1.58-.02.45-.05.91-.07,1.36-.33.38-.47.77-.22,1.26.22.43.17.9.02,1.35-.02.34-.05.68-.07,1.03-.87.79.2,1.74-.21,2.56-.02.26-.05.52-.07.79-.74.71.03,1.56-.21,2.32l-.07.74c-.8.62.14,1.42-.21,2.09-.02.23-.04.47-.06.7-.79.58.11,1.35-.22,1.98-.02.18-.04.35-.06.53-.78.57.1,1.34-.23,1.96-.01.09-.02.18-.04.27-.62.59,0,1.34-.24,1.98-.02.18-.04.35-.06.53-.58.43-.06,1.01-.2,1.51-.02.15-.05.3-.07.45-.72.49.1,1.18-.23,1.73.04.09.03.16-.04.23-.65.49.05,1.17-.24,1.72.04.09.03.17-.04.24-.64.49.05,1.16-.24,1.7.04.09.02.18-.04.26-.49.42-.11.98-.22,1.46.04.08.03.15-.05.21-.54.44-.11,1.01-.23,1.51-.48,1.12-.47,2.33-.6,3.51-.54.41-.11.97-.24,1.45-.46.47-.25,1.08-.33,1.62-.48.9-.45,1.88-.5,2.85-.5,1.82-.98,3.64-1.16,5.52-.65.74-.28,1.7-.52,2.52v.02c-.78.7-.22,1.7-.56,2.5-.1.37-.2.73-.3,1.1-.8,1.2-.7,2.64-1.09,3.96-.95,3.19-1.49,6.5-2.65,9.64-.15.42.03.83-.08,1.23l-.03.06c-.58.52-.69,1.17-.54,1.9-.04.18-.09.35-.13.53-.81.91-.85,2.06-1.03,3.17-.12.34-.24.67-.36,1.01-1.3,2.96-2.37,6.01-3.04,9.18v.03c-1.32,2.21-1.9,4.7-2.83,7.06-1.32,3.35-2.76,6.64-4.01,10.02-.23.63-.83,1.13-.69,1.9-.11.28-.22.56-.33.84-.94.48-.97,1.39-1.06,2.26-.11.27-.22.54-.34.81-.98.68-1.26,1.69-1.33,2.8-.38.74-.77,1.48-1.15,2.22-1.39,1.88-2.41,3.95-3.03,6.2-.31.63-.62,1.26-.93,1.89-1.06.89-1.6,2.07-1.87,3.39,0,.09-.02.17-.08.24-1.3,1.12-1.87,2.66-2.4,4.21l-.1.26c-1.39,1.17-1.93,2.9-2.86,4.36-3.01,4.72-5.92,9.5-9.13,14.1-2.94,4.22-6.04,8.32-9.16,12.4-1.32,1.72-2.54,3.56-4.19,5.01-.37.33-.35.84-.56,1.25l-.02.02c-.81.24-1.19.85-1.38,1.62l-.03.06c-.81.38-1.53.85-1.67,1.85-.11.12-.21.25-.32.37-.74.41-1.48.82-1.57,1.8-.31.33-.62.66-.94.99-.95.42-1.61,1.11-1.9,2.12-.48.5-.97,1-1.45,1.5-1.25.59-2.15,1.61-2.98,2.65-1.77,2.23-3.9,4.09-6.02,5.95-.75.65-1.34,1.39-1.83,2.24-.55.49-1.1.98-1.64,1.47-.1-.12-.21-.23-.31-.35-.41-.84-1.3-1.09-2-1.58-.17-.12-.34-.24-.52-.36-.41-.85-1.3-1.1-2-1.59-1.98-1.36-3.95-2.74-5.66-4.45-.28-.28-.66-.45-1-.68-.59-.85-1.35-1.47-2.31-1.84-.53-.06-.79-.48-1.09-.84-.35-.53-.79-.94-1.42-1.11-.09,0-.15-.02-.2-.1-.51-.72-1.23-1.18-1.99-1.59-1.15-.85-2.32-1.67-3.44-2.55-1.39-1.08-2.74-2.21-4.11-3.32-.43-.42-.75-.97-1.41-1.1-1.14-.39-1.67-1.56-2.72-2.07-.57-.87-1.38-1.43-2.31-1.84-1.89-1.14-3.45-2.71-5.22-4-.41-.85-1.3-1.1-2-1.59-1.98-1.36-3.96-2.73-5.66-4.45-.28-.28-.66-.45-1-.67-.75-.96-1.61-1.77-2.8-2.16-.85-.44-1.27-1.44-2.23-1.74-.5-.74-1.27-1.13-1.99-1.58-1.38-1.06-2.77-2.12-4.15-3.18-.26-.59-.77-.86-1.35-1.05-.51-.15-.78-.6-1.17-.91-.56-.87-1.38-1.42-2.3-1.84-.55-.05-.64-.68-1.1-.85-.59-.96-1.63-1.34-2.48-1.95h0c-.45-.41-.78-.99-1.45-1.11-1.8-1.25-3.58-2.54-5.22-4-.41-.85-1.3-1.1-2-1.58-1.87-1.06-3.33-2.65-5.04-3.92-.43-.43-.75-.98-1.42-1.1-.09,0-.16-.03-.2-.11-1.29-1.44-2.83-2.56-4.49-3.52-.18-.12-.35-.25-.53-.37-.51-.73-1.23-1.18-2-1.59-.58-.23-1.04-.61-1.42-1.11-.42-.46-.76-1-1.44-1.12-.08.02-.14-.01-.17-.08-.5-.65-.36-1.16.3-1.63,2.32-1.65,4.67-3.26,6.9-5.04,1.66-1.33,3.23-2.78,4.99-3.99.36-.24.4-.72.63-1.06.07-.26.3-.3.51-.36,1.04-.02,1.34-.85,1.72-1.59.22-.35.45-.68.88-.81.87-.24,1.62-.72,2.18-1.4,1.26-1.55,2.73-2.88,4.19-4.23.5-.47.95-1.02,1.1-1.74.15-.64.67-.94,1.13-1.3.95-.3,1.47-.99,1.7-1.92.08-.1.17-.21.25-.31.79-.27,1.3-.77,1.41-1.62l.04-.05c1.52-.75,2.25-2.27,3.21-3.51,3.62-4.66,6.96-9.53,9.79-14.73.44-.8,1.02-1.51,1.19-2.44,0-.09.02-.17.08-.24,1.12-.87,1.66-2.05,1.86-3.42.15-.7.53-1.29.91-1.89.99-.9,1.6-1.99,1.61-3.36-.03-.34.15-.59.34-.83.7-.36.8-.99.77-1.69.03-.09.05-.18.08-.27,1.16-1.81,2.03-3.74,2.34-5.89l.05-.05c.43-.33.62-.81.76-1.3.68-2.35,1.75-4.59,2.03-7.05v-.05c.73-.97.91-2.09.94-3.26-.11-.72.25-1.34.46-1.98.39-.69.48-1.46.59-2.22v-.02c.69-.71.57-1.61.57-2.48v-.02c.49-1,.84-2.02.24-3.11-.55-.16-1.11-.08-1.67-.08-50,0-100.01,0-150.01-.01-.59,0-1.21.17-1.78-.15-.01-.51-.04-1.02-.04-1.53,0-35.78,0-71.56-.04-107.33,0-1.42.35-1.72,1.74-1.72,88.64.04,177.28.04,265.91,0,1.25,0,1.67.26,1.9,1.6,1.37,8.13,2.56,16.28,3.28,24.5.22,2.49.52,4.97.78,7.46Z"/>
  <path class="cls-4" d="m.23,293.78c-.26-3.27,1.44-6.34.9-9.65-.12-.72-.14-1.4-.54-2.09-.72-1.26-.14-2.72-.37-4.08-.11-3.63.16-7.25.4-10.86.37-5.42.89-10.83,1.55-16.22.95-7.64,2.18-15.24,3.77-22.77,4-19.09,9.89-37.59,17.72-55.46,2.05-4.67,4.21-9.28,6.49-13.84.16-.32.21-.73.62-.87,10.69,8.28,21.38,16.56,32.07,24.85,13.95,10.82,27.9,21.65,41.85,32.48,6.53,5.07,13.06,10.15,19.6,15.22.44.34.9.65,1.36.97-.94,3.23-1.92,6.45-2.82,9.7-3.86,13.99-5.96,28.25-6.19,42.77-.78,1.3-.78,2.61,0,3.91.02,1.81.04,3.62.06,5.43.16.49.24,1.01-.04,1.46-.38.6-.08,1.04.26,1.49.03.52.05,1.05.08,1.57.27.76-.63,1.63.21,2.34.03.34.05.69.08,1.03-.07.69-.36,1.41.21,2.04.03.27.06.55.09.82-.26.51-.3,1,.18,1.42.21,3.3.95,6.51,1.45,9.76-.35.63-.3,1.2.28,1.68.1.46.2.92.31,1.37-.11.36-.11.74-.03,1.09.67,2.93,1.06,5.93,1.92,8.82.17.58.47,1.08.83,1.55.1.37.19.75.29,1.12.05,1.3.17,2.59,1.09,3.63l.3,1.12c-.38,1.22.31,2.13.91,3.07.11.27.22.54.33.81-.76,1.59-2.36,2.31-3.64,3.32-2.23,1.76-4.51,3.47-6.75,5.22-3.2,2.49-6.38,5.01-9.58,7.48-4.02,3.1-8.01,6.24-12.02,9.34-2.14,1.65-4.27,3.32-6.39,5-4.23,3.36-8.54,6.63-12.81,9.95-4.24,3.3-8.51,6.57-12.77,9.85-4.71,3.62-9.37,7.3-14.07,10.94-3.86,2.99-7.81,5.87-11.55,9.02-1.2,1.01-2.57,1.79-3.74,2.84-.43.39-.7.83-.93,1.33-.11.09-.23.13-.37.14-1.2-1.55-1.93-3.33-2.63-5.14-.28-1.35-.36-2.8-1.74-3.62-.27-.33-.51-.68-.5-1.14.06-.94-.08-1.79-1.05-2.24-.07-.07-.09-.15-.07-.24-.07-.98-.14-1.96-1.12-2.53h0c.26-1.24-.64-2.17-1.04-3.18-.91-2.25-1.72-4.54-2.67-6.77-.67-1.56-1.39-3.11-1.87-4.75-.12-.42-.38-.73-.75-.95-.06-.17-.11-.34-.17-.51.39-1.11-.13-1.89-.94-2.56-.18-.41-.44-.8-.4-1.28-.32-2.72-1.04-5.31-2.6-7.61-.21-.55-.47-1.09-.47-1.7.43-.97-.02-1.65-.73-2.25-.03-.16-.06-.32-.09-.48.3-1.42-.56-2.59-.92-3.84-.22-.78.22-1.94-.93-2.38-.03-.18-.05-.35-.08-.53.08-1.43-.22-2.76-1.07-3.94-.45-1.17-.83-2.35-.88-3.62.07-1.5-.06-2.96-1.05-4.2-.02-.19-.04-.38-.06-.56.67-.86-.18-1.34-.5-1.95-.02-.19-.04-.38-.06-.56.43-.99.02-1.94-.26-2.83-.43-1.36-.54-2.77-.83-4.15-.1-.49-.24-.99-.58-1.4.05-1.16-.76-2.16-.59-3.34.34-1.11-.06-2.1-.52-3.08-.39-.7-.31-1.47-.35-2.22.27-.61.33-1.2-.24-1.69-.02-.06-.05-.11-.06-.17,0-.03,0-.06.01-.09.27-.61.33-1.2-.23-1.69-.02-.06-.05-.11-.06-.17,0-.03,0-.06.01-.09.35-.62.17-1.17-.22-1.69-.07-.08-.08-.16-.03-.25,0-.67.48-1.41-.26-1.99-.07-.07-.08-.15-.03-.23,0-.68.48-1.41-.24-2-.02-.16-.03-.33-.05-.49.07-.69.36-1.41-.23-2.02-.01-.16-.03-.31-.04-.47-.32-.65.61-1.44-.22-2.04-.02-.25-.04-.51-.06-.76-.26-.75.63-1.61-.22-2.31-.02-.33-.04-.66-.06-.99-.29-.77.74-1.65-.21-2.36-.02-.43-.04-.86-.06-1.29-.13-.35-.2-.72,0-1.04.41-.61.18-1.1-.22-1.58l-.06-2.08c-.15-.45-.27-.95,0-1.33.52-.74.11-1.29-.21-1.89-.03-1.27-.06-2.55-.09-3.82Z"/>
  <path class="cls-4" d="m31,413.65c-.13-1.08.68-1.61,1.36-2.11,3.96-2.88,7.71-6.03,11.67-8.91,3.51-2.55,6.82-5.36,10.25-8.04,3.38-2.64,6.79-5.24,10.18-7.88,4.55-3.54,9.08-7.12,13.64-10.65,4.41-3.41,8.88-6.74,13.29-10.17,3.98-3.09,7.88-6.28,11.85-9.38,3.93-3.07,7.91-6.07,11.84-9.13,3.3-2.57,6.57-5.18,9.86-7.77.14-.11.34-.13.52-.19.24.29.26.61.11.95,0,1.05-1.02,1.1-1.58,1.57-1.14.95-2.2,2.04-3.66,2.54-.37.28-.75.55-1.12.83-.44.84-1.26,1.22-2.04,1.65-2.33,1.77-4.67,3.51-6.98,5.3-6.12,4.74-12.28,9.42-18.3,14.28-2.05,1.65-4.18,3.21-6.21,4.9-1.2,1-2.48,1.99-3.79,2.9-2.79,1.95-5.41,4.13-8.1,6.22-4.36,3.39-8.78,6.69-13.04,10.19-3.62,2.97-7.46,5.62-11.05,8.62-3.62,3.03-7.49,5.76-11.25,8.63-.64.49-1.26,1.01-1.89,1.51-.89,1.04-1.92,1.9-3.16,2.49-.08,0-.14.04-.18.11-.57.76-1,1.72-2.22,1.53Z"/>
  <path class="cls-3" d="m285.93,344.47c.65,0,1.3.02,1.95.02,49.93,0,99.86,0,149.8,0,.46,0,.93.02,1.39,0,.59-.01.7.32.63.81-.05.1-.13.13-.23.1-.05-.44-.29-.65-.74-.64-.51,0-1.02,0-1.53,0-49.81,0-99.61,0-149.42-.01-.61,0-1.3.28-1.84-.28Z"/>
  <path class="cls-1" d="m159.35,399.49c-.64.17-1.37.16-1.48-.57-.2-1.23-1.27-1.83-1.94-2.51-1.9-1.9-3.31-4.13-4.86-6.27-.89-1.23-1.84-2.45-2.82-3.57-1.67-1.9-2.15-4.55-4.19-6.14-.18-.14-.33-.35-.4-.56-.97-2.73-3.25-4.72-4.23-7.46-.27-.75-1.4-1.2-.62-2.24,2.7,4.43,5.31,8.91,8.25,13.19,3.74,5.44,7.71,10.69,12.03,15.68.12.13.18.31.27.47Z"/>
  <path class="cls-1" d="m206.92,438c-.91.45-1.49.1-2.33-.47-1.26-.85-2.69-1.52-3.96-2.38-1.55-1.06-3.17-2.01-4.69-3.12-1.31-.96-2.69-1.9-4.12-2.7-2.98-1.68-5.61-3.83-8.31-5.9-1.35-1.04-2.71-2.13-3.94-3.23-.91-.82-3-1.04-2.58-3.06,5.42,4.5,10.94,8.88,16.81,12.79,3.93,2.62,7.95,5.11,12.08,7.41.36.2.69.44,1.04.67Z"/>
  <path class="cls-2" d="m425.75,383.82c.4,1.64-.89,2.69-1.56,3.83-3.38,5.7-7.03,11.22-11.28,16.33-.39.46-.83.54-1.35.52,5.34-6.47,10-13.42,14.19-20.68Z"/>
  <path class="cls-2" d="m396.44,419.84c.06.83-.34,1.25-1.03,1.75-1.24.9-2.43,1.89-3.59,2.91-2.01,1.78-4.28,3.2-6.42,4.81-.78.58-1.92.91-1.79,2.24-.4-.29-.81-.57-1.21-.86,2.19-1.62,4.37-3.24,6.57-4.86,2.58-1.89,5.03-3.94,7.47-5.99Z"/>
  <path class="cls-4" d="m122.53,329.69c-.65-.26-1.03-.72-1.25-1.39-.51-1.54-1.07-3.07-.83-4.73.08-.51-.27-.87-.38-1.29-.34-1.33-1.14-2.64-.25-4.05.9,3.82,1.81,7.64,2.71,11.46Z"/>
  <path class="cls-2" d="m407.02,409.71c.14,1.04-.39,1.75-1.14,2.39-1.27,1.07-2.6,2.06-3.49,3.54-.59.97-1.59,1.56-2.84,1.44,2.49-2.46,4.98-4.91,7.47-7.37Z"/>
  <path class="cls-1" d="m130.87,353.99c-.55-.01-1-.22-1.21-.75-.85-2.11-1.68-4.23-2.51-6.35-.22-.55-.08-1.08.21-1.58,1.17,2.9,2.34,5.79,3.51,8.69Z"/>
  <path class="cls-1" d="m237.93,451.11c-.75.39-1.5.34-2.28.08-1.32-.44-2.64-.85-3.97-1.24-.69-.2-1.08-.68-1.35-1.3,2.6.6,5.09,1.57,7.6,2.46Z"/>
  <path class="cls-5" d="m380.82,15.93c-.28.48-.69.36-1.09.23-2.18-.73-4.36-1.46-6.55-2.18-.46-.15-.79-.45-1.02-.87,2.98.65,5.83,1.71,8.66,2.83Z"/>
  <path class="cls-2" d="m436.58,357.85c.17,1.08.01,2.08-.4,3.1-.41,1.02-.61,2.13-.95,3.18-.26.83-.48,1.71-1.44,2.06.93-2.78,1.86-5.57,2.79-8.35Z"/>
  <path class="cls-5" d="m444.24,48.28c-2.77-.86-4.98-2.64-7.2-4.39-.11-.09-.08-.35-.11-.53,2.49,1.55,4.99,3.11,7.31,4.92Z"/>
  <path class="cls-1" d="m120.33,344.49c1.74-1.37,3.49-2.74,5.23-4.1.34.27.41.63.37,1.04-1.52.39-2.5,1.61-3.73,2.45-.61.41-1.15.68-1.87.62Z"/>
  <path class="cls-5" d="m414.95,30.68c-2.34-.07-4.2-1.39-6.17-2.42-.3-.16-.31-.54-.32-.87,2.22.97,4.41,2.03,6.49,3.28Z"/>
  <path class="cls-1" d="m244.86,453.08c-.27.47-.65.51-1.17.43-1.59-.24-2.89-1.36-4.54-1.42-.26,0-.37-.37-.44-.65,2.13.25,4.12,1.03,6.15,1.64Z"/>
  <path class="cls-5" d="m280.87,113.85c.19-.68.57-.79,1.26-.62,2.57.66,5.18.63,7.75.01.74-.18,1.03.07,1.31.6-3.44,0-6.88,0-10.32,0Z"/>
  <path class="cls-1" d="m136.2,365.43c-1.73-.9-2.68-2.83-2.19-4.46.83,1.44,1.63,2.89,2.19,4.46Z"/>
  <path class="cls-2" d="m433.74,366.25c.3.34.42.71.24,1.14-.57,1.4-1.13,2.81-1.7,4.21-.16.39-.49.52-.89.54.78-1.96,1.56-3.92,2.34-5.89Z"/>
  <path class="cls-4" d="m116.66,287.82c-1.08-.26-1.07-1.1-1.07-1.95,0-.86,0-1.7,1.07-1.95,0,1.3,0,2.61,0,3.91Z"/>
  <path class="cls-5" d="m346.78,6.36c-.11.21-.26.45-.51.41-1.89-.36-3.77-.74-5.64-1.15-.22-.05-.38-.37-.57-.57,2.28.25,4.51.74,6.72,1.32Z"/>
  <path class="cls-1" d="m261.05,456.41c-.27.75-.87.65-1.38.44-1.11-.46-2.59.09-3.37-1.24,1.61.13,3.2.37,4.76.8Z"/>
  <path class="cls-5" d="m323.5,117.85c1.41-.47,4.75.39,5.63,1.44-1.88-.48-3.76-.96-5.63-1.44Z"/>
  <path class="cls-1" d="m227.3,447.41c-.24.26-.56.45-.87.32-1.41-.55-2.84-1.06-3.91-2.22,1.59.63,3.18,1.26,4.78,1.89Z"/>
  <path class="cls-4" d="m123.91,334.44c-.83-.06-1.32-.45-1.07-1.32.14-.5-.09-.73-.37-1.06-.48-.55-.34-.99.35-1.25.36,1.21.73,2.42,1.09,3.63Z"/>
  <path class="cls-1" d="m210.53,439.91c-1.56.64-2.62.1-3.09-1.57,1.13.33,2.12.94,3.09,1.57Z"/>
  <path class="cls-1" d="m217.49,443.33c-1.71.57-2.46.23-3.07-1.37,1.15.17,2.1.8,3.07,1.37Z"/>
  <path class="cls-2" d="m427.69,380.16c.32,1.61-.44,3-1.86,3.42.62-1.14,1.24-2.28,1.86-3.42Z"/>
  <path class="cls-1" d="m174.39,414.85c-2.05-.04-2.6-.54-2.42-2.17.95.57,1.66,1.4,2.42,2.17Z"/>
  <path class="cls-5" d="m455.75,56.63c-1.86-.51-3.3-1.59-4.29-3.26,1.51.98,2.95,2.06,4.29,3.26Z"/>
  <path class="cls-4" d="m125.12,338.63c-1.41-.73-1.79-2.01-.91-3.07.39,1,.83,1.98.91,3.07Z"/>
  <path class="cls-2" d="m430.21,374.91c.5,1.39-.07,2.57-1.61,3.36.54-1.12,1.08-2.24,1.61-3.36Z"/>
  <path class="cls-1" d="m127.37,345.31c-1.5-.76-1.78-1.57-1.08-3.09.45,1,.84,2.02,1.08,3.09Z"/>
  <path class="cls-1" d="m164.1,404.79c-1.79-.1-2.16-.5-2.13-2.36.74.76,1.58,1.43,2.13,2.36Z"/>
  <path class="cls-2" d="m437.52,354.55c.56.96.06,2.68-.93,3.26.18-1.12.46-2.22.93-3.26Z"/>
  <path class="cls-1" d="m176.96,417.1c-1.56.39-2.21-.17-1.92-1.64.76.4,1.3,1.06,1.92,1.64Z"/>
  <path class="cls-1" d="m133.12,359.01c-1.6-.46-1.96-1.21-1.07-2.23.5.68.79,1.45,1.07,2.23Z"/>
  <path class="cls-5" d="m358.98,130.68c1.42-.39,2.4.14,2.85,1.55-.97-.48-1.99-.87-2.85-1.55Z"/>
  <path class="cls-5" d="m354.31,128.41c1.47-.41,2.37.03,2.77,1.36-.97-.37-1.91-.79-2.77-1.36Z"/>
  <path class="cls-1" d="m138.39,369.35c-1.33.05-1.69-.59-1.29-2.3l1.29,2.3Z"/>
  <path class="cls-4" d="m116.94,296.2c-.87-.32-1.43-.76-.58-1.67.35-.37.34-.82.36-1.28.32.96.27,1.95.22,2.94Z"/>
  <path class="cls-1" d="m161.3,401.72c-1.73-.1-2.04-.45-1.51-1.73.55.53,1.14,1.03,1.51,1.73Z"/>
  <path class="cls-1" d="m277.36,458.09c-.42.01-.77.19-1.11.43-.8.55-1.36.39-1.52-.64.89-.05,1.77-.1,2.63.21Z"/>
  <path class="cls-1" d="m220.58,444.7c-1.75.44-1.98.33-2.25-1.05.8.25,1.56.58,2.25,1.05Z"/>
  <path class="cls-5" d="m375.81,140.69c1.46-.37,1.99.64,2.49,1.7-.83-.57-1.66-1.13-2.49-1.7Z"/>
  <path class="cls-5" d="m447.86,50.79c-1.13-.01-2.12-.22-2.28-1.61.81.47,1.6.95,2.28,1.61Z"/>
  <path class="cls-4" d="m119.52,316.86c-.53-.1-.97-.33-1.04-.91-.07-.52.33-.68.76-.77.34.52.29,1.1.28,1.68Z"/>
  <path class="cls-2" d="m439.47,345.42c.07-.04.15-.08.23-.1.48.98.44,1.85-.54,2.51.1-.8.21-1.6.31-2.4Z"/>
  <path class="cls-2" d="m398.67,417.89c-.14,1.52-.51,1.86-1.72,1.59.57-.53,1.15-1.06,1.72-1.59Z"/>
  <path class="cls-1" d="m131.72,355.94c-1.39-.27-1.55-.61-.78-1.68.4.49.59,1.09.78,1.68Z"/>
  <path class="cls-1" d="m249.6,454.22c-1.12,1.37-1.55-.1-2.23-.54.77.07,1.52.2,2.23.54Z"/>
  <path class="cls-2" d="m409.85,406.49c.09,1.22-.29,2.03-1.7,1.92.57-.64,1.13-1.28,1.7-1.92Z"/>
  <path class="cls-5" d="m405.37,25.97c-1.16.51-1.89.14-2.22-1.07.78.27,1.54.58,2.22,1.07Z"/>
  <path class="cls-2" d="m439.15,347.85c.36.95.69,1.89-.56,2.48.01-.86.2-1.69.56-2.48Z"/>
  <path class="cls-1" d="m222.54,445.53c-.93.36-1.82.67-1.97-.83.72.12,1.36.44,1.97.83Z"/>
  <path class="cls-4" d="m117.22,300.11c-1.57-.65-.4-1.54-.21-2.34.3.76.27,1.55.21,2.34Z"/>
  <path class="cls-1" d="m273.14,457.81c-.81.3-1.67,1.2-2.32-.22.79-.05,1.57-.07,2.32.22Z"/>
  <path class="cls-5" d="m419.68,33.2c-1.09.45-1.82.23-2.01-1.05.76.18,1.41.57,2.01,1.05Z"/>
  <path class="cls-4" d="m117.51,303.17c-1.25-.56-1.02-1.27-.21-2.04.31.65.24,1.35.21,2.04Z"/>
  <path class="cls-5" d="m294.97,113.92c.4-.02.82,0,1.16-.25.71-.51,1.15-.22,1.48.46-.89.07-1.78.07-2.64-.21Z"/>
  <path class="cls-1" d="m229.58,448.31c-.97.5-1.72.42-2.03-.78.73.12,1.4.4,2.03.78Z"/>
  <path class="cls-5" d="m370.76,137.35c1.2-.39,1.67.32,1.96,1.3-.65-.43-1.31-.87-1.96-1.3Z"/>
  <path class="cls-5" d="m474.09,71.96c-1.42.64-1.28-.48-1.42-1.27.6.28,1.03.76,1.42,1.27Z"/>
  <path class="cls-2" d="m411.52,404.55c.32,1.23-.25,1.69-1.41,1.62.47-.54.94-1.08,1.41-1.62Z"/>
  <path class="cls-5" d="m394.15,155.24c.64.08,1.29.17,1.93.25-.85,1.5-1.36.38-1.93-.25Z"/>
  <path class="cls-2" d="m431.32,372.4c.53.92.42,1.55-.77,1.69.18-.6.38-1.19.77-1.69Z"/>
  <path class="cls-5" d="m301.36.53c-.55.04-1.11-.02-1.63.29-.57.34-.86.06-1-.5.88-.05,1.76-.07,2.62.21Z"/>
  <path class="cls-1" d="m264.96,456.97c-.62.9-1.09.84-1.41-.22.49-.05.97-.08,1.41.22Z"/>
  <path class="cls-1" d="m263.01,456.68c-.61.9-1.08.85-1.41-.21.49-.06.97-.08,1.41.21Z"/>
  <path class="cls-4" d="m117.78,305.41c-1.08-.34-1.09-.82-.18-1.42.28.44.23.93.18,1.42Z"/>
  <path class="cls-5" d="m476.3,75.28c-.08-.51-.72-.91-.29-1.52.65.4,1.56.75.29,1.52Z"/>
  <path class="cls-1" d="m267.2,457.22c-.6.9-1.07.89-1.41-.19.49-.06.97-.09,1.41.19Z"/>
  <path class="cls-5" d="m450.53,52.76c-.87-.34-2.01-.32-2.15-1.62.77.47,1.53.95,2.15,1.62Z"/>
  <path class="cls-5" d="m333.03,120.34c.88-.44,1.58-.36,1.97.66-.66-.2-1.37-.26-1.97-.66Z"/>
  <path class="cls-5" d="m433.6,41.31c-.88-.04-1.8-.04-1.93-1.25.7.32,1.36.71,1.93,1.25Z"/>
  <path class="cls-5" d="m353.01,7.78c-.78-.16-1.81.79-2.34-.52.83-.04,1.6.18,2.34.52Z"/>
  <path class="cls-5" d="m471.69,69.75c-.98.13-1.61-.16-1.53-1.28.63.29,1.06.81,1.53,1.28Z"/>
  <path class="cls-5" d="m383.89,17.03c-.94,1.04-1.19-.12-1.67-.53.63-.06,1.16.2,1.67.53Z"/>
  <path class="cls-1" d="m252.11,454.78c-.66.88-1.12.75-1.4-.28.5-.07.97.02,1.4.28Z"/>
  <path class="cls-5" d="m422.73,34.88c-.99.38-1.56.05-1.71-1,.6.28,1.22.52,1.71,1Z"/>
  <path class="cls-5" d="m469.41,67.8c-.97.12-1.56-.21-1.49-1.29.61.3,1.07.78,1.49,1.29Z"/>
  <path class="cls-5" d="m389.15,150.84c1.27-.62,1.07.37,1.15,1.05-.38-.35-.77-.7-1.15-1.05Z"/>
  <path class="cls-5" d="m391.4,152.78c1.27-.61,1.05.39,1.14,1.06-.38-.35-.76-.71-1.14-1.06Z"/>
  <path class="cls-5" d="m464.16,63.33c-.64-.07-1.66.34-1.27-1.02.54.19.9.61,1.27,1.02Z"/>
  <path class="cls-5" d="m378.29,142.38c.76-.04,1.4.08,1.41,1.05-.53-.27-1.02-.59-1.41-1.05Z"/>
  <path class="cls-5" d="m465.83,64.73c-.7.01-1.49.14-1.26-1.01.54.19.9.6,1.26,1.01Z"/>
  <path class="cls-5" d="m363.18,132.9c.86-.36,1.37-.14,1.43.85-.5-.24-1.04-.42-1.43-.85Z"/>
  <path class="cls-5" d="m424.7,35.99c-.8.35-1.34.19-1.45-.77.57.08,1.03.39,1.45.77Z"/>
  <path class="cls-5" d="m388.88,18.98c-.71.08-1.45.26-1.65-.76.57.21,1.2.28,1.65.76Z"/>
  <path class="cls-5" d="m343.69,123.93c.86-.82,1.04.08,1.39.55-.49-.12-.99-.2-1.39-.55Z"/>
  <path class="cls-5" d="m369.92,12.32c-.71.87-1.03.16-1.4-.35.51-.07.96.12,1.4.35Z"/>
  <path class="cls-5" d="m341.45,123.1c.86-.83,1.04.07,1.39.54-.49-.11-.99-.2-1.39-.54Z"/>
  <path class="cls-5" d="m467.49,66.12c-.77.1-1.3-.09-1.24-1.01.53.2.9.59,1.24,1.01Z"/>
  <path class="cls-5" d="m306.13.81c-.68-.24-1.48.73-2.09-.21.71-.05,1.41-.05,2.09.21Z"/>
  <path class="cls-5" d="m302.55,114.49c.61-.1,1.28-.8,1.76.21-.6.08-1.2.05-1.76-.21Z"/>
  <path class="cls-2" d="m438.58,350.34c.27.87-.04,1.58-.6,2.22.13-.76.24-1.52.6-2.22Z"/>
  <path class="cls-1" d="m69.53,472.03c-6.06-6.81-11.57-14.06-16.85-21.49-5.28-7.42-10.14-15.12-14.7-23-.23-.4-.4-.83-.6-1.24,1.48-.05,1.6,1.4,1.97,2.18.7,1.51,1.84,2.68,2.6,4.14.93,1.78,2.3,3.4,3.14,5.18,1.35,2.84,3.63,4.93,5.2,7.57,3.53,5.94,7.84,11.36,12.1,16.79,1.27,1.62,2.68,3.15,3.86,4.8.65.9,1.53,1.65,2.08,2.71.39.76,1.4,1.22,1.19,2.34Z"/>
  <path class="cls-1" d="m123.92,521.06c-5.6-3.71-10.92-7.8-16.16-12-1.88-1.5-3.69-3.08-5.54-4.62,1.33-.39,2.16.7,2.82,1.35,1.67,1.65,3.61,2.94,5.36,4.47,2.42,2.12,5.13,3.9,7.77,5.77,1.61,1.14,3.11,2.44,4.87,3.38.6.32.86.95.88,1.65Z"/>
  <path class="cls-1" d="m144.34,533.98c-4.02-2.23-7.97-4.56-11.76-7.17.49-.27.93-.25,1.43.07,2.77,1.74,5.56,3.46,8.35,5.17.35.22.73.43,1.12.54.73.22.9.72.87,1.39Z"/>
  <path class="cls-1" d="m132.29,526.64c-2.78-1.67-5.49-3.43-8.07-5.4.65-.56,1.21-.16,1.74.19,1.69,1.11,3.37,2.23,5.04,3.36.66.45,1.24.97,1.28,1.85Z"/>
  <path class="cls-1" d="m219.97,563.99c-1.96-.45-3.93-.84-5.83-1.5.15-.42.5-.58.89-.5,1.59.32,3.17.69,4.63,1.42.16.08.22.38.32.58Z"/>
  <path class="cls-1" d="m182.03,552.11c-2.17-.85-4.38-1.59-6.44-2.7.67-.32,1.19-.24,1.9.17,1.09.63,2.36.96,3.56,1.39.57.2,1,.47.99,1.14Z"/>
  <path class="cls-1" d="m165.28,544.88c-1.55-.6-3.03-1.32-4.45-2.18,1.87-.56,3.97.47,4.45,2.18Z"/>
  <path class="cls-1" d="m156.89,540.78c-1.44-.68-2.9-1.33-4.22-2.25,1.84-.42,3.44.43,4.22,2.25Z"/>
  <path class="cls-1" d="m148.51,536.33c-1.36-.65-2.69-1.35-3.91-2.24.04-.03.07-.07.11-.08,1.3-.37,3.52.99,3.8,2.32Z"/>
  <path class="cls-1" d="m92.13,495.54c-.85-.82-1.69-1.64-2.54-2.45,1.58-.48,2.48.39,2.54,2.45Z"/>
  <path class="cls-2" d="m389.16,435.83c.12-.06.31-.2.35-.16,1.41,1.19,3.35,1.79,4.14,3.68-1.56-1.09-3.09-2.23-4.49-3.52Z"/>
  <path class="cls-1" d="m79.53,483.06l-2.5-2.6c1.65-.26,2.51.64,2.5,2.6Z"/>
  <path class="cls-1" d="m228.65,565.84c-1.63-.19-3.24-.5-4.8-1.03,1.82-.71,3.37-.13,4.8,1.03Z"/>
  <path class="cls-1" d="m175.33,549.35c-1.25-.46-2.51-.9-3.66-1.61,1.66-.4,3.19.28,3.66,1.61Z"/>
  <path class="cls-1" d="m34.01,420.17c-.7-.95-1.18-2.01-1.66-3.08,1.66.54,2.24,1.62,1.66,3.08Z"/>
  <path class="cls-1" d="m202.41,559.15c-1.18-.19-2.32-.54-3.39-1.08,1.81-.59,2.68-.32,3.39,1.08Z"/>
  <path class="cls-1" d="m241.22,568.11c-1.15,0-2.27-.18-3.35-.56.91-.79,2.53-.52,3.35.56Z"/>
  <path class="cls-1" d="m192.92,556.07c-1.28-.3-2.53-.72-3.7-1.33,1.67-.78,2.68.3,3.7,1.33Z"/>
  <path class="cls-1" d="m213.02,562.21c-1.04-.19-2.08-.42-3.07-.83,1.09-.88,2.18-.59,3.07.83Z"/>
  <path class="cls-1" d="m185.94,553.56c-1.2-.31-2.34-.75-3.43-1.34,1.54-.36,2.78.12,3.43,1.34Z"/>
  <path class="cls-1" d="m31,413.65c.74-.51,1.48-1.02,2.22-1.53-.04,1.47-1.1,1.88-2.27,2.18-.23-.09-.23-.25-.13-.44.07-.06.12-.13.18-.2Z"/>
  <path class="cls-1" d="m75.57,478.82c-.62-.66-1.25-1.33-1.87-1.99,1.78.07,2.32.64,1.87,1.99Z"/>
  <path class="cls-1" d="m95.48,498.61c-.66-.63-1.32-1.26-1.98-1.89,1.36-.42,1.92.11,1.98,1.89Z"/>
  <path class="cls-1" d="m168.91,546.56c-.79-.26-1.55-.59-2.23-1.08,1-.84,1.95-.39,2.23,1.08Z"/>
  <path class="cls-1" d="m223.88,564.84c-.95-.09-1.88-.25-2.76-.65.95-.82,2.04-.57,2.76.65Z"/>
  <path class="cls-1" d="m234.52,566.98c-.97,0-1.89-.22-2.79-.55.91-.81,2.07-.59,2.79.55Z"/>
  <path class="cls-1" d="m188.73,554.63c-.86-.29-1.76-.48-2.54-.98,1.44-.59,2.07-.35,2.54.98Z"/>
  <path class="cls-1" d="m35.98,423.79c-.57-.67-.91-1.47-1.28-2.25,1.48.24,1.8.81,1.28,2.25Z"/>
  <path class="cls-1" d="m151.32,537.88c-.78-.38-1.58-.71-2.25-1.28,1.49-.57,1.86-.36,2.25,1.28Z"/>
  <path class="cls-1" d="m274.16,571.42c-1.07.05-2.13.1-3.18-.21.4-.03.83,0,1.16-.28.91-.79,1.54-.46,2.02.49Z"/>
  <path class="cls-1" d="m71.2,474.01c-.55-.65-1.1-1.3-1.65-1.95,1.8.12,2.05.42,1.65,1.95Z"/>
  <path class="cls-1" d="m97.99,500.84c-.57-.52-1.15-1.05-1.72-1.57,1.27-.57,1.66-.21,1.72,1.57Z"/>
  <path class="cls-1" d="m205.76,560.23c-.77-.2-1.55-.34-2.25-.74,1.09-.89,1.6-.73,2.25.74Z"/>
  <path class="cls-1" d="m73.04,476.03c-.53-.57-1.06-1.15-1.59-1.72,1.78.06,2.14.45,1.59,1.72Z"/>
  <path class="cls-2" d="m425.76,464.27c1.5-.02,2.3.88,2.8,2.16-.93-.72-1.86-1.44-2.8-2.16Z"/>
  <path class="cls-1" d="m37.39,426.31c-.57-.68-.92-1.47-1.3-2.26,1.5.23,1.7.58,1.3,2.26Z"/>
  <path class="cls-1" d="m33.4,412.01c1.05-.83,2.11-1.66,3.16-2.49-.7,1.28-1.59,2.32-3.16,2.49Z"/>
  <path class="cls-1" d="m171.42,547.67c-.8-.26-1.56-.59-2.26-1.05,1.01-.21,2.18-.74,2.26,1.05Z"/>
  <path class="cls-1" d="m268.86,571.13c-.89.07-1.77.09-2.63-.21.26-.07.61-.06.77-.22.9-.94,1.4-.41,1.86.43Z"/>
  <path class="cls-1" d="m100.24,502.75c-.65-.55-1.3-1.1-1.95-1.65,1.21-.11,2.13.12,1.95,1.65Z"/>
  <path class="cls-1" d="m102.2,504.42c-.64-.55-1.29-1.1-1.93-1.66,1.2-.1,2.12.14,1.93,1.66Z"/>
  <path class="cls-2" d="m461.14,491.67c1.27-.01,1.99.67,2.31,1.84-.83-.54-1.66-1.08-2.31-1.84Z"/>
  <path class="cls-2" d="m412.57,453.98c1.17.11,2.03.6,2.3,1.84-.82-.54-1.66-1.07-2.3-1.84Z"/>
  <path class="cls-2" d="m408.99,451.18c.95.49,2.32.47,2.48,1.96-.93-.52-1.77-1.15-2.48-1.96Z"/>
  <path class="cls-2" d="m442.44,477.15c1.17.11,2.04.61,2.31,1.84-.83-.55-1.66-1.08-2.31-1.84Z"/>
  <path class="cls-1" d="m261.32,570.58c-.69.06-1.37.12-2.02-.2.75-.7,1.45-.92,2.02.2Z"/>
  <path class="cls-1" d="m258.25,570.3c-.6.06-1.18.07-1.74-.21.64-.45,1.32-1.26,1.74.21Z"/>
  <path class="cls-1" d="m246.8,568.93c-.57,0-1.16.11-1.69-.22.71-1.05,1.23-.61,1.69.22Z"/>
  <path class="cls-1" d="m264.67,570.86c-.6.05-1.21.12-1.77-.19.65-.53,1.31-1.07,1.77.19Z"/>
  <path class="cls-1" d="m244.85,568.67c-.58.02-1.16.07-1.68-.27.74-1.02,1.23-.56,1.68.27Z"/>
  <path class="cls-2" d="m400.32,444.49c.83.32,1.9.33,2,1.58-.71-.48-1.44-.92-2-1.58Z"/>
  <path class="cls-1" d="m255.46,570.02c-.59.07-1.17.07-1.71-.22.62-.34,1.3-1.07,1.71.22Z"/>
  <path class="cls-2" d="m435.22,471.56c.83.33,1.91.34,2,1.59-.71-.48-1.45-.91-2-1.59Z"/>
  <path class="cls-1" d="m209.35,561.25c-.45-.14-.9-.29-1.35-.43.78-.88,1.22-.7,1.35.43Z"/>
  <path class="cls-2" d="m470.12,498.64c.82.33,1.91.34,2,1.59-.7-.48-1.45-.92-2-1.59Z"/>
  <path class="cls-1" d="m207.4,560.69c-.45-.14-.9-.29-1.36-.43.77-.88,1.22-.7,1.36.43Z"/>
  <path class="cls-2" d="m472.63,500.59c.82.33,1.9.34,2,1.58-.71-.48-1.44-.92-2-1.58Z"/>
  <path class="cls-1" d="m117.17,346.97c.68-.55,1.36-1.1,2.04-1.65-.19,1.15-1.05,1.48-2.04,1.65Z"/>
  <path class="cls-2" d="m386.64,433.87c1.02.09,1.63.68,2,1.59-.7-.48-1.44-.92-2-1.59Z"/>
  <path class="cls-2" d="m456.44,488.03c1.01.09,1.63.68,1.99,1.59-.71-.48-1.44-.92-1.99-1.59Z"/>
  <path class="cls-1" d="m250.71,569.46c-.49.05-.98.11-1.42-.18.58-.81,1.06-.8,1.42.18Z"/>
  <path class="cls-2" d="m421.54,460.95c.9.23,1.68.61,1.99,1.58-.71-.48-1.44-.92-1.99-1.58Z"/>
  <path class="cls-2" d="m458.63,489.71c.81-.06,1.35.23,1.42,1.11-.6-.21-1.03-.63-1.42-1.11Z"/>
  <path class="cls-2" d="m383.78,431.64c.86-.11,1.26.37,1.44,1.12-.61-.21-1.04-.65-1.44-1.12Z"/>
  <path class="cls-2" d="m407.54,450.07c.86-.13,1.21.41,1.45,1.1-.63-.18-1.05-.62-1.45-1.1Z"/>
  <path class="cls-2" d="m447.47,481.06c.85-.12,1.22.38,1.41,1.1-.58-.22-1.03-.62-1.41-1.1Z"/>
  <path class="cls-2" d="m416.04,456.72c.75-.04,1.34.13,1.35,1.05-.45-.35-.9-.7-1.35-1.05Z"/>
  <path class="cls-2" d="m393.86,439.47c.86-.13,1.22.38,1.42,1.1-.59-.22-1.03-.63-1.42-1.1Z"/>
  <path class="cls-4" d="m17.37,383.3c.74-.01,1.02.48,1.26,1.08,1,2.53,2.06,5.04,3.05,7.58.59,1.52,1.06,3.08,1.64,4.6.3.79,1.39,1.41.38,2.4-2.41-5.1-4.44-10.35-6.33-15.66Z"/>
  <path class="cls-4" d="m13.26,371.33c.21.09.46.13.63.27,1.24,1.01,2.5,5.76,1.97,7.34-1.06-2.47-1.81-5.05-2.6-7.61Z"/>
  <path class="cls-4" d="m4.75,336.96c.92.35,1.3,1.39,1.21,1.99-.23,1.59.66,2.83.88,4.24.11.72.77,1.64-.42,2.14-.76-2.75-1.31-5.54-1.67-8.38Z"/>
  <path class="cls-4" d="m10.12,360.68c.83.11,1.28.35,1.2,1.43-.06.88.28,1.9.75,2.67.51.84.44,1.44-.09,2.13-.82-2.01-1.28-4.13-1.85-6.22Z"/>
  <path class="cls-4" d="m26.45,405.1c1.62.3,2.32,1.74,1.74,3.62-.71-1.14-1.27-2.36-1.74-3.62Z"/>
  <path class="cls-4" d="m7.04,348.41c1.62,1.25,1.81,1.99,1.05,4.2-.53-1.35-.75-2.78-1.05-4.2Z"/>
  <path class="cls-4" d="m8.97,356.22c1.55,1.32,1.71,1.93,1.07,3.94-.52-1.27-.84-2.59-1.07-3.94Z"/>
  <path class="cls-4" d="m16.26,380.23c1.62.48,1.98,1.46.94,2.56-.31-.85-.63-1.71-.94-2.56Z"/>
  <path class="cls-4" d="m3.65,330.53c1.09.71,1.37,2.39.52,3.08-.33-1-.53-2.02-.52-3.08Z"/>
  <path class="cls-4" d="m12.06,367.38c1.5.45,1.75,1.22.73,2.25-.4-.7-.55-1.48-.73-2.25Z"/>
  <path class="cls-4" d="m24.9,401.72c1.53.23,1.84.89,1.05,2.24-.48-.69-.8-1.45-1.05-2.24Z"/>
  <path class="cls-4" d="m.32,297.6c1.02.48,1.46,1.09.5,2.06-.31.31-.26.76-.28,1.16-.33-1.06-.27-2.14-.22-3.22Z"/>
  <path class="cls-4" d="m23.71,398.95c1.52.49,1.67.83,1.12,2.53-.5-.79-.9-1.62-1.12-2.53Z"/>
  <path class="cls-4" d="m.6,302.9c.96.35,1.41.85.51,1.74-.24.24-.27.56-.3.88-.29-.86-.28-1.74-.21-2.62Z"/>
  <path class="cls-4" d="m.87,306.81c1.95.62.46,1.54.21,2.36-.31-.76-.26-1.56-.21-2.36Z"/>
  <path class="cls-4" d="m6.48,345.89c1.56.94,1.64,1.24.5,1.95-.37-.6-.34-1.3-.5-1.95Z"/>
  <path class="cls-4" d="m1.15,310.16c1.74.61.48,1.51.22,2.31-.33-.74-.27-1.53-.22-2.31Z"/>
  <path class="cls-4" d="m2.24,320.48c1.38.5,1.03,1.22.26,1.99-.34-.63-.27-1.31-.26-1.99Z"/>
  <path class="cls-4" d="m1.97,318.25c1.38.51.99,1.24.24,2-.34-.64-.26-1.32-.24-2Z"/>
  <path class="cls-4" d="m2.78,324.67c1.2.66,1.24.95.23,1.69-.33-.53-.23-1.12-.23-1.69Z"/>
  <path class="cls-4" d="m3.07,326.63c1.2.66,1.24.94.24,1.69-.34-.53-.23-1.12-.24-1.69Z"/>
  <path class="cls-4" d="m1.69,315.74c1.23.54,1.07,1.24.23,2.02-.33-.64-.25-1.34-.23-2.02Z"/>
  <path class="cls-4" d="m2.52,322.72c.79.47,1.63.94.22,1.69-.33-.53-.22-1.12-.22-1.69Z"/>
  <path class="cls-4" d="m1.43,313.23c1.5.53.37,1.34.22,2.04-.3-.66-.27-1.35-.22-2.04Z"/>
  <path class="cls-2" d="m496.7,479.88c-.07-.84.21-1.39.89-2.01,1.03-.93,1.8-2.16,2.65-3.28,2.49-3.25,5.07-6.45,7.43-9.8,2.53-3.6,5.17-7.12,7.45-10.9,1.87-3.1,3.81-6.15,5.73-9.21.47-.74.52-1.87,1.74-1.93-5.44,9.69-11.61,18.89-18.33,27.73-2.43,3.2-4.9,6.38-7.57,9.4Z"/>
  <path class="cls-2" d="m535.21,417.64c-.62-1.36.46-2.4.89-3.42,1.87-4.47,3.65-8.96,5.27-13.52.28-.78.58-1.58,1.36-2.04-1.14,3.94-2.76,7.72-4.27,11.52-1,2.52-1.95,5.07-3.25,7.46Z"/>
  <path class="cls-2" d="m476.58,501.06c-.05-1.67,1.23-2.48,2.35-3.21,2.51-1.64,4.29-3.93,6.04-6.26.61-.81,1.36-1.39,2.44-1.37-1.86,2.3-4.01,4.32-6.11,6.4-1.54,1.52-2.99,3.13-4.73,4.44Z"/>
  <path class="cls-2" d="m547.86,382.77c-.72-1.44.33-2.64.65-3.89.81-3.21,1.64-6.41,2.33-9.64.12-.56.19-1.1.84-1.29-.43,3.37-1.55,6.58-2.34,9.86-.41,1.68-.98,3.31-1.48,4.97Z"/>
  <path class="cls-2" d="m560.1,301.34c.26-3.2-.74-6.35-.55-9.52.16-2.66.64-5.31.53-8,.36,1.09.22,2.21.22,3.32.02,4.69,0,9.39-.01,14.08-.06.04-.13.08-.2.12Z"/>
  <path class="cls-2" d="m542.74,398.62c-.13-.73-.19-1.46.06-2.18.62-1.83,1.21-3.68,1.87-5.49.21-.58.38-1.27,1.1-1.51-.73,3.15-1.83,6.19-3.04,9.18Z"/>
  <path class="cls-2" d="m527.98,432.77c-.04-2.03,1.65-5.5,3.03-6.2-.73,2.21-1.87,4.21-3.03,6.2Z"/>
  <path class="cls-2" d="m522.7,442.5c-.06-.07-.15-.14-.16-.22-.19-1.07,1.5-3.68,2.57-3.99-.73,1.44-1.46,2.89-2.4,4.21Z"/>
  <path class="cls-2" d="m525.18,438.06c-.09-1.53.22-2.83,1.87-3.39-.57,1.16-1.1,2.34-1.87,3.39Z"/>
  <path class="cls-2" d="m532.16,424.35c-.5-1.4-.03-2.38,1.33-2.8-.36.97-.75,1.93-1.33,2.8Z"/>
  <path class="cls-2" d="m559.8,309.17c-.02-.9-.04-1.77-.45-2.63-.27-.56-.31-1.3.67-1.41.01,1.35.21,2.71-.21,4.04Z"/>
  <path class="cls-2" d="m488.86,488.71c-.08-1.35.42-2.18,1.9-2.12-.5.83-1.2,1.48-1.9,2.12Z"/>
  <path class="cls-2" d="m559.52,314.37c-.02-.59-.06-1.16-.37-1.71-.41-.73-.19-1.31.58-1.66.03,1.13.18,2.27-.21,3.38Z"/>
  <path class="cls-2" d="m546.14,388.43c-.16-1.22-.35-2.45,1.03-3.17-.27,1.08-.5,2.17-1.03,3.17Z"/>
  <path class="cls-2" d="m493.6,483.43c-.3-1.38.44-1.84,1.67-1.85-.56.62-1.11,1.23-1.67,1.85Z"/>
  <path class="cls-2" d="m533.83,420.74c-.44-1.13-.39-2.02,1.06-2.26-.28.79-.56,1.57-1.06,2.26Z"/>
  <path class="cls-2" d="m554.23,356.28c-.21-1.02-.61-2.07.5-2.85.09,1-.18,1.93-.5,2.85Z"/>
  <path class="cls-2" d="m491.7,485.6c-.33-1.35.4-1.76,1.57-1.8-.39.72-1.01,1.24-1.57,1.8Z"/>
  <path class="cls-2" d="m559.25,318.35c-.02-.45-.1-.88-.35-1.28-.39-.65-.19-1.11.55-1.33.03.88.19,1.76-.2,2.61Z"/>
  <path class="cls-2" d="m558.97,321.94c-.01-.47-.24-.87-.43-1.28-.32-.68.11-1.01.64-1.28.02.86.18,1.74-.21,2.56Z"/>
  <path class="cls-2" d="m558.7,325.05c-.12-.79-1.26-1.67.21-2.32,0,.78.19,1.58-.21,2.32Z"/>
  <path class="cls-2" d="m552.55,364.33c.04-.87-.77-1.91.52-2.52.09.9-.18,1.72-.52,2.52Z"/>
  <path class="cls-2" d="m547.29,384.73c-.53-.84-.57-1.54.54-1.9-.06.67-.23,1.31-.54,1.9Z"/>
  <path class="cls-2" d="m557.84,333.06c-.03-.67-1.27-1.47.23-1.96.02.67.16,1.35-.23,1.96Z"/>
  <path class="cls-2" d="m558.13,330.56c-.02-.67-1.29-1.48.22-1.98.03.67.16,1.36-.22,1.98Z"/>
  <path class="cls-2" d="m558.41,327.88c.1-.69-1.36-1.55.21-2.09.01.7.18,1.43-.21,2.09Z"/>
  <path class="cls-2" d="m551.98,366.85c.28-.81-.9-1.95.56-2.5,0,.87-.19,1.71-.56,2.5Z"/>
  <path class="cls-2" d="m495.3,481.52c-.1-1.02.14-1.75,1.38-1.62-.46.54-.92,1.08-1.38,1.62Z"/>
  <path class="cls-2" d="m557.02,339.52c-.13-.6-1.18-1.32.23-1.73,0,.59.15,1.19-.23,1.73Z"/>
  <path class="cls-2" d="m557.57,335.31c-.23-.7-.9-1.44.24-1.98,0,.67.16,1.36-.24,1.98Z"/>
  <path class="cls-2" d="m556.74,341.46c-.22-.61-.95-1.3.24-1.72-.02.58.15,1.19-.24,1.72Z"/>
  <path class="cls-2" d="m556.45,343.4c-.23-.61-.93-1.29.24-1.7,0,.58.14,1.18-.24,1.7Z"/>
  <path class="cls-2" d="m557.31,337.35c-.22-.54-1.04-1.16.2-1.51.02.51.16,1.04-.2,1.51Z"/>
  <path class="cls-2" d="m556.19,345.12c-.33-.55-.78-1.11.22-1.46,0,.5.14,1.02-.22,1.46Z"/>
  <path class="cls-2" d="m555.91,346.84c-.28-.56-.83-1.16.23-1.51-.02.51.14,1.05-.23,1.51Z"/>
  <path class="cls-2" d="m555.07,351.8c-.35-.55-.76-1.12.24-1.45-.03.49.14,1.02-.24,1.45Z"/>
</svg>