<?xml version="1.0" encoding="UTF-8"?>
<svg id="Capa_1" data-name="Capa 1" xmlns="http://www.w3.org/2000/svg" viewBox="0 0 402.98 404.03">
  <path d="m402.85,201.95c-.17,0-.33,0-.5,0,0-7.11.53-14.27-.13-21.32-.81-8.61-2.09-17.24-4.09-25.65-4.6-19.38-11.96-37.75-22.05-54.95-7.82-13.33-16.99-25.74-27.74-36.83-6.95-7.17-14.38-13.97-22.2-20.18-14.55-11.56-30.55-20.79-47.8-27.88C257.83,6.7,236.52,1.71,214.46.46c-13.58-.77-27.28-.73-40.78,1.47-8.52,1.39-16.97,3.31-25.34,5.44-20.18,5.13-38.97,13.58-56.24,25.17-7.67,5.15-15.22,10.64-22.12,16.76-8.09,7.18-15.87,14.82-22.93,22.99-6.19,7.15-11.43,15.17-16.69,23.07-7.68,11.53-13.52,24.04-18.23,37.06-4.05,11.17-7.5,22.53-9.11,34.35-1.03,7.62-2.51,15.22-2.85,22.88-.4,9.27,0,18.6.44,27.88.28,5.86,1.18,11.69,1.94,17.52,1.41,10.74,4.21,21.18,7.63,31.42,4.83,14.47,11.36,28.19,19.19,41.28.39.64.56,1.65.37,2.36-1.43,5.33-3,10.61-4.47,15.93-5.84,21.19-11.68,42.38-17.45,63.6-.77,2.83-.42,5.6,1.85,7.87,2.23,2.23,4.7,3.2,7.85,2.25,9.22-2.79,18.48-5.46,27.69-8.3,16.53-5.1,33.05-10.23,49.52-15.49,2.39-.76,4.13.02,6.07,1,7.9,3.98,15.62,8.37,23.76,11.78,20.57,8.6,42.1,13.64,64.34,14.83,13.58.73,27.28.72,40.78-1.48,8.52-1.39,16.97-3.32,25.34-5.44,20.18-5.13,38.97-13.58,56.24-25.18,7.67-5.15,15.22-10.64,22.12-16.76,8.09-7.18,15.91-14.79,22.93-23,6.52-7.63,12.12-16.1,17.63-24.53,7.26-11.1,13.02-23.05,17.24-35.62,3.25-9.66,6.21-19.49,8.32-29.45,1.83-8.63,2.46-17.53,3.26-26.34.42-4.58.07-9.24.07-13.86Zm-88.08,76.67c-6.94,15.24-19.18,24.07-35.29,27.73-8.15,1.85-16.48,2.55-24.8,2-13.71-.91-27.23-2.98-40.31-7.45-16.97-5.79-32.39-14.38-46.66-25.19-9.68-7.33-18.64-15.48-26.76-24.45-6.83-7.54-13.14-15.59-19.26-23.73-9.73-12.93-17.71-26.95-24.53-41.61-3.8-8.16-7.17-16.51-8.34-25.53-1.59-12.36.62-24.22,4.92-35.81,4.17-11.22,10.63-21.07,17.99-30.37.6-.76,1.77-1.4,2.73-1.49,3.73-.34,7.49-.52,11.24-.53.73,0,1.73.86,2.16,1.59,8.24,14.26,16.44,28.54,22.43,43.94,1.49,3.83.28,7.5-2.09,10.51-4.3,5.48-8.77,10.85-13.48,15.99-2.83,3.09-3.57,6.44-2.99,10.33,1.93,12.92,8.69,23.44,16.91,33.08,5.37,6.29,10.91,12.53,17.08,17.99,8.48,7.51,17.52,14.4,26.53,21.28,9.49,7.25,19.76,13.27,30.55,18.4,4.81,2.28,9.9,4.22,15.02,1.97,4.1-1.8,7.98-4.43,11.43-7.32,8.9-7.46,15.77-16.75,22.35-26.24,1.64-2.36,2.28-2.5,5.04-.74,6.47,4.13,12.9,8.34,19.39,12.44,8.1,5.11,16.25,10.14,25.04,15.63-2.07,5.86-3.74,11.93-6.31,17.58Z"/>
</svg>