<svg width="190" height="74" viewBox="0 0 190 74" fill="none" xmlns="http://www.w3.org/2000/svg">
<g clip-path="url(#clip0_42_2)">
<path d="M45.4371 47.9725C42.5504 48.4329 41.8078 47.4795 41.7828 45.9312C41.7286 42.4109 41.6285 38.8824 41.8037 35.3702C41.9413 32.6159 43.4723 32.5018 45.2953 34.1846C47.694 36.4051 49.9508 38.7724 52.3453 40.997C54.5312 43.0302 54.0015 44.4033 51.5027 45.6337C49.2124 46.7624 46.9598 47.9317 45.4371 47.9725Z" fill="#F9C756"/>
<path d="M23.215 22.768C14.8426 22.768 14.2168 21.562 17.8962 13.9672C19.6066 10.4347 21.2084 10.288 23.7406 13.0667C25.5427 15.0429 27.5702 16.8275 29.4724 18.718C30.3026 19.541 31.5248 20.3559 30.945 21.676C30.3776 22.9717 28.9384 22.7517 27.7454 22.7639C26.2352 22.7802 24.7251 22.768 23.215 22.768Z" fill="#FAC856"/>
<path d="M36.9438 40.8055C36.9438 49.1744 35.9134 49.696 28.271 45.8252C24.9963 44.1669 24.2704 42.6512 27.299 40.1047C29.2346 38.4749 30.9366 36.5844 32.7638 34.8283C33.6106 34.0175 34.4491 32.8522 35.7924 33.3208C37.2024 33.8138 36.9271 35.2317 36.9396 36.3888C36.9563 37.8597 36.9438 39.3347 36.9438 40.8055Z" fill="#FCCA56"/>
<path d="M16.1024 30.8557C15.6477 28.3214 16.4779 27.4617 18.1423 27.4373C21.7674 27.3843 25.4009 27.311 29.0219 27.4454C31.4831 27.5391 31.967 28.7819 30.2442 30.542C27.8413 32.9907 25.33 35.3417 22.898 37.766C21.3711 39.2858 20.0988 39.3061 18.9683 37.3504C17.6292 35.0361 16.4778 32.6526 16.1024 30.8557Z" fill="#FBC956"/>
<path d="M56.4168 44.7863C51.6612 49.2029 45.2327 51.9206 38.1535 51.9206C23.5112 51.9206 11.643 40.3288 11.643 26.0275C11.643 19.1091 14.4254 12.8345 18.9474 8.18963L10.5625 0C4.02143 6.69431 0 15.7518 0 25.7342C0 46.3305 17.0952 63.0275 38.1827 63.0275C48.4032 63.0275 57.6766 59.0998 64.5306 52.711L56.4168 44.7863Z" fill="#FFCC57"/>
<path d="M70.5919 41.2293H78.1092V53.4485C78.1092 54.6627 78.6306 55.2698 79.6735 55.2698C80.6789 55.2698 81.1836 54.6627 81.1836 53.4485V47.1331C81.1836 45.2019 80.2701 42.9365 78.4512 40.337C74.9304 35.5088 72.7361 32.2655 71.8768 30.6072C71.0174 28.9489 70.5878 27.1276 70.5878 25.1475V19.1662C70.5878 12.2559 73.7832 8.80487 80.1699 8.80487C85.8934 8.80487 88.7509 11.9503 88.7509 18.2372V27.4495H81.2337V17.6423C81.2337 16.5789 80.8124 16.0452 79.9739 16.0452C78.9894 16.0452 78.5013 17.0719 78.5013 19.1295L78.6598 22.5846C78.6598 24.5648 79.5901 26.8669 81.4548 29.4949C84.9172 34.1764 87.1157 37.4441 88.0543 39.3021C88.9929 41.16 89.4643 43.2624 89.4643 45.6175V52.4136C89.4643 59.495 86.2605 63.0357 79.8571 63.0357C73.6789 63.0357 70.5919 59.8169 70.5919 53.3793V41.2293Z" fill="#F6F6F6"/>
<path d="M108.503 16.2326H103.877V62.5467H95.5965V16.2326H90.9702V9.28564H108.503V16.2326Z" fill="#F6F6F6"/>
<path d="M132.453 62.5467H124.247L122.85 48.2455H119.174L117.76 62.5467H109.555L115.75 9.28565H126.25L132.453 62.5467ZM126.17 0L123.042 6.86951H118.916L120.518 0H126.17ZM122.182 40.8544L120.989 24.956L119.863 40.8544H122.182Z" fill="#F6F6F6"/>
<path d="M166.601 9.28564L161.762 62.5467H151.955L148.985 33.1659L146.181 62.5467H137.73L133.058 9.28564H140.5L142.581 33.8749L145.439 9.28564H154.771L157.028 33.8749L159.818 9.28564H166.601Z" fill="#F6F6F6"/>
<path d="M190 62.5467H181.794L180.397 48.2455H176.722L175.308 62.5467H167.102L173.297 9.28565H183.797L190 62.5467ZM183.718 0L180.589 6.86951H176.463L178.065 0H183.718ZM179.729 40.8544L178.536 24.956L177.41 40.8544H179.729Z" fill="#F6F6F6"/>
<path d="M1.15971 71.9669C1.15971 71.8773 1.17639 71.7835 1.21394 71.6858C1.33491 71.3435 1.48092 71.0053 1.64361 70.6753C1.80631 70.3453 1.95648 70.0152 2.08997 69.6893C2.22347 69.3633 2.3361 69.0863 2.4237 68.8622C2.51131 68.6381 2.59057 68.4466 2.66148 68.2836C2.72823 68.1247 2.79498 67.9862 2.85338 67.868C2.91178 67.7499 2.97436 67.6358 3.0411 67.5217C3.08282 67.4524 3.13288 67.3831 3.18294 67.3098C3.23717 67.2365 3.2914 67.1672 3.35397 67.1061C3.41655 67.045 3.47912 66.992 3.54587 66.9553C3.61261 66.9146 3.68353 66.8983 3.75445 66.8983C3.90045 66.8983 4.01726 66.9146 4.09235 66.9513C4.17161 66.9839 4.21749 67.0165 4.23418 67.045L4.28424 67.1998C4.33847 67.1957 4.40939 67.1917 4.49699 67.1794C4.5846 67.1672 4.6722 67.155 4.7598 67.1428C4.84741 67.1305 4.93084 67.1183 5.00593 67.1061C5.08102 67.0939 5.13942 67.0816 5.18114 67.0735C5.41892 67.0287 5.64001 66.9879 5.84442 66.9553C6.04466 66.9227 6.24072 66.8942 6.4201 66.8738C6.60365 66.8535 6.77886 66.8372 6.94155 66.8249C7.10842 66.8168 7.27528 66.8087 7.44632 66.8087C7.61318 66.8087 7.74667 66.8168 7.85513 66.829C7.95942 66.8413 8.04286 66.8575 8.10543 66.882C8.16801 66.9064 8.20972 66.9309 8.23475 66.9594C8.25978 66.9879 8.26812 67.0205 8.26812 67.0531C8.26812 67.0816 8.25561 67.1142 8.23475 67.1509C8.20972 67.1835 8.17218 67.2161 8.11795 67.2487C8.06371 67.2772 7.9928 67.3057 7.90519 67.3302C7.81759 67.3546 7.70913 67.3669 7.57981 67.375C7.54644 67.3791 7.47135 67.3913 7.35454 67.4035C7.23774 67.4157 7.10842 67.432 6.97075 67.4483C6.83309 67.4646 6.70377 67.4809 6.57862 67.4972C6.45765 67.5135 6.37004 67.5258 6.32416 67.5298H6.32833C6.30747 67.5339 6.25324 67.5421 6.17398 67.5584C6.09055 67.5746 5.9946 67.595 5.87779 67.6154C5.76099 67.6358 5.63584 67.6602 5.50235 67.6887C5.36469 67.7173 5.23119 67.7417 5.10187 67.7702C4.96838 67.7947 4.84741 67.8232 4.73477 67.8476C4.62214 67.8721 4.53036 67.8925 4.46362 67.9047C4.24252 67.9658 4.07149 68.0473 3.94634 68.1451C3.82119 68.2469 3.72107 68.3569 3.65016 68.4792C3.63764 68.5036 3.61261 68.5403 3.58341 68.5933C3.55421 68.6462 3.52084 68.7114 3.48746 68.7807C3.45409 68.8499 3.41655 68.9233 3.37483 69.0007C3.33311 69.0781 3.29557 69.1555 3.2622 69.2248C3.22465 69.2941 3.19545 69.3593 3.16625 69.4204C3.14122 69.4774 3.12036 69.5222 3.10785 69.5508C3.09533 69.5752 3.09116 69.5996 3.08699 69.62C3.08282 69.6404 3.08282 69.6567 3.08282 69.6648C3.08282 69.6811 3.08699 69.6893 3.0995 69.6893C3.15373 69.6893 3.26637 69.673 3.4374 69.6363C3.60844 69.6037 3.80868 69.5589 4.03812 69.51C4.26755 69.4611 4.51368 69.4041 4.77649 69.347C5.0393 69.29 5.2896 69.2329 5.53155 69.1841C5.7735 69.1352 5.98626 69.0903 6.17398 69.0577C6.3617 69.0252 6.49936 69.0048 6.5828 69.0048C6.70794 69.0048 6.79555 69.0211 6.83726 69.0496C6.87898 69.0781 6.90401 69.1107 6.90401 69.1474C6.90401 69.237 6.85812 69.3185 6.76635 69.3878C6.67457 69.457 6.55777 69.5141 6.4201 69.5671C6.37839 69.5834 6.29495 69.6037 6.17815 69.6322C6.06134 69.6608 5.9362 69.6893 5.79853 69.7219C5.66087 69.7504 5.53155 69.783 5.41057 69.8074C5.2896 69.8319 5.19782 69.8563 5.14359 69.8686C4.789 69.9663 4.50116 70.0438 4.28007 70.1049C4.05897 70.166 3.87959 70.219 3.74193 70.2556C3.60427 70.2964 3.49998 70.3249 3.42489 70.3453C3.3498 70.3656 3.28305 70.3819 3.22048 70.3982C3.15791 70.4105 3.08699 70.4268 3.0119 70.439C2.93681 70.4512 2.83252 70.4675 2.69903 70.4919C2.66566 70.5449 2.62811 70.6264 2.5864 70.7323C2.54468 70.8383 2.50296 70.9524 2.46125 71.0664C2.41953 71.1805 2.38616 71.2865 2.36113 71.3883C2.3361 71.4861 2.31941 71.5554 2.31941 71.5921C2.31941 71.6369 2.32776 71.6695 2.34444 71.6939C2.36113 71.7143 2.38616 71.7306 2.41119 71.7387C2.43622 71.7469 2.46125 71.751 2.48628 71.751C2.51131 71.751 2.53216 71.751 2.54468 71.751C2.71989 71.751 2.92847 71.7347 3.17042 71.698C3.41237 71.6613 3.65433 71.6165 3.89628 71.5595C4.12572 71.5024 4.32178 71.4413 4.49282 71.3761C4.66386 71.3109 4.82238 71.2498 4.97255 71.1928C5.12273 71.1357 5.26874 71.0868 5.41057 71.0501C5.55241 71.0094 5.71093 70.989 5.87779 70.989C5.91534 70.989 5.95705 70.9931 6.00711 70.9972C6.05717 71.0013 6.10306 71.0135 6.14478 71.0257C6.18649 71.0379 6.22404 71.0583 6.24907 71.0787C6.2741 71.1031 6.28661 71.1316 6.27827 71.1642C6.26575 71.2376 6.21152 71.3109 6.11975 71.3802C6.02797 71.4494 5.91534 71.5187 5.77768 71.5839C5.64001 71.6491 5.48566 71.7143 5.3188 71.7754C5.14776 71.8365 4.97673 71.8936 4.79735 71.9465C4.62214 71.9995 4.44693 72.0484 4.2759 72.0932C4.10486 72.138 3.95468 72.1747 3.82119 72.2073C3.48746 72.2888 3.16625 72.3458 2.84921 72.3866C2.53216 72.4273 2.25267 72.4436 2.00237 72.4436C1.72704 72.4436 1.51846 72.4069 1.37246 72.3336C1.2348 72.2521 1.15971 72.134 1.15971 71.9669Z" fill="#F6F6F6"/>
<path d="M7.88433 71.5757C7.91354 71.5757 7.93857 71.5798 7.96359 71.5838C7.98862 71.5879 8.01365 71.5961 8.04286 71.6001C8.07206 71.6042 8.10543 71.6124 8.1388 71.6164C8.17635 71.6205 8.22223 71.6246 8.28064 71.6246C8.45167 71.6246 8.63939 71.6124 8.84798 71.5879C9.05656 71.5635 9.25262 71.5309 9.43617 71.4901C9.61972 71.4494 9.77824 71.4046 9.91174 71.3516C10.0452 71.2986 10.1203 71.2457 10.137 71.1886C10.1495 71.1601 10.1537 71.1316 10.1537 71.1071C10.1537 71.0623 10.1245 71.0216 10.0661 70.9849C10.0077 70.9442 9.93259 70.9075 9.84082 70.8749C9.74904 70.8423 9.6531 70.8056 9.54881 70.7771C9.44451 70.7486 9.3444 70.7201 9.25679 70.6915L9.07324 70.6386C8.9773 70.6141 8.88552 70.5815 8.79792 70.5449C8.70614 70.5082 8.62271 70.4675 8.54762 70.4186C8.47253 70.3697 8.40161 70.3126 8.34321 70.2515C8.28481 70.1863 8.23892 70.113 8.20972 70.0274C8.1972 69.9907 8.18469 69.9581 8.17635 69.9215C8.168 69.8848 8.16383 69.8481 8.16383 69.8074C8.16383 69.7422 8.1972 69.6648 8.25978 69.5833C8.32235 69.4977 8.40996 69.4122 8.51425 69.3307C8.62271 69.2451 8.74369 69.1677 8.87718 69.0903C9.01484 69.0129 9.15667 68.9518 9.30268 68.8988C9.41114 68.8458 9.51543 68.7969 9.61555 68.7562C9.71567 68.7114 9.81996 68.6747 9.92008 68.6462C10.0202 68.6177 10.1287 68.5932 10.2329 68.5728C10.3414 68.5565 10.454 68.5443 10.5708 68.5443C10.6793 68.5443 10.7961 68.5484 10.9213 68.5565C11.0464 68.5647 11.1632 68.581 11.2675 68.6095C11.3718 68.638 11.4594 68.6788 11.5303 68.7317C11.6012 68.7847 11.6346 68.858 11.6346 68.9518C11.6346 68.9803 11.6304 69.0169 11.6179 69.0618C11.6054 69.1066 11.5887 69.1514 11.5637 69.2003C11.5387 69.2492 11.5095 69.2859 11.4719 69.3185C11.4344 69.3511 11.3927 69.3674 11.3426 69.3674C11.2592 69.3674 11.1924 69.3551 11.1382 69.3348C11.084 69.3103 11.0339 69.2859 10.9922 69.2614C10.9505 69.237 10.9046 69.2084 10.8587 69.1881C10.8128 69.1636 10.7544 69.1555 10.6835 69.1555C10.6001 69.1555 10.5041 69.1677 10.3915 69.1881C10.283 69.2084 10.1662 69.237 10.0536 69.2736C9.93677 69.3103 9.82413 69.3511 9.71567 69.3999C9.60721 69.4488 9.50709 69.4977 9.41531 69.5466C9.32771 69.5955 9.25679 69.6485 9.20256 69.6974C9.14833 69.7463 9.11913 69.7911 9.11913 69.8318C9.11913 69.8767 9.13999 69.9092 9.17753 69.9378C9.21508 69.9663 9.26931 69.9907 9.32771 70.0111C9.40697 70.0396 9.49875 70.0722 9.60304 70.1008C9.70733 70.1293 9.81162 70.1619 9.91591 70.1904C10.0202 70.2189 10.1245 70.2515 10.2204 70.28C10.3164 70.3085 10.404 70.3371 10.4791 70.3656C10.575 70.4023 10.6626 70.4349 10.7419 70.4715C10.8211 70.5041 10.8837 70.5449 10.938 70.5815C10.9922 70.6223 11.0339 70.6671 11.0631 70.7201C11.0923 70.769 11.1048 70.8301 11.1048 70.8993C11.1048 70.9319 11.1006 70.9645 11.0923 70.9971C11.084 71.0297 11.0756 71.0664 11.0589 71.1112C11.0464 71.1479 11.0297 71.1927 11.0005 71.2457C10.9713 71.2946 10.9463 71.3475 10.9129 71.3964C10.8837 71.4453 10.8503 71.4901 10.817 71.5309C10.7836 71.5716 10.7586 71.5961 10.7335 71.6083C10.5917 71.6979 10.4248 71.7835 10.2329 71.865C10.0411 71.9465 9.84082 72.0157 9.63224 72.0728C9.42366 72.1339 9.21508 72.1787 9.01067 72.2154C8.80209 72.2521 8.61019 72.2684 8.43916 72.2684C8.35155 72.2684 8.25561 72.2561 8.15132 72.2317C8.04703 72.2072 7.95108 72.1746 7.8593 72.138C7.76753 72.1013 7.69661 72.0524 7.63821 72.0035C7.57981 71.9546 7.55061 71.9017 7.55061 71.8528C7.55061 71.8283 7.56312 71.7998 7.58398 71.7672C7.60484 71.7346 7.63404 71.7061 7.66741 71.6816C7.70078 71.6531 7.73416 71.6327 7.7717 71.6124C7.80924 71.592 7.85096 71.5757 7.88433 71.5757Z" fill="#F6F6F6"/>
<path d="M13.1239 71.0664C13.1239 70.8545 13.1572 70.6345 13.2282 70.4023C13.2949 70.1741 13.37 69.9541 13.4451 69.7422C13.3491 69.7381 13.2532 69.73 13.1572 69.7137C13.0613 69.6974 12.9695 69.6729 12.8903 69.6404C12.811 69.6118 12.7443 69.5711 12.6942 69.5303C12.6441 69.4855 12.6191 69.4366 12.6191 69.3755C12.6191 69.3511 12.6275 69.3225 12.64 69.2899C12.6525 69.2533 12.6733 69.2207 12.7025 69.184C12.7317 69.1473 12.7651 69.1188 12.8068 69.0985C12.8485 69.0781 12.8986 69.0618 12.9528 69.0618H13.6787C13.7454 69.0618 13.7955 69.0414 13.8205 69.0007C13.8456 68.9599 13.8664 68.9192 13.8789 68.8784C13.9248 68.7318 13.9707 68.6054 14.0124 68.4954C14.0541 68.3895 14.0875 68.2958 14.1167 68.2224C14.1459 68.1491 14.1668 68.088 14.1835 68.0391C14.2001 67.9943 14.2085 67.9535 14.2085 67.9291C14.2085 67.8965 14.2085 67.8639 14.2043 67.8354C14.2001 67.8069 14.2001 67.762 14.2001 67.7091V67.6724C14.2001 67.652 14.2043 67.6276 14.2085 67.5909C14.2127 67.5583 14.2294 67.5094 14.2586 67.4524C14.2794 67.4035 14.3211 67.3587 14.3795 67.3138C14.4379 67.269 14.5214 67.2487 14.634 67.2487C14.7299 67.2487 14.8134 67.2609 14.8843 67.2894C14.951 67.3179 15.0094 67.3546 15.0512 67.3994C15.0929 67.4442 15.1262 67.4972 15.1471 67.5542C15.168 67.6113 15.1805 67.6724 15.1805 67.7294C15.1805 67.7946 15.1721 67.8476 15.1554 67.9006L14.7591 68.964C14.9552 68.9395 15.1262 68.9192 15.2806 68.8988C15.4308 68.8784 15.5851 68.8581 15.7353 68.8377C15.9022 68.8132 16.044 68.7929 16.165 68.7725C16.286 68.7521 16.3902 68.7358 16.4778 68.7195C16.5655 68.7073 16.6364 68.6951 16.6989 68.6869C16.7573 68.6788 16.8074 68.6747 16.8491 68.6747C16.9075 68.6747 16.9659 68.6788 17.0243 68.6829C17.0827 68.691 17.137 68.6992 17.1828 68.7155C17.2287 68.7318 17.2663 68.7521 17.2955 68.7806C17.3247 68.8092 17.3372 68.8458 17.3372 68.8907C17.3372 68.9518 17.3205 69.0047 17.2871 69.0536C17.2538 69.1025 17.2079 69.1392 17.1536 69.1759C17.0994 69.2085 17.0368 69.237 16.9701 69.2574C16.8992 69.2777 16.8324 69.294 16.7657 69.3063C16.7073 69.3144 16.6322 69.3266 16.5404 69.3388C16.4486 69.3551 16.3485 69.3714 16.2359 69.3877C16.1274 69.404 16.0106 69.4244 15.8897 69.4448C15.7687 69.4652 15.656 69.4855 15.5434 69.5059C15.3765 69.5344 15.2347 69.5629 15.1179 69.5833C15.0011 69.6037 14.901 69.62 14.8175 69.6281C14.7341 69.6363 14.6674 69.6444 14.6131 69.6526C14.5589 69.6566 14.5172 69.6607 14.4838 69.6607C14.4129 69.8033 14.3545 69.9459 14.3044 70.0845C14.2544 70.223 14.2127 70.3534 14.1751 70.4756C14.1376 70.5978 14.1167 70.7038 14.1 70.7975C14.0833 70.8912 14.075 70.9645 14.075 71.0175C14.075 71.0868 14.0833 71.152 14.1 71.2131C14.1167 71.2742 14.1501 71.3272 14.1918 71.3761C14.2335 71.4209 14.2919 71.4576 14.367 71.4861C14.4421 71.5146 14.5339 71.5268 14.6465 71.5268C14.8384 71.5268 15.0261 71.4901 15.2097 71.4168C15.3932 71.3435 15.5684 71.2498 15.7395 71.1397C15.9063 71.0257 16.0649 70.9034 16.215 70.769C16.3652 70.6345 16.5029 70.5082 16.628 70.386C16.6697 70.3412 16.7281 70.3167 16.7949 70.3167C16.8157 70.3167 16.8408 70.3208 16.8741 70.3249C16.9034 70.3289 16.9367 70.3371 16.9618 70.3493C16.991 70.3615 17.016 70.3778 17.0368 70.3982C17.0577 70.4186 17.066 70.443 17.066 70.4715C17.066 70.4919 17.066 70.5082 17.0619 70.5164C17.0035 70.6753 16.9159 70.8301 16.7949 70.989C16.6739 71.1479 16.5488 71.3068 16.4236 71.4657C16.3819 71.5227 16.3235 71.5757 16.2526 71.6287C16.1817 71.6816 16.1066 71.7346 16.0231 71.7835C15.9397 71.8324 15.8521 71.8813 15.7645 71.922C15.6727 71.9669 15.5893 72.0076 15.51 72.0402C15.3724 72.1013 15.2222 72.1421 15.0595 72.1665C14.8968 72.191 14.7383 72.1991 14.5881 72.1991C14.3545 72.1991 14.1459 72.1706 13.9624 72.1095C13.7788 72.0483 13.6245 71.9709 13.5035 71.865C13.3825 71.7591 13.2824 71.6409 13.2198 71.5064C13.1572 71.3679 13.1239 71.2212 13.1239 71.0664Z" fill="#F6F6F6"/>
<path d="M18.2633 70.7934C18.3175 70.6386 18.401 70.4756 18.5136 70.3004C18.6262 70.1252 18.7764 69.95 18.96 69.7748C19.1435 69.5955 19.3646 69.4244 19.6232 69.2533C19.8819 69.0822 20.1822 68.9273 20.5201 68.7766C20.5744 68.7521 20.6578 68.7277 20.7704 68.7032C20.8831 68.6747 20.9999 68.6625 21.1167 68.6543C21.2585 68.5484 21.4462 68.4954 21.684 68.4954C21.9677 68.4954 22.2055 68.5443 22.3974 68.6462C22.5893 68.7481 22.7519 68.8825 22.8771 69.0536C22.9188 69.1107 22.9522 69.1636 22.9897 69.2166C23.0231 69.2696 23.0523 69.3266 23.0773 69.3837C23.1024 69.4448 23.119 69.5059 23.1357 69.5752C23.1482 69.6444 23.1566 69.7218 23.1566 69.8074C23.1566 70.0071 23.1107 70.2108 23.0189 70.4186C22.9272 70.6264 22.802 70.8301 22.6351 71.0257C22.4683 71.2212 22.268 71.4127 22.0303 71.592C21.7925 71.7713 21.5297 71.9343 21.2418 72.0809C21.0458 72.1787 20.8288 72.2561 20.5952 72.3091C20.3574 72.3621 20.0946 72.3906 19.8026 72.3906C19.5231 72.3906 19.2812 72.3662 19.0768 72.3132C18.8724 72.2602 18.7013 72.1869 18.5678 72.0932C18.4302 71.9954 18.33 71.8813 18.2633 71.7468C18.1965 71.6124 18.1632 71.4616 18.1632 71.2987C18.1673 71.1438 18.2007 70.9727 18.2633 70.7934ZM19.1644 70.8423C19.1435 70.8994 19.1268 70.9564 19.1185 71.0094C19.1101 71.0623 19.106 71.1112 19.106 71.1601C19.106 71.2416 19.1226 71.3231 19.1518 71.3924C19.181 71.4657 19.2311 71.5268 19.302 71.5798C19.3688 71.6328 19.4564 71.6735 19.5607 71.702C19.665 71.7305 19.7901 71.7468 19.9361 71.7468C20.2114 71.7468 20.4659 71.6979 20.7037 71.6002C20.9415 71.5024 21.15 71.3801 21.3336 71.2335C21.5171 71.0868 21.6715 70.9279 21.7966 70.7608C21.9218 70.5938 22.0094 70.4389 22.0595 70.2963C22.0928 70.2067 22.122 70.1252 22.1429 70.0478C22.1679 69.9704 22.1763 69.897 22.1763 69.8319C22.1763 69.7667 22.1596 69.7055 22.1262 69.6485C22.0928 69.5915 22.0469 69.5263 21.9927 69.457C21.9593 69.4122 21.926 69.3674 21.8968 69.3225C21.8634 69.2737 21.8342 69.2288 21.8092 69.184C21.78 69.2207 21.7508 69.2492 21.7174 69.2777C21.684 69.3022 21.6381 69.3266 21.5714 69.3511C21.5046 69.3714 21.417 69.3918 21.3044 69.4081C21.1918 69.4244 21.0458 69.4407 20.8664 69.4529C20.7454 69.4815 20.6244 69.5222 20.5034 69.5833C20.3825 69.6404 20.2615 69.7096 20.1447 69.787C20.0279 69.8644 19.9153 69.95 19.8068 70.0396C19.6983 70.1293 19.6024 70.223 19.5189 70.3208C19.4355 70.4145 19.3604 70.5082 19.2979 70.6019C19.2353 70.6834 19.1894 70.7649 19.1644 70.8423ZM23.5362 67.1346C23.4945 67.2446 23.4277 67.3342 23.3318 67.4035C23.2359 67.4728 23.119 67.5298 22.9772 67.5828L21.2752 68.1776C21.2085 68.2021 21.125 68.2143 21.0166 68.2143C20.9331 68.2143 20.8747 68.2021 20.8372 68.1736C20.7996 68.1491 20.7829 68.1124 20.7829 68.0676C20.7829 68.0147 20.7996 67.9658 20.8288 67.925C20.858 67.8802 20.8998 67.8435 20.9456 67.8069C20.9915 67.7702 21.0416 67.7417 21.0958 67.7131C21.15 67.6846 21.2001 67.6643 21.2418 67.6439L21.6548 67.4728C21.83 67.4035 21.9969 67.3302 22.1637 67.2568C22.3306 67.1835 22.485 67.1183 22.631 67.0612C22.777 67.0042 22.9063 66.9594 23.0231 66.9227C23.1399 66.886 23.2275 66.8657 23.2943 66.8657C23.3652 66.8657 23.4277 66.882 23.4778 66.9186C23.5279 66.9553 23.5529 67.0001 23.5529 67.0572C23.5529 67.0694 23.5529 67.0816 23.5529 67.0938C23.5529 67.1061 23.5445 67.1224 23.5362 67.1346Z" fill="#F6F6F6"/>
<path d="M24.0869 71.9954C24.1953 71.698 24.2996 71.425 24.3997 71.1683C24.4999 70.9116 24.6 70.6671 24.6959 70.4349C24.7919 70.2026 24.8836 69.9745 24.9754 69.7544C25.0672 69.5344 25.1506 69.3103 25.2341 69.0822C25.2674 68.9925 25.2841 68.907 25.2925 68.8255C25.2966 68.744 25.3133 68.6584 25.3425 68.5688C25.355 68.5403 25.3842 68.5117 25.4218 68.4873C25.4593 68.4629 25.501 68.4425 25.5511 68.4262C25.597 68.4099 25.647 68.3936 25.7013 68.3854C25.7555 68.3773 25.8014 68.3691 25.8515 68.3691C25.9516 68.3691 26.035 68.3773 26.1017 68.3936C26.1685 68.4099 26.2227 68.4303 26.2644 68.4588C26.3062 68.4873 26.3354 68.5199 26.352 68.5606C26.3687 68.6014 26.3771 68.6421 26.3771 68.691C26.3771 68.7766 26.3562 68.8621 26.3187 68.9518C26.277 69.0373 26.2311 69.1351 26.1727 69.237C26.3437 69.1433 26.5189 69.0536 26.6941 68.9722C26.8735 68.8907 27.057 68.8173 27.2489 68.7521C27.4367 68.6869 27.6327 68.6381 27.833 68.6014C28.0332 68.5647 28.2376 68.5443 28.4504 68.5443C28.5463 68.5443 28.6464 68.5566 28.7424 68.5769C28.8383 68.5973 28.9259 68.634 29.0052 68.6788C29.0844 68.7236 29.147 68.7847 29.2013 68.8581C29.2555 68.9314 29.2847 69.0211 29.2889 69.127C29.4432 69.0536 29.6059 68.9803 29.7728 68.9029C29.9396 68.8296 30.1065 68.7603 30.2817 68.7032C30.4569 68.6462 30.6238 68.5973 30.7948 68.5606C30.9658 68.524 31.1327 68.5036 31.2954 68.5036C31.5373 68.5036 31.7376 68.524 31.8961 68.5688C32.0546 68.6136 32.1798 68.6706 32.2716 68.7481C32.3633 68.8214 32.4301 68.911 32.4676 69.0088C32.5052 69.1066 32.526 69.2125 32.526 69.3226C32.526 69.4448 32.5093 69.5711 32.476 69.6974C32.4426 69.8278 32.405 69.95 32.3675 70.0641C32.2632 70.3575 32.1464 70.6345 32.0171 70.8994C31.8878 71.1642 31.7459 71.425 31.5958 71.6939C31.5582 71.7591 31.5207 71.8243 31.4831 71.8935C31.4456 71.9628 31.3955 72.028 31.3455 72.0891C31.2954 72.1502 31.2328 72.1991 31.1619 72.2358C31.091 72.2725 31.0076 72.2928 30.9158 72.2928C30.703 72.2928 30.557 72.2684 30.4778 72.2154C30.3985 72.1665 30.3568 72.0932 30.3568 71.9995C30.3568 71.975 30.3568 71.9465 30.361 71.9139C30.3651 71.8813 30.3735 71.8487 30.386 71.8202C30.3985 71.7835 30.4319 71.7265 30.4819 71.6531C30.532 71.5798 30.5862 71.5024 30.6488 71.4209C30.7072 71.3353 30.7656 71.2538 30.824 71.1683C30.8824 71.0827 30.9241 71.0094 30.9533 70.9483C30.9992 70.8383 31.0534 70.7119 31.1202 70.5693C31.1828 70.4267 31.2453 70.2801 31.3037 70.1374C31.3621 69.9908 31.408 69.8522 31.4456 69.7219C31.4831 69.5915 31.504 69.4855 31.504 69.404C31.504 69.3674 31.4998 69.3266 31.4873 69.29C31.4748 69.2533 31.4581 69.2207 31.4289 69.1922C31.3997 69.1637 31.3621 69.1433 31.3163 69.1229C31.2662 69.1066 31.2036 69.0944 31.1285 69.0944C31.0201 69.0944 30.8908 69.1148 30.7406 69.1596C30.5904 69.2044 30.436 69.2574 30.2734 69.3266C30.1107 69.3959 29.9563 69.4733 29.8061 69.5629C29.656 69.6485 29.5225 69.7381 29.414 69.8237C29.3389 69.8848 29.2638 69.9337 29.1971 69.9704C29.1303 70.0071 29.0594 70.0356 28.9927 70.056C28.9843 70.0641 28.9676 70.1008 28.9384 70.1578C28.9092 70.2149 28.8759 70.2841 28.8341 70.3615C28.7924 70.443 28.7549 70.5286 28.709 70.6182C28.6673 70.7119 28.6256 70.7975 28.588 70.8749C28.5505 70.9564 28.5171 71.0216 28.4921 71.0746C28.467 71.1275 28.4545 71.1601 28.4545 71.1642C28.4295 71.2335 28.4086 71.3068 28.3878 71.3842C28.3711 71.4576 28.3544 71.5309 28.3377 71.6002C28.3252 71.6694 28.3085 71.7428 28.296 71.8202C28.2835 71.8976 28.2585 71.9709 28.2209 72.0361C28.1834 72.1013 28.125 72.1584 28.0457 72.2032C27.9665 72.248 27.858 72.2684 27.7162 72.2684C27.6452 72.2684 27.5785 72.2562 27.5201 72.2317C27.4617 72.2073 27.4075 72.1747 27.3657 72.1339C27.324 72.0932 27.2865 72.0484 27.2615 71.9995C27.2364 71.9506 27.2197 71.9017 27.2197 71.8487C27.3032 71.6205 27.3824 71.4168 27.4617 71.2335C27.541 71.0501 27.6202 70.8749 27.6995 70.7079C27.7787 70.5408 27.8538 70.3738 27.9289 70.2067C28.004 70.0397 28.0749 69.8522 28.15 69.6485C28.1667 69.5996 28.1834 69.5548 28.1917 69.5059C28.2042 69.4611 28.2084 69.4163 28.2084 69.3837C28.2084 69.3226 28.1917 69.2737 28.1542 69.2329C28.1166 69.1922 28.0541 69.1759 27.9623 69.1759C27.8121 69.1759 27.6661 69.1962 27.5201 69.237C27.3741 69.2777 27.2156 69.3429 27.0445 69.4326C26.8735 69.5222 26.6858 69.6322 26.4772 69.7707C26.2686 69.9093 26.0308 70.0723 25.7597 70.2597C25.7305 70.2964 25.6929 70.3697 25.647 70.4716C25.6012 70.5734 25.5511 70.6875 25.5052 70.8016C25.4551 70.9197 25.4134 71.0257 25.3717 71.1275C25.33 71.2294 25.305 71.2946 25.2966 71.3272C25.2549 71.4331 25.2299 71.5228 25.2132 71.5961C25.1965 71.6694 25.1882 71.7346 25.1756 71.7917C25.1673 71.8202 25.159 71.8732 25.1423 71.9424C25.1256 72.0117 25.1006 72.081 25.063 72.1543C25.0255 72.2236 24.9712 72.2888 24.9045 72.3417C24.8336 72.3947 24.746 72.4232 24.6333 72.4232C24.4665 72.4232 24.3288 72.3906 24.2245 72.3295C24.1161 72.2643 24.066 72.1869 24.066 72.0891C24.066 72.0728 24.066 72.0565 24.0702 72.0402C24.0743 72.0321 24.0827 72.0158 24.0869 71.9954Z" fill="#F6F6F6"/>
<path d="M36.2554 72.085C36.2554 72.0117 36.2679 71.922 36.293 71.8202C36.318 71.7183 36.3305 71.592 36.3305 71.4372C36.2095 71.4983 36.0802 71.5716 35.9342 71.6531C35.7882 71.7346 35.638 71.8161 35.4837 71.8935C35.3293 71.9709 35.175 72.0321 35.0206 72.085C34.8663 72.138 34.7245 72.1624 34.591 72.1624C34.4825 72.1624 34.3782 72.1502 34.2823 72.1298C34.1863 72.1054 34.1029 72.0769 34.032 72.0402C33.8401 71.9343 33.7024 71.8283 33.619 71.7224C33.5355 71.6165 33.4897 71.4942 33.4897 71.3516C33.4897 71.2864 33.498 71.2212 33.5147 71.156C33.5314 71.0868 33.5564 71.0094 33.5898 70.9197C33.7274 70.5204 33.9652 70.1497 34.299 69.8074C34.6327 69.4652 35.0498 69.1759 35.5421 68.9355C35.734 68.8418 35.9259 68.7806 36.1178 68.7562C36.3097 68.7318 36.4974 68.7155 36.6851 68.7155C36.7685 68.7155 36.8603 68.7195 36.9646 68.7277C37.0689 68.7358 37.1607 68.744 37.2441 68.7521C37.3275 68.7399 37.3943 68.7318 37.4485 68.7277C37.5027 68.7236 37.557 68.7195 37.6154 68.7195C37.7238 68.7195 37.8156 68.7277 37.8865 68.7481C37.9574 68.7684 38.0159 68.7969 38.0617 68.8295C38.1035 68.8621 38.1368 68.9029 38.1577 68.9477C38.1785 68.9925 38.1869 69.0373 38.1869 69.0862C38.1869 69.1514 38.1744 69.2166 38.1452 69.2737C38.116 69.3307 38.0868 69.3918 38.0576 69.4529L37.3401 71.4535C37.3275 71.5635 37.315 71.6613 37.3025 71.755C37.29 71.8446 37.2691 71.9302 37.2358 72.0076C37.2232 72.032 37.2107 72.0606 37.194 72.0932C37.1774 72.1258 37.1523 72.1584 37.1148 72.191C37.0772 72.2235 37.0355 72.248 36.9813 72.2724C36.9271 72.2969 36.8561 72.305 36.7685 72.305C36.6559 72.305 36.5683 72.301 36.5016 72.2887C36.4348 72.2806 36.3848 72.2643 36.3472 72.2439C36.3097 72.2235 36.2888 72.2032 36.2763 72.1747C36.2638 72.1502 36.2554 72.1176 36.2554 72.085ZM34.4575 70.936C34.445 70.9727 34.4283 71.0216 34.4116 71.0868C34.3949 71.152 34.3866 71.2172 34.3866 71.2824C34.3866 71.3516 34.3991 71.4127 34.4283 71.4657C34.4575 71.5187 34.52 71.5472 34.6202 71.5472C34.7703 71.5472 34.9122 71.5227 35.0457 71.4779C35.1792 71.4331 35.3001 71.3761 35.4169 71.3109C35.5713 71.2212 35.7298 71.1234 35.8925 71.0134C36.0552 70.9034 36.2054 70.7893 36.3472 70.6671C36.489 70.5449 36.6184 70.4226 36.7268 70.2923C36.8353 70.166 36.9187 70.0356 36.9688 69.9093C36.998 69.8359 37.023 69.7504 37.0439 69.6567C37.0647 69.5589 37.0731 69.4733 37.0731 69.4C37.0731 69.3674 37.0606 69.3348 37.0397 69.3022C37.0188 69.2696 36.9771 69.2533 36.9145 69.2533C36.7393 69.2533 36.56 69.2777 36.3806 69.3266C36.2012 69.3755 36.0302 69.4407 35.8633 69.5222C35.6964 69.6037 35.5379 69.6974 35.3877 69.8074C35.2376 69.9174 35.0999 70.0356 34.9789 70.1619C34.8579 70.2882 34.7495 70.4145 34.6619 70.549C34.5743 70.6834 34.5034 70.8097 34.4575 70.936Z" fill="#F6F6F6"/>
<path d="M39.3091 74C39.2799 74 39.2465 73.9959 39.2131 73.9878C39.1756 73.9796 39.1422 73.9633 39.113 73.947C39.0838 73.9267 39.0546 73.9022 39.0337 73.8737C39.0129 73.8452 39.0004 73.8085 39.0004 73.7678C39.0004 73.7392 39.0045 73.7107 39.017 73.6822C39.0462 73.5966 39.0754 73.5314 39.1088 73.4785C39.1422 73.4255 39.1881 73.3848 39.2506 73.3481C39.3132 73.3114 39.3967 73.2829 39.5009 73.2585C39.6052 73.234 39.7429 73.2096 39.9139 73.1851C40.0224 73.1688 40.1225 73.1525 40.2185 73.1322C40.3144 73.1118 40.3937 73.0914 40.4562 73.0629C40.6398 72.9488 40.7983 72.8306 40.9235 72.7084C41.0528 72.5862 41.1612 72.4599 41.2488 72.3295C41.3365 72.1991 41.4115 72.0646 41.4699 71.9302C41.5283 71.7957 41.5867 71.6531 41.641 71.5146C41.6618 71.4657 41.6827 71.4168 41.6994 71.3638C41.7161 71.3109 41.7369 71.2538 41.762 71.1886C41.6243 71.2742 41.4825 71.3557 41.3323 71.4413C41.1821 71.5268 41.0319 71.6002 40.8776 71.6654C40.7232 71.7305 40.5647 71.7835 40.402 71.8283C40.2393 71.8691 40.0808 71.8894 39.9223 71.8894C39.8263 71.8894 39.722 71.8691 39.6052 71.8283C39.4884 71.7876 39.3758 71.7346 39.2715 71.6694C39.1672 71.6042 39.0796 71.5268 39.0045 71.4413C38.9294 71.3557 38.8961 71.262 38.8961 71.1642C38.8961 71.1031 38.9086 71.0379 38.9294 70.9686C38.9503 70.8994 38.9712 70.8342 38.9878 70.7771C39.0462 70.6101 39.1297 70.4471 39.2423 70.2923C39.3549 70.1374 39.4843 69.9867 39.6344 69.8441C39.7846 69.7015 39.9473 69.567 40.1225 69.4407C40.2977 69.3144 40.4854 69.1962 40.6773 69.0862C40.9151 68.9477 41.1529 68.8499 41.3949 68.7888C41.6326 68.7277 41.8871 68.6992 42.1541 68.6992C42.2667 68.6992 42.3752 68.7032 42.4753 68.7114C42.5796 68.7195 42.6755 68.7358 42.7673 68.7603C42.8591 68.7847 42.9467 68.8214 43.026 68.8662C43.1052 68.9151 43.1761 68.9762 43.2429 69.0496C43.2554 69.0659 43.2679 69.0862 43.2762 69.1107C43.2846 69.1351 43.2888 69.1555 43.2888 69.1718C43.2888 69.1922 43.2804 69.2411 43.2637 69.3225C43.247 69.404 43.2262 69.5018 43.197 69.62C43.172 69.7381 43.1386 69.8685 43.101 70.0152C43.0635 70.1619 43.026 70.3086 42.9842 70.4552C42.9425 70.6019 42.905 70.7486 42.8633 70.8912C42.8215 71.0338 42.784 71.1642 42.7506 71.2783C42.6881 71.4779 42.613 71.6857 42.5212 71.8976C42.4294 72.1095 42.3168 72.3173 42.1833 72.521C42.0498 72.7247 41.8954 72.9162 41.7202 73.0955C41.545 73.2748 41.3365 73.4337 41.1028 73.5681C40.8692 73.7026 40.6023 73.8126 40.3061 73.89C40.0099 73.9593 39.6803 74 39.3091 74ZM39.8472 70.8586C39.8347 70.8871 39.8263 70.9197 39.818 70.9523C39.8096 70.9849 39.8055 71.0134 39.8055 71.046C39.8055 71.1031 39.818 71.1479 39.8472 71.1886C39.8764 71.2294 39.9264 71.2498 40.0057 71.2498C40.1267 71.2498 40.2644 71.2212 40.427 71.1601C40.5897 71.099 40.7483 71.0257 40.9109 70.936C41.0736 70.8464 41.2238 70.7445 41.3657 70.6386C41.5075 70.5327 41.6201 70.4308 41.7036 70.333C41.7411 70.2923 41.787 70.2352 41.8454 70.166C41.9038 70.0967 41.9664 70.0193 42.0248 69.9378C42.0832 69.8563 42.1374 69.7748 42.1833 69.6892C42.2292 69.6078 42.2584 69.5344 42.2709 69.4692C42.2709 69.4244 42.2584 69.3877 42.2333 69.3511C42.2083 69.3144 42.1875 69.2614 42.1666 69.1962H42.1165C42.0289 69.1962 41.9288 69.2166 41.8162 69.2533C41.7036 69.294 41.5867 69.3429 41.4616 69.4081C41.3365 69.4733 41.2113 69.5426 41.0862 69.6241C40.961 69.7055 40.84 69.783 40.7274 69.8685C40.6148 69.95 40.5146 70.0315 40.4229 70.1089C40.3311 70.1863 40.2602 70.2556 40.2101 70.3126C40.135 70.3941 40.0641 70.4797 40.0015 70.5653C39.939 70.6467 39.8889 70.7445 39.8472 70.8586Z" fill="#F6F6F6"/>
<path d="M44.315 70.7934C44.3692 70.6386 44.4526 70.4756 44.5653 70.3004C44.6779 70.1252 44.8281 69.95 45.0116 69.7748C45.1952 69.5955 45.4163 69.4244 45.6749 69.2533C45.9336 69.0821 46.2339 68.9273 46.5718 68.7766C46.626 68.7521 46.7095 68.7277 46.8221 68.7032C46.9347 68.6747 47.0516 68.6625 47.1684 68.6543C47.3102 68.5484 47.4979 68.4954 47.7357 68.4954C48.0194 68.4954 48.2571 68.5443 48.449 68.6462C48.6409 68.748 48.8036 68.8825 48.9288 69.0536C48.9705 69.1107 49.0039 69.1636 49.0414 69.2166C49.0748 69.2696 49.104 69.3266 49.129 69.3836C49.154 69.4448 49.1707 69.5059 49.1874 69.5751C49.1999 69.6444 49.2083 69.7218 49.2083 69.8074C49.2083 70.007 49.1624 70.2108 49.0706 70.4186C48.9788 70.6264 48.8537 70.8301 48.6868 71.0257C48.52 71.2212 48.3197 71.4127 48.0819 71.592C47.8442 71.7713 47.5813 71.9343 47.2935 72.0809C47.0974 72.1787 46.8805 72.2561 46.6469 72.3091C46.4091 72.3621 46.1463 72.3906 45.8543 72.3906C45.5748 72.3906 45.3329 72.3661 45.1284 72.3132C44.924 72.2602 44.753 72.1869 44.6195 72.0932C44.4818 71.9954 44.3817 71.8813 44.315 71.7468C44.2482 71.6124 44.2149 71.4616 44.2149 71.2986C44.219 71.1438 44.2524 70.9727 44.315 70.7934ZM45.216 70.8423C45.1952 70.8993 45.1785 70.9564 45.1702 71.0094C45.1618 71.0623 45.1576 71.1112 45.1576 71.1601C45.1576 71.2416 45.1743 71.3231 45.2035 71.3924C45.2327 71.4657 45.2828 71.5268 45.3537 71.5798C45.4205 71.6327 45.5081 71.6735 45.6123 71.702C45.7166 71.7305 45.8418 71.7468 45.9878 71.7468C46.2631 71.7468 46.5176 71.6979 46.7554 71.6001C46.9932 71.5024 47.2017 71.3801 47.3853 71.2334C47.5688 71.0868 47.7232 70.9279 47.8483 70.7608C47.9735 70.5938 48.0611 70.4389 48.1111 70.2963C48.1445 70.2067 48.1737 70.1252 48.1946 70.0478C48.2196 69.9704 48.2279 69.897 48.2279 69.8318C48.2279 69.7666 48.2113 69.7055 48.1779 69.6485C48.1445 69.5914 48.0986 69.5263 48.0444 69.457C48.011 69.4122 47.9777 69.3674 47.9484 69.3225C47.9151 69.2736 47.8859 69.2288 47.8608 69.184C47.8316 69.2207 47.8024 69.2492 47.7691 69.2777C47.7357 69.3022 47.6898 69.3266 47.6231 69.3511C47.5563 69.3714 47.4687 69.3918 47.3561 69.4081C47.2434 69.4244 47.0974 69.4407 46.9181 69.4529C46.7971 69.4814 46.6761 69.5222 46.5551 69.5833C46.4342 69.6403 46.3132 69.7096 46.1964 69.787C46.0796 69.8644 45.9669 69.95 45.8585 70.0396C45.75 70.1293 45.6541 70.223 45.5706 70.3208C45.4872 70.4145 45.4121 70.5082 45.3495 70.6019C45.287 70.6834 45.2411 70.7649 45.216 70.8423Z" fill="#F6F6F6"/>
<path d="M57.2094 67.0409C57.2261 66.939 57.2553 66.8453 57.297 66.7598C57.3387 66.6742 57.3888 66.6009 57.4555 66.5438C57.5223 66.4868 57.6099 66.4583 57.7142 66.4583C57.7726 66.4583 57.8352 66.4664 57.9061 66.4827C57.977 66.499 58.0437 66.5194 58.1063 66.5438C58.1689 66.5683 58.2231 66.6009 58.2648 66.6416C58.3065 66.6823 58.3316 66.7231 58.3316 66.7679C58.3316 66.7883 58.3274 66.8127 58.3149 66.8372C58.3024 66.8657 58.294 66.8901 58.2899 66.9146L56.9341 70.7201C56.8799 70.8709 56.834 71.0176 56.8006 71.1561C56.7631 71.2946 56.738 71.4087 56.7172 71.4943V71.5839C56.7172 71.6613 56.7088 71.7428 56.6963 71.8324C56.6838 71.9221 56.6546 72.0076 56.617 72.0851C56.5753 72.1625 56.5211 72.2277 56.4502 72.2806C56.3793 72.3336 56.2875 72.358 56.1749 72.358C56.0789 72.358 55.9913 72.3417 55.9204 72.3132C55.8495 72.2847 55.7869 72.248 55.741 72.2032C55.6951 72.1584 55.6617 72.1095 55.6367 72.0565C55.6159 72.0036 55.6033 71.9547 55.6033 71.9099C55.6033 71.8691 55.6075 71.8202 55.62 71.7591C55.6325 71.698 55.6451 71.6369 55.6617 71.5717C55.6784 71.5065 55.6951 71.4413 55.7118 71.3761C55.7285 71.3109 55.7493 71.2539 55.766 71.2091L57.1635 67.322C57.1802 67.2365 57.1927 67.1428 57.2094 67.0409Z" fill="#F6F6F6"/>
<path d="M60.0086 67.0409C60.0252 66.939 60.0544 66.8453 60.0962 66.7598C60.1379 66.6742 60.1879 66.6009 60.2547 66.5438C60.3214 66.4868 60.409 66.4583 60.5133 66.4583C60.5717 66.4583 60.6343 66.4664 60.7052 66.4827C60.7761 66.499 60.8429 66.5194 60.9055 66.5438C60.968 66.5683 61.0223 66.6009 61.064 66.6416C61.1057 66.6823 61.1307 66.7231 61.1307 66.7679C61.1307 66.7883 61.1265 66.8127 61.114 66.8372C61.1015 66.8657 61.0932 66.8901 61.089 66.9146L59.7332 70.7201C59.679 70.8709 59.6331 71.0176 59.5997 71.1561C59.5622 71.2946 59.5372 71.4087 59.5163 71.4943V71.5839C59.5163 71.6613 59.508 71.7428 59.4954 71.8324C59.4829 71.9221 59.4537 72.0076 59.4162 72.0851C59.3745 72.1625 59.3202 72.2277 59.2493 72.2806C59.1784 72.3336 59.0866 72.358 58.974 72.358C58.878 72.358 58.7904 72.3417 58.7195 72.3132C58.6486 72.2847 58.586 72.248 58.5402 72.2032C58.4943 72.1584 58.4609 72.1095 58.4359 72.0565C58.415 72.0036 58.4025 71.9547 58.4025 71.9099C58.4025 71.8691 58.4067 71.8202 58.4192 71.7591C58.4317 71.698 58.4442 71.6369 58.4609 71.5717C58.4776 71.5065 58.4943 71.4413 58.5109 71.3761C58.5276 71.3109 58.5485 71.2539 58.5652 71.2091L59.9627 67.322C59.9752 67.2365 59.9919 67.1428 60.0086 67.0409Z" fill="#F6F6F6"/>
<path d="M61.0765 70.7812C61.0765 70.6712 61.1182 70.5816 61.2016 70.5041C61.2851 70.4267 61.3935 70.3778 61.5312 70.3534C61.5729 70.2964 61.6313 70.223 61.7148 70.1293C61.7982 70.0356 61.9025 69.9297 62.0235 69.8196C62.1444 69.7096 62.2863 69.5955 62.4448 69.4855C62.6033 69.3715 62.7743 69.2696 62.9662 69.18C63.1581 69.0862 63.3584 69.0129 63.5795 68.9559C63.7964 68.8988 64.03 68.8703 64.2761 68.8703C64.4847 68.8703 64.6683 68.8866 64.8226 68.9233C64.977 68.9599 65.1063 69.0088 65.2064 69.07C65.3065 69.1311 65.3816 69.2085 65.4358 69.294C65.4901 69.3796 65.5109 69.4774 65.5109 69.5752C65.5109 69.6607 65.4942 69.7422 65.4609 69.8237C65.4108 69.9663 65.3149 70.0886 65.1772 70.1945C65.0395 70.3004 64.8768 70.3941 64.6933 70.4756C64.5056 70.5571 64.3053 70.6223 64.0842 70.6753C63.8673 70.7282 63.6462 70.7731 63.4293 70.8097C63.2124 70.8464 62.9996 70.8709 62.7994 70.8912C62.595 70.9116 62.4198 70.9238 62.2737 70.936C62.2404 70.9809 62.2112 71.0379 62.1903 71.1072C62.1653 71.1764 62.1569 71.2457 62.1569 71.3109C62.1569 71.4576 62.2404 71.5717 62.4072 71.6531C62.5741 71.7346 62.8035 71.7754 63.0956 71.7754C63.2666 71.7754 63.4293 71.7632 63.5836 71.7346C63.738 71.7061 63.8882 71.6735 64.0258 71.6328C64.1635 71.592 64.297 71.5472 64.418 71.4942C64.5389 71.4453 64.6516 71.3965 64.7559 71.3476C64.8852 71.2864 65.0103 71.2375 65.1271 71.1927C65.2439 71.1479 65.3482 71.1316 65.44 71.1316C65.5318 71.1316 65.5902 71.1479 65.6152 71.1805C65.6402 71.2131 65.6528 71.2457 65.6528 71.2824C65.6528 71.3027 65.6527 71.3231 65.6486 71.3394C65.6444 71.3557 65.6444 71.3761 65.6402 71.3883C65.6236 71.4535 65.586 71.5187 65.5318 71.5839C65.4775 71.6491 65.4108 71.7061 65.3274 71.755C64.9519 71.9628 64.564 72.1095 64.1677 72.1991C63.7714 72.2888 63.35 72.3336 62.8995 72.3336C62.8119 72.3336 62.7118 72.3295 62.595 72.3214C62.4782 72.3132 62.3572 72.2969 62.2279 72.2765C62.1027 72.2521 61.9776 72.2195 61.8524 72.1787C61.7314 72.1339 61.6188 72.0769 61.5229 72.0076C61.4269 71.9384 61.3477 71.8487 61.2892 71.7469C61.2308 71.645 61.2016 71.5187 61.2016 71.372C61.2016 71.2538 61.2267 71.1194 61.2726 70.9727C61.2267 70.9686 61.1808 70.9523 61.1391 70.9197C61.0974 70.879 61.0765 70.8383 61.0765 70.7812ZM64.4722 69.73C64.4805 69.7178 64.4847 69.7056 64.4847 69.6974C64.4847 69.6893 64.4847 69.677 64.4847 69.6648C64.4847 69.5955 64.4472 69.5467 64.3762 69.51C64.3053 69.4733 64.2177 69.457 64.1176 69.457C63.9591 69.457 63.8006 69.4855 63.6504 69.5426C63.496 69.5996 63.3542 69.673 63.2165 69.7626C63.083 69.8482 62.9621 69.9419 62.8578 70.0437C62.7535 70.1456 62.6701 70.2352 62.6158 70.3167C62.8745 70.3004 63.1164 70.276 63.3333 70.2434C63.5503 70.2108 63.738 70.166 63.9007 70.113C64.0634 70.06 64.1927 70.003 64.2928 69.9378C64.3804 69.8726 64.443 69.8033 64.4722 69.73Z" fill="#F6F6F6"/>
<path d="M70.4918 69.131C70.3667 69.131 70.229 69.1514 70.0872 69.1922C69.9412 69.2329 69.791 69.2899 69.6366 69.3592C69.4823 69.4285 69.3238 69.51 69.1611 69.5996C68.9984 69.6892 68.844 69.7829 68.6855 69.8807C68.6062 69.9296 68.5312 69.9744 68.4561 70.0111C68.3852 70.0519 68.3101 70.0804 68.2391 70.1008C68.1891 70.1578 68.1349 70.2352 68.0806 70.3289C68.0264 70.4226 67.968 70.5286 67.9138 70.6386C67.8595 70.7527 67.8095 70.8667 67.7594 70.9849C67.7094 71.1031 67.6718 71.2131 67.6384 71.3149C67.6217 71.3679 67.6051 71.4209 67.5967 71.4698C67.5842 71.5187 67.5717 71.5757 67.5592 71.6327C67.5467 71.6898 67.5258 71.7509 67.5091 71.8161C67.4883 71.8813 67.4632 71.9546 67.434 72.0361C67.4173 72.085 67.3881 72.1217 67.3464 72.1502C67.3047 72.1787 67.2672 72.2032 67.2213 72.2154C67.1796 72.2317 67.1378 72.2398 67.0961 72.2439C67.0544 72.248 67.0252 72.248 67.0044 72.248C66.8667 72.248 66.7541 72.2235 66.6665 72.1787C66.5788 72.1339 66.5371 72.0443 66.5371 71.9139C66.5371 71.8772 66.5371 71.8405 66.5413 71.8039C66.5455 71.7631 66.5538 71.7224 66.5747 71.6735C66.6539 71.4331 66.729 71.2172 66.8041 71.0257C66.8792 70.8342 66.9543 70.6549 67.0294 70.4919C67.1045 70.3289 67.1837 70.1741 67.2588 70.0274C67.3381 69.8807 67.4173 69.7341 67.4966 69.5874C67.5759 69.4407 67.6635 69.2859 67.7511 69.127C67.8387 68.9681 67.9346 68.7929 68.0347 68.6014C68.0556 68.5565 68.114 68.5239 68.2058 68.4914C68.2976 68.4628 68.3977 68.4465 68.502 68.4465C68.6396 68.4465 68.7523 68.4669 68.8399 68.5117C68.9275 68.5565 68.9733 68.6177 68.9733 68.6991C68.9733 68.7073 68.9692 68.7195 68.9608 68.7399C68.9525 68.7603 68.9441 68.7806 68.9275 68.8051L68.6897 69.2003C68.8399 69.1147 68.9984 69.0333 69.1652 68.9477C69.3279 68.8621 69.499 68.7888 69.6742 68.7236C69.8494 68.6584 70.0204 68.6014 70.1956 68.5606C70.3708 68.5199 70.5419 68.4995 70.7129 68.4995C71.0592 68.4995 71.3303 68.5647 71.5264 68.6951C71.7224 68.8255 71.8184 69.0292 71.8184 69.3022C71.8184 69.4611 71.7808 69.6363 71.7016 69.8359C71.6223 70.0356 71.5264 70.2515 71.4096 70.4797C71.2928 70.7078 71.1676 70.9482 71.03 71.2009C70.8923 71.4535 70.7671 71.7102 70.6545 71.9709C70.6211 72.0402 70.5878 72.1013 70.5544 72.1502C70.521 72.1991 70.4793 72.2358 70.4334 72.2643C70.3875 72.2928 70.3291 72.3132 70.2665 72.3254C70.204 72.3376 70.1247 72.3458 70.0371 72.3458C69.8953 72.3458 69.7993 72.3295 69.7451 72.2887C69.6909 72.2521 69.6658 72.195 69.6658 72.1135C69.6658 72.0443 69.6825 71.9546 69.7117 71.8528C69.7409 71.7509 69.7868 71.6368 69.841 71.5146C69.8953 71.3924 69.962 71.262 70.0371 71.1234C70.1122 70.9849 70.1915 70.8423 70.2791 70.6997C70.3458 70.5815 70.4167 70.4675 70.4835 70.3493C70.5502 70.2311 70.6086 70.1211 70.6629 70.0111C70.7171 69.9011 70.7588 69.7992 70.7922 69.7015C70.8255 69.6037 70.8422 69.51 70.8422 69.4285C70.8422 69.3511 70.8172 69.2818 70.7671 69.2207C70.7171 69.1596 70.6253 69.131 70.4918 69.131Z" fill="#F6F6F6"/>
<path d="M72.8279 70.7934C72.8821 70.6386 72.9656 70.4756 73.0782 70.3004C73.1908 70.1252 73.341 69.95 73.5246 69.7748C73.7081 69.5955 73.9292 69.4244 74.1879 69.2533C74.4465 69.0821 74.7469 68.9273 75.0848 68.7766C75.139 68.7521 75.2224 68.7277 75.335 68.7032C75.4477 68.6747 75.5645 68.6625 75.6813 68.6543C75.8231 68.5484 76.0108 68.4954 76.2486 68.4954C76.5323 68.4954 76.7701 68.5443 76.962 68.6462C77.1539 68.748 77.3166 68.8825 77.4417 69.0536C77.4834 69.1107 77.5168 69.1636 77.5543 69.2166C77.5877 69.2696 77.6169 69.3266 77.6419 69.3836C77.667 69.4448 77.6837 69.5059 77.7003 69.5751C77.7129 69.6444 77.7212 69.7218 77.7212 69.8074C77.7212 70.007 77.6753 70.2108 77.5835 70.4186C77.4918 70.6264 77.3666 70.8301 77.1998 71.0257C77.0329 71.2212 76.8327 71.4127 76.5949 71.592C76.3571 71.7713 76.0943 71.9343 75.8064 72.0809C75.6104 72.1787 75.3934 72.2561 75.1598 72.3091C74.9221 72.3621 74.6592 72.3906 74.3672 72.3906C74.0877 72.3906 73.8458 72.3661 73.6414 72.3132C73.437 72.2602 73.2659 72.1869 73.1324 72.0932C72.9948 71.9954 72.8947 71.8813 72.8279 71.7468C72.7612 71.6124 72.7278 71.4616 72.7278 71.2986C72.732 71.1438 72.7653 70.9727 72.8279 70.7934ZM73.729 70.8423C73.7081 70.8993 73.6914 70.9564 73.6831 71.0094C73.6747 71.0623 73.6706 71.1112 73.6706 71.1601C73.6706 71.2416 73.6873 71.3231 73.7165 71.3924C73.7457 71.4657 73.7957 71.5268 73.8666 71.5798C73.9334 71.6327 74.021 71.6735 74.1253 71.702C74.2296 71.7305 74.3547 71.7468 74.5007 71.7468C74.776 71.7468 75.0305 71.6979 75.2683 71.6001C75.5061 71.5024 75.7147 71.3801 75.8982 71.2334C76.0818 71.0868 76.2361 70.9279 76.3613 70.7608C76.4864 70.5938 76.574 70.4389 76.6241 70.2963C76.6574 70.2067 76.6866 70.1252 76.7075 70.0478C76.7325 69.9704 76.7409 69.897 76.7409 69.8318C76.7409 69.7666 76.7242 69.7055 76.6908 69.6485C76.6574 69.5914 76.6116 69.5263 76.5573 69.457C76.524 69.4122 76.4906 69.3674 76.4614 69.3225C76.428 69.2736 76.3988 69.2288 76.3738 69.184C76.3446 69.2207 76.3154 69.2492 76.282 69.2777C76.2486 69.3022 76.2027 69.3266 76.136 69.3511C76.0692 69.3714 75.9816 69.3918 75.869 69.4081C75.7564 69.4244 75.6104 69.4407 75.431 69.4529C75.31 69.4814 75.189 69.5222 75.0681 69.5833C74.9471 69.6403 74.8261 69.7096 74.7093 69.787C74.5925 69.8644 74.4799 69.95 74.3714 70.0396C74.2629 70.1293 74.167 70.223 74.0836 70.3208C74.0001 70.4145 73.925 70.5082 73.8625 70.6019C73.7999 70.6834 73.754 70.7649 73.729 70.8423Z" fill="#F6F6F6"/>
<path d="M79.1646 72.2766C78.981 72.2603 78.8309 72.2114 78.7141 72.1217C78.5972 72.0321 78.5388 71.9262 78.5388 71.8039C78.5388 71.6287 78.639 71.4739 78.8392 71.3435C79.0394 71.2131 79.2605 71.1439 79.5025 71.1439C79.7069 71.1439 79.8696 71.1928 79.9864 71.2946C80.1032 71.3965 80.1616 71.5391 80.1616 71.7184C80.1616 72.0076 79.978 72.3417 79.6109 72.7207C79.2438 73.1037 78.9268 73.2911 78.664 73.2911C78.5764 73.2911 78.5013 73.2707 78.4304 73.2259C78.3636 73.1811 78.3261 73.1322 78.3261 73.0751C78.3261 73.0059 78.3511 72.9448 78.397 72.8959C78.4429 72.847 78.543 72.7859 78.6974 72.7084C78.9185 72.6025 79.0728 72.4558 79.1646 72.2766Z" fill="#F6F6F6"/>
<path d="M88.1252 70.7608C88.1919 70.5652 88.2962 70.3615 88.4297 70.1496C88.5632 69.9378 88.7301 69.73 88.922 69.5344C89.1139 69.3348 89.3308 69.1514 89.5769 68.9844C89.8189 68.8173 90.0858 68.6788 90.3779 68.5728C90.4738 68.5362 90.5739 68.5117 90.6866 68.4914C90.7992 68.471 90.9118 68.4628 91.0286 68.4628C91.1496 68.4628 91.2581 68.471 91.3624 68.4873C91.4666 68.5036 91.5543 68.528 91.6293 68.5647C91.7044 68.6014 91.7628 68.6462 91.8046 68.7032C91.8463 68.7603 91.8713 68.8255 91.8713 68.9069C91.8713 68.9681 91.8588 69.0292 91.8338 69.0903C91.8087 69.1514 91.7712 69.2085 91.7211 69.2573C91.6711 69.3062 91.6085 69.347 91.5292 69.3755C91.4541 69.404 91.3665 69.4203 91.2622 69.4203C91.183 69.4203 91.1079 69.4122 91.0411 69.3918C90.9744 69.3714 90.9118 69.347 90.8493 69.3225C90.8159 69.3062 90.7867 69.294 90.7575 69.2818C90.7283 69.2696 90.6949 69.2614 90.6532 69.2492C90.5072 69.294 90.3737 69.3551 90.2444 69.4285C90.1151 69.5018 89.9982 69.5874 89.8856 69.677C89.7771 69.7666 89.6729 69.8644 89.5811 69.9704C89.4893 70.0763 89.4059 70.1782 89.3308 70.28C89.2557 70.3819 89.1931 70.4838 89.1389 70.5856C89.0847 70.6875 89.0429 70.7771 89.0096 70.8627C88.9845 70.9238 88.9595 70.9931 88.9428 71.0705C88.922 71.1479 88.9136 71.2212 88.9136 71.2946C88.9136 71.3435 88.922 71.3924 88.9345 71.4372C88.947 71.482 88.9679 71.5227 89.0012 71.5594C89.0346 71.5961 89.0763 71.6246 89.1306 71.645C89.1848 71.6653 89.2515 71.6735 89.3308 71.6735C89.4559 71.6735 89.5811 71.6613 89.7062 71.6409C89.8314 71.6164 89.9524 71.5879 90.0733 71.5553C90.1943 71.5187 90.3111 71.4779 90.4237 71.4331C90.5364 71.3883 90.649 71.3394 90.7575 71.2905C90.8284 71.262 90.8951 71.2294 90.9619 71.1968C91.0328 71.1642 91.0954 71.1357 91.158 71.1112C91.2205 71.0868 91.2748 71.0664 91.329 71.0501C91.379 71.0338 91.4291 71.0257 91.4666 71.0257C91.5209 71.0257 91.5709 71.0338 91.6168 71.0542C91.6627 71.0745 91.6877 71.1071 91.6877 71.152C91.6877 71.1846 91.6752 71.2212 91.6544 71.262C91.6043 71.3598 91.5334 71.4494 91.45 71.5268C91.3665 71.6042 91.2664 71.6735 91.158 71.7387C91.0495 71.8039 90.9369 71.8568 90.8159 71.9057C90.6949 71.9546 90.5739 71.9994 90.4571 72.0402C90.2319 72.1258 90.0066 72.1869 89.7772 72.2276C89.5477 72.2684 89.3558 72.2887 89.2015 72.2887C89.1514 72.2887 89.093 72.2847 89.0221 72.2765C88.9512 72.2684 88.8928 72.2561 88.8427 72.2439C88.5507 72.1543 88.3379 72.0361 88.2045 71.8854C88.071 71.7346 88.0042 71.5594 88.0042 71.3557C88.0042 71.266 88.0126 71.1723 88.0334 71.0745C88.0543 70.9768 88.0876 70.8667 88.1252 70.7608Z" fill="#F6F6F6"/>
<path d="M92.7515 70.7812C92.7515 70.6712 92.7932 70.5816 92.8767 70.5041C92.9601 70.4267 93.0686 70.3778 93.2062 70.3534C93.2438 70.2964 93.3063 70.223 93.3898 70.1293C93.4732 70.0356 93.5775 69.9297 93.6985 69.8196C93.8194 69.7096 93.9613 69.5955 94.1198 69.4855C94.2783 69.3715 94.4494 69.2696 94.6412 69.18C94.8331 69.0862 95.0334 69.0129 95.2545 68.9559C95.4756 68.8988 95.705 68.8703 95.9511 68.8703C96.1597 68.8703 96.3433 68.8866 96.4976 68.9233C96.652 68.9599 96.7813 69.0088 96.8814 69.07C96.9815 69.1351 97.0566 69.2085 97.1108 69.294C97.1651 69.3796 97.1859 69.4774 97.1859 69.5752C97.1859 69.6607 97.1692 69.7422 97.1359 69.8237C97.0858 69.9663 96.9899 70.0886 96.8522 70.1945C96.7145 70.3004 96.5518 70.3941 96.3683 70.4756C96.1806 70.5571 95.9803 70.6223 95.7592 70.6753C95.5423 70.7282 95.3212 70.7731 95.1043 70.8097C94.8832 70.8464 94.6746 70.8709 94.4744 70.8912C94.27 70.9116 94.0948 70.9238 93.9488 70.936C93.9154 70.9809 93.8862 71.0379 93.8653 71.1072C93.8445 71.1764 93.832 71.2457 93.832 71.3109C93.832 71.4576 93.9154 71.5717 94.0823 71.6531C94.2491 71.7346 94.4786 71.7754 94.7706 71.7754C94.9416 71.7754 95.1043 71.7632 95.2587 71.7346C95.413 71.7061 95.5632 71.6735 95.7008 71.6328C95.8385 71.592 95.972 71.5472 96.093 71.4942C96.2139 71.4453 96.3266 71.3965 96.4309 71.3476C96.5602 71.2864 96.6853 71.2375 96.8021 71.1927C96.9189 71.152 97.0232 71.1316 97.115 71.1316C97.2068 71.1316 97.2652 71.1479 97.2902 71.1805C97.3153 71.2131 97.3278 71.2457 97.3278 71.2824C97.3278 71.3027 97.3278 71.3231 97.3236 71.3394C97.3236 71.3598 97.3194 71.3761 97.3152 71.3883C97.2986 71.4535 97.261 71.5187 97.2068 71.5839C97.1526 71.6491 97.0858 71.7061 97.0024 71.755C96.6269 71.9628 96.239 72.1095 95.8427 72.1991C95.4464 72.2888 95.025 72.3336 94.5745 72.3336C94.4869 72.3336 94.3868 72.3295 94.27 72.3214C94.1532 72.3132 94.0322 72.2969 93.9029 72.2765C93.7777 72.2521 93.6526 72.2195 93.5274 72.1787C93.4065 72.1339 93.2938 72.0769 93.1979 72.0076C93.1019 71.9384 93.0227 71.8487 92.9643 71.7469C92.9059 71.645 92.8767 71.5187 92.8767 71.372C92.8767 71.2538 92.9017 71.1194 92.9476 70.9727C92.9017 70.9686 92.8558 70.9523 92.8141 70.9197C92.7724 70.879 92.7515 70.8383 92.7515 70.7812ZM96.1472 69.73C96.1555 69.7178 96.1597 69.7056 96.1597 69.6974C96.1597 69.6893 96.1597 69.677 96.1597 69.6648C96.1597 69.5955 96.1222 69.5467 96.0513 69.51C95.9803 69.4774 95.8927 69.457 95.7926 69.457C95.6341 69.457 95.4756 69.4855 95.3254 69.5426C95.171 69.5996 95.0292 69.673 94.8915 69.7626C94.7539 69.8522 94.6371 69.9419 94.5328 70.0437C94.4285 70.1456 94.3451 70.2352 94.2908 70.3167C94.5495 70.3004 94.7914 70.276 95.0084 70.2434C95.2253 70.2108 95.413 70.166 95.5757 70.113C95.7342 70.06 95.8677 70.003 95.9678 69.9378C96.0554 69.8726 96.118 69.8033 96.1472 69.73Z" fill="#F6F6F6"/>
<path d="M98.4249 71.8569C98.4708 71.6817 98.525 71.4861 98.5876 71.2702C98.6502 71.0583 98.7127 70.8424 98.7795 70.6264C98.8462 70.4105 98.9088 70.1945 98.9672 69.9826C99.0256 69.7708 99.0798 69.5793 99.1257 69.4041C99.1215 69.3796 99.1216 69.3552 99.1216 69.3389C99.1216 69.3185 99.1216 69.2981 99.1216 69.2778C99.1216 69.2004 99.1299 69.1229 99.1424 69.0415C99.1591 68.964 99.1758 68.8907 99.2008 68.8255C99.2384 68.7277 99.2842 68.6625 99.3343 68.6299C99.3844 68.5973 99.4636 68.577 99.5721 68.577C99.6764 68.577 99.7598 68.5933 99.8224 68.6218C99.885 68.6503 99.935 68.691 99.9726 68.7359C100.01 68.7848 100.031 68.8377 100.043 68.9029C100.056 68.964 100.06 69.0292 100.06 69.0944C100.06 69.1311 100.06 69.1678 100.056 69.2126C100.052 69.2574 100.052 69.29 100.052 69.3144C100.152 69.2411 100.26 69.1678 100.373 69.0903C100.486 69.0129 100.607 68.9437 100.736 68.8825C100.865 68.8214 100.999 68.7685 101.145 68.7277C101.287 68.687 101.437 68.6666 101.591 68.6666C101.654 68.6666 101.712 68.6707 101.775 68.6788C101.833 68.687 101.896 68.6951 101.958 68.7074C102.029 68.7196 102.104 68.7359 102.184 68.7603C102.263 68.7807 102.338 68.8133 102.409 68.85C102.53 68.9151 102.63 68.9926 102.709 69.0863C102.793 69.18 102.83 69.2778 102.83 69.3756C102.83 69.4122 102.818 69.453 102.797 69.4978C102.776 69.5426 102.747 69.5834 102.709 69.62C102.672 69.6567 102.626 69.6852 102.576 69.7097C102.526 69.7341 102.467 69.7463 102.409 69.7463C102.346 69.7463 102.271 69.7341 102.184 69.7137C102.096 69.6934 102.021 69.6648 101.962 69.6282C101.937 69.6119 101.912 69.5915 101.883 69.563C101.854 69.5345 101.829 69.5059 101.808 69.4774C101.783 69.4489 101.762 69.4245 101.741 69.4C101.72 69.3756 101.708 69.3593 101.695 69.3511C101.679 69.347 101.658 69.347 101.637 69.347C101.616 69.347 101.595 69.347 101.579 69.347C101.395 69.347 101.22 69.3796 101.053 69.4448C100.886 69.51 100.732 69.5915 100.586 69.6852C100.44 69.7789 100.306 69.8808 100.185 69.9908C100.064 70.0967 99.96 70.1945 99.8683 70.2801C99.7973 70.4838 99.7139 70.7038 99.6263 70.9361C99.5387 71.1683 99.4511 71.4087 99.3635 71.6613V71.755C99.3635 71.8324 99.3593 71.9099 99.351 71.9873C99.3426 72.0647 99.3218 72.134 99.2842 72.1951C99.2467 72.2317 99.1883 72.2643 99.1132 72.2929C99.0381 72.3173 98.9547 72.3336 98.8546 72.3336C98.7044 72.3336 98.5876 72.2969 98.5125 72.2277C98.4374 72.1584 98.3999 72.0769 98.3999 71.9832C98.3999 71.9465 98.4082 71.9017 98.4249 71.8569Z" fill="#F6F6F6"/>
<path d="M102.968 70.7812C102.968 70.6712 103.009 70.5816 103.093 70.5041C103.176 70.4267 103.285 70.3778 103.422 70.3534C103.46 70.2964 103.523 70.223 103.606 70.1293C103.689 70.0356 103.794 69.9297 103.915 69.8196C104.036 69.7096 104.178 69.5955 104.336 69.4855C104.495 69.3715 104.666 69.2696 104.858 69.18C105.049 69.0862 105.25 69.0129 105.471 68.9559C105.692 68.8988 105.921 68.8703 106.167 68.8703C106.376 68.8703 106.56 68.8866 106.714 68.9233C106.868 68.9599 106.998 69.0088 107.098 69.07C107.198 69.1351 107.273 69.2085 107.327 69.294C107.381 69.3796 107.402 69.4774 107.402 69.5752C107.402 69.6607 107.386 69.7422 107.352 69.8237C107.302 69.9663 107.206 70.0886 107.068 70.1945C106.931 70.3004 106.768 70.3941 106.585 70.4756C106.397 70.5571 106.197 70.6223 105.975 70.6753C105.759 70.7282 105.537 70.7731 105.321 70.8097C105.099 70.8464 104.891 70.8709 104.691 70.8912C104.486 70.9116 104.311 70.9238 104.165 70.936C104.132 70.9809 104.102 71.0379 104.082 71.1072C104.061 71.1764 104.048 71.2457 104.048 71.3109C104.048 71.4576 104.132 71.5717 104.299 71.6531C104.465 71.7346 104.695 71.7754 104.987 71.7754C105.158 71.7754 105.321 71.7632 105.475 71.7346C105.629 71.7061 105.779 71.6735 105.917 71.6328C106.055 71.592 106.188 71.5472 106.309 71.4942C106.43 71.4453 106.543 71.3965 106.647 71.3476C106.776 71.2864 106.902 71.2375 107.018 71.1927C107.135 71.152 107.24 71.1316 107.331 71.1316C107.423 71.1316 107.481 71.1479 107.506 71.1805C107.532 71.2131 107.544 71.2457 107.544 71.2824C107.544 71.3027 107.544 71.3231 107.54 71.3394C107.54 71.3598 107.536 71.3761 107.532 71.3883C107.515 71.4535 107.477 71.5187 107.423 71.5839C107.369 71.6491 107.302 71.7061 107.219 71.755C106.843 71.9628 106.455 72.1095 106.059 72.1991C105.663 72.2888 105.241 72.3336 104.791 72.3336C104.703 72.3336 104.603 72.3295 104.486 72.3214C104.369 72.3132 104.248 72.2969 104.119 72.2765C103.994 72.2521 103.869 72.2195 103.744 72.1787C103.623 72.1339 103.51 72.0769 103.414 72.0076C103.318 71.9384 103.239 71.8487 103.181 71.7469C103.122 71.645 103.093 71.5187 103.093 71.372C103.093 71.2538 103.118 71.1194 103.164 70.9727C103.118 70.9686 103.072 70.9523 103.03 70.9197C102.989 70.879 102.968 70.8383 102.968 70.7812ZM106.363 69.73C106.372 69.7178 106.376 69.7056 106.376 69.6974C106.376 69.6893 106.376 69.677 106.376 69.6648C106.376 69.5955 106.338 69.5467 106.268 69.51C106.197 69.4774 106.109 69.457 106.009 69.457C105.85 69.457 105.692 69.4855 105.542 69.5426C105.387 69.5996 105.245 69.673 105.108 69.7626C104.97 69.8522 104.853 69.9419 104.749 70.0437C104.645 70.1456 104.561 70.2352 104.507 70.3167C104.766 70.3004 105.008 70.276 105.225 70.2434C105.442 70.2108 105.629 70.166 105.792 70.113C105.95 70.06 106.084 70.003 106.184 69.9378C106.272 69.8726 106.334 69.8033 106.363 69.73Z" fill="#F6F6F6"/>
<path d="M108.837 71.0012C108.908 70.7975 108.992 70.5734 109.088 70.333C109.179 70.0926 109.279 69.8441 109.38 69.5915C109.48 69.3389 109.58 69.0903 109.68 68.8418C109.78 68.5933 109.872 68.361 109.955 68.141C110.039 67.921 110.11 67.7213 110.168 67.5461C110.226 67.3709 110.268 67.2242 110.289 67.1183L110.347 66.8127C110.36 66.7883 110.368 66.7638 110.381 66.7353C110.393 66.7068 110.414 66.6823 110.439 66.6579C110.464 66.6334 110.498 66.6131 110.539 66.5968C110.581 66.5805 110.631 66.5723 110.694 66.5723C110.806 66.5723 110.898 66.5846 110.977 66.6131C111.052 66.6416 111.115 66.6783 111.157 66.7231C111.203 66.772 111.232 66.8249 111.253 66.8861C111.269 66.9472 111.282 67.0083 111.282 67.0776C111.282 67.1468 111.273 67.2079 111.261 67.2772C111.244 67.3424 111.232 67.4035 111.211 67.4565C111.09 67.8028 110.956 68.1532 110.802 68.5077C110.648 68.8622 110.51 69.2166 110.389 69.5711C110.531 69.4774 110.681 69.3878 110.844 69.3022C111.006 69.2166 111.177 69.1433 111.357 69.0781C111.536 69.0129 111.72 68.964 111.908 68.9233C112.095 68.8866 112.283 68.8662 112.471 68.8662C112.671 68.8662 112.842 68.8866 112.988 68.9274C113.134 68.9681 113.251 69.0211 113.347 69.0944C113.443 69.1677 113.509 69.2452 113.555 69.3429C113.601 69.4407 113.622 69.5426 113.622 69.6526C113.622 69.7056 113.618 69.7626 113.61 69.8197C113.601 69.8767 113.589 69.9297 113.568 69.9867C113.472 70.2515 113.343 70.4838 113.167 70.6916C112.996 70.8994 112.8 71.0827 112.583 71.2498C112.366 71.4168 112.129 71.5554 111.874 71.6817C111.62 71.808 111.361 71.918 111.102 72.0158C110.931 72.081 110.769 72.1258 110.61 72.1625C110.452 72.1951 110.297 72.2154 110.147 72.2154C109.997 72.2154 109.884 72.2032 109.809 72.1828C109.73 72.1625 109.663 72.1299 109.601 72.085C109.584 72.1095 109.559 72.138 109.534 72.1665C109.505 72.1951 109.475 72.2195 109.438 72.2439C109.4 72.2684 109.355 72.2888 109.3 72.301C109.25 72.3173 109.188 72.3254 109.125 72.3254C108.921 72.3254 108.77 72.2888 108.687 72.2154C108.599 72.1421 108.558 72.0443 108.558 71.9261C108.558 71.8813 108.562 71.8406 108.57 71.7958C108.579 71.7509 108.591 71.7061 108.612 71.6654L108.837 71.0012ZM112.287 69.457C112.116 69.457 111.933 69.4856 111.732 69.5467C111.532 69.6078 111.332 69.6811 111.127 69.7708C110.923 69.8604 110.731 69.9582 110.543 70.06C110.356 70.1619 110.189 70.2556 110.043 70.3371C110.001 70.439 109.955 70.5408 109.914 70.6386C109.872 70.7364 109.826 70.8342 109.784 70.932C109.742 71.0298 109.705 71.1316 109.672 71.2376C109.638 71.3394 109.609 71.4535 109.584 71.5676L109.546 71.7102L109.58 71.7795C109.655 71.7509 109.726 71.7265 109.788 71.7102C109.851 71.6939 109.913 71.6817 109.972 71.6694C110.03 71.6572 110.093 71.645 110.16 71.6328C110.226 71.6206 110.297 71.6043 110.377 71.5798C110.944 71.4209 111.419 71.205 111.807 70.9401C112.191 70.6712 112.454 70.3412 112.596 69.95C112.613 69.893 112.629 69.8441 112.638 69.8034C112.65 69.7585 112.654 69.7219 112.654 69.6852C112.654 69.6078 112.625 69.5507 112.567 69.5141C112.508 69.4774 112.416 69.457 112.287 69.457Z" fill="#F6F6F6"/>
<path d="M114.573 71.8569C114.619 71.6817 114.673 71.4861 114.736 71.2702C114.798 71.0583 114.861 70.8424 114.928 70.6264C114.995 70.4105 115.057 70.1945 115.116 69.9826C115.174 69.7708 115.228 69.5793 115.274 69.4041C115.27 69.3796 115.27 69.3552 115.27 69.3389C115.27 69.3185 115.27 69.2981 115.27 69.2778C115.27 69.2004 115.278 69.1229 115.291 69.0415C115.307 68.964 115.324 68.8907 115.349 68.8255C115.387 68.7277 115.433 68.6625 115.483 68.6299C115.533 68.5973 115.612 68.577 115.72 68.577C115.825 68.577 115.908 68.5933 115.971 68.6218C116.033 68.6503 116.083 68.691 116.121 68.7359C116.158 68.7848 116.179 68.8377 116.192 68.9029C116.204 68.964 116.208 69.0292 116.208 69.0944C116.208 69.1311 116.208 69.1678 116.204 69.2126C116.2 69.2574 116.2 69.29 116.2 69.3144C116.3 69.2411 116.409 69.1678 116.521 69.0903C116.634 69.0129 116.755 68.9437 116.884 68.8825C117.014 68.8214 117.147 68.7685 117.293 68.7277C117.435 68.687 117.585 68.6666 117.739 68.6666C117.802 68.6666 117.86 68.6707 117.923 68.6788C117.981 68.687 118.044 68.6951 118.107 68.7074C118.177 68.7196 118.253 68.7359 118.332 68.7603C118.411 68.7807 118.486 68.8133 118.557 68.85C118.678 68.9151 118.778 68.9926 118.857 69.0863C118.941 69.18 118.978 69.2778 118.978 69.3756C118.978 69.4122 118.966 69.453 118.945 69.4978C118.924 69.5426 118.895 69.5834 118.857 69.62C118.82 69.6567 118.774 69.6852 118.724 69.7097C118.674 69.7341 118.615 69.7463 118.557 69.7463C118.495 69.7463 118.419 69.7341 118.332 69.7137C118.244 69.6934 118.169 69.6648 118.111 69.6282C118.086 69.6119 118.061 69.5915 118.031 69.563C118.002 69.5345 117.977 69.5059 117.956 69.4774C117.931 69.4489 117.91 69.4245 117.89 69.4C117.869 69.3756 117.856 69.3593 117.844 69.3511C117.827 69.347 117.806 69.347 117.785 69.347C117.764 69.347 117.744 69.347 117.727 69.347C117.543 69.347 117.368 69.3796 117.201 69.4448C117.034 69.51 116.88 69.5915 116.734 69.6852C116.588 69.7789 116.455 69.8808 116.334 69.9908C116.213 70.0967 116.108 70.1945 116.017 70.2801C115.946 70.4838 115.862 70.7038 115.775 70.9361C115.687 71.1683 115.599 71.4087 115.512 71.6613V71.755C115.512 71.8324 115.508 71.9099 115.499 71.9873C115.491 72.0647 115.47 72.134 115.433 72.1951C115.395 72.2317 115.337 72.2643 115.261 72.2929C115.186 72.3173 115.103 72.3336 115.003 72.3336C114.853 72.3336 114.736 72.2969 114.661 72.2277C114.586 72.1584 114.548 72.0769 114.548 71.9832C114.548 71.9465 114.556 71.9017 114.573 71.8569Z" fill="#F6F6F6"/>
<path d="M119.25 70.7934C119.304 70.6386 119.387 70.4756 119.5 70.3004C119.612 70.1252 119.763 69.95 119.946 69.7748C120.13 69.5955 120.351 69.4244 120.609 69.2533C120.868 69.0821 121.168 68.9273 121.506 68.7766C121.561 68.7521 121.644 68.7277 121.757 68.7032C121.869 68.6788 121.986 68.6625 122.103 68.6543C122.245 68.5484 122.432 68.4954 122.674 68.4954C122.958 68.4954 123.196 68.5443 123.388 68.6462C123.58 68.748 123.742 68.8825 123.868 69.0536C123.905 69.1107 123.943 69.1636 123.98 69.2166C124.014 69.2696 124.043 69.3266 124.068 69.3836C124.093 69.4448 124.109 69.5059 124.126 69.5751C124.143 69.6444 124.147 69.7218 124.147 69.8074C124.147 70.007 124.101 70.2108 124.014 70.4186C123.922 70.6264 123.797 70.8301 123.63 71.0257C123.463 71.2212 123.263 71.4127 123.025 71.592C122.787 71.7713 122.524 71.9343 122.236 72.0809C122.04 72.1787 121.823 72.2561 121.59 72.3091C121.352 72.3621 121.089 72.3906 120.797 72.3906C120.518 72.3906 120.276 72.3661 120.071 72.3132C119.867 72.2602 119.696 72.1869 119.562 72.0932C119.425 71.9954 119.325 71.8813 119.258 71.7468C119.191 71.6124 119.158 71.4616 119.158 71.2986C119.149 71.1438 119.183 70.9727 119.25 70.7934ZM120.151 70.8423C120.13 70.8993 120.113 70.9564 120.105 71.0094C120.096 71.0623 120.092 71.1112 120.092 71.1601C120.092 71.2416 120.109 71.3231 120.138 71.3924C120.167 71.4657 120.217 71.5268 120.288 71.5798C120.355 71.6327 120.443 71.6735 120.547 71.702C120.651 71.7305 120.776 71.7468 120.922 71.7468C121.198 71.7468 121.452 71.6979 121.69 71.6001C121.928 71.5024 122.136 71.3801 122.32 71.2334C122.503 71.0868 122.658 70.9279 122.783 70.7608C122.908 70.5938 122.996 70.4389 123.046 70.2963C123.079 70.2067 123.108 70.1252 123.129 70.0478C123.154 69.9704 123.163 69.897 123.163 69.8318C123.163 69.7666 123.146 69.7055 123.112 69.6485C123.079 69.5914 123.033 69.5263 122.979 69.457C122.946 69.4122 122.912 69.3674 122.883 69.3225C122.85 69.2736 122.82 69.2288 122.795 69.184C122.766 69.2207 122.737 69.2492 122.704 69.2777C122.67 69.3022 122.62 69.3266 122.558 69.3511C122.491 69.3714 122.403 69.3918 122.291 69.4081C122.178 69.4244 122.032 69.4407 121.853 69.4529C121.732 69.4814 121.611 69.5222 121.49 69.5833C121.369 69.6403 121.248 69.7096 121.131 69.787C121.014 69.8644 120.902 69.95 120.793 70.0396C120.685 70.1293 120.589 70.223 120.505 70.3208C120.422 70.4145 120.347 70.5082 120.284 70.6019C120.222 70.6956 120.176 70.7649 120.151 70.8423Z" fill="#F6F6F6"/>
<path d="M133.124 72.085C133.124 72.0117 133.137 71.922 133.162 71.8202C133.187 71.7183 133.199 71.592 133.199 71.4372C133.078 71.4983 132.949 71.5716 132.803 71.6531C132.657 71.7346 132.507 71.8161 132.353 71.8935C132.198 71.9709 132.044 72.0321 131.89 72.085C131.735 72.138 131.593 72.1624 131.46 72.1624C131.351 72.1624 131.247 72.1502 131.151 72.1298C131.055 72.1054 130.972 72.0769 130.901 72.0402C130.709 71.9343 130.571 71.8283 130.484 71.7224C130.4 71.6165 130.359 71.4942 130.359 71.3516C130.359 71.2864 130.367 71.2212 130.384 71.156C130.4 71.0868 130.425 71.0094 130.459 70.9197C130.596 70.5204 130.83 70.1497 131.168 69.8074C131.506 69.4652 131.919 69.1759 132.411 68.9355C132.603 68.8418 132.795 68.7806 132.987 68.7562C133.179 68.7318 133.366 68.7155 133.558 68.7155C133.642 68.7155 133.733 68.7195 133.838 68.7277C133.942 68.7358 134.034 68.744 134.117 68.7521C134.201 68.7399 134.267 68.7318 134.322 68.7277C134.376 68.7236 134.43 68.7195 134.488 68.7195C134.597 68.7195 134.689 68.7277 134.76 68.7481C134.83 68.7684 134.889 68.7969 134.935 68.8295C134.976 68.8621 135.01 68.9029 135.031 68.9477C135.052 68.9925 135.06 69.0373 135.06 69.0862C135.06 69.1514 135.043 69.2166 135.018 69.2737C134.993 69.3307 134.96 69.3918 134.931 69.4529L134.213 71.4535C134.201 71.5635 134.188 71.6613 134.176 71.755C134.163 71.8446 134.142 71.9302 134.109 72.0076C134.096 72.032 134.084 72.0606 134.067 72.0932C134.05 72.1258 134.025 72.1584 133.988 72.191C133.95 72.2235 133.904 72.248 133.85 72.2724C133.796 72.2969 133.725 72.305 133.637 72.305C133.525 72.305 133.437 72.301 133.37 72.2887C133.304 72.2806 133.254 72.2643 133.216 72.2439C133.179 72.2235 133.158 72.2032 133.145 72.1747C133.133 72.1502 133.124 72.1176 133.124 72.085ZM131.326 70.936C131.31 70.9727 131.297 71.0216 131.28 71.0868C131.264 71.152 131.255 71.2172 131.255 71.2824C131.255 71.3516 131.268 71.4127 131.297 71.4657C131.326 71.5187 131.389 71.5472 131.489 71.5472C131.639 71.5472 131.781 71.5227 131.915 71.4779C132.048 71.4331 132.169 71.3761 132.286 71.3109C132.44 71.2212 132.599 71.1234 132.761 71.0134C132.924 70.9034 133.074 70.7893 133.216 70.6671C133.358 70.5449 133.487 70.4226 133.596 70.2923C133.704 70.166 133.788 70.0356 133.838 69.9093C133.867 69.8359 133.892 69.7504 133.913 69.6567C133.934 69.5589 133.942 69.4733 133.942 69.4C133.942 69.3674 133.929 69.3348 133.909 69.3022C133.888 69.2696 133.846 69.2533 133.783 69.2533C133.608 69.2533 133.429 69.2777 133.249 69.3266C133.07 69.3755 132.899 69.4407 132.732 69.5222C132.565 69.6037 132.407 69.6974 132.257 69.8074C132.106 69.9174 131.969 70.0356 131.848 70.1619C131.727 70.2882 131.618 70.4145 131.531 70.549C131.439 70.6793 131.372 70.8097 131.326 70.936Z" fill="#F6F6F6"/>
<path d="M135.402 73.6496C135.473 73.4459 135.54 73.2585 135.594 73.0874C135.648 72.9162 135.702 72.7573 135.748 72.6066C135.794 72.4558 135.84 72.3092 135.882 72.1706C135.923 72.0321 135.965 71.8895 136.007 71.7469C136.049 71.6043 136.09 71.4535 136.136 71.3028C136.182 71.152 136.232 70.9809 136.286 70.7975L136.545 69.9175C136.587 69.7667 136.616 69.6404 136.633 69.5304C136.649 69.4244 136.658 69.3226 136.658 69.2329C136.658 69.1352 136.662 69.0496 136.67 68.9763C136.679 68.9029 136.695 68.8377 136.729 68.7848C136.762 68.7318 136.808 68.6951 136.87 68.6666C136.933 68.6422 137.021 68.6259 137.133 68.6259C137.296 68.6259 137.421 68.6422 137.513 68.6748C137.605 68.7073 137.671 68.7481 137.713 68.797C137.755 68.8459 137.784 68.907 137.792 68.9722C137.801 69.0374 137.805 69.1066 137.805 69.1759C137.926 69.1148 138.072 69.0618 138.235 69.0129C138.397 68.964 138.568 68.9233 138.748 68.8948C138.923 68.8622 139.102 68.8377 139.286 68.8214C139.469 68.8051 139.636 68.7929 139.795 68.7929C140.053 68.7929 140.283 68.8255 140.479 68.8907C140.675 68.9559 140.838 69.0415 140.967 69.1474C141.096 69.2533 141.196 69.3796 141.259 69.5182C141.326 69.6567 141.355 69.8034 141.355 69.9541C141.355 70.1293 141.313 70.2923 141.234 70.4471C141.155 70.602 141.046 70.7446 140.909 70.879C140.771 71.0135 140.612 71.1398 140.429 71.2539C140.245 71.368 140.049 71.4739 139.836 71.5717C139.624 71.6695 139.407 71.755 139.181 71.8365C138.956 71.918 138.731 71.9873 138.51 72.0525C138.36 72.0973 138.222 72.1258 138.089 72.1502C137.955 72.1747 137.838 72.1828 137.734 72.1828C137.588 72.1828 137.442 72.1706 137.304 72.1502C137.167 72.1258 137.029 72.0891 136.9 72.0362C136.829 72.2073 136.766 72.3743 136.716 72.5292C136.666 72.6881 136.628 72.8266 136.599 72.9488C136.583 73.0263 136.562 73.1037 136.533 73.1892C136.507 73.2748 136.482 73.3563 136.457 73.4337C136.432 73.5111 136.407 73.5885 136.387 73.6578C136.361 73.7271 136.345 73.7882 136.328 73.8411C136.316 73.8697 136.291 73.8982 136.249 73.9186C136.207 73.9389 136.157 73.9552 136.099 73.9715C136.04 73.9878 135.982 73.996 135.923 74C135.865 74.0082 135.811 74.0082 135.765 74.0082C135.498 74.0082 135.364 73.9349 135.364 73.7882C135.377 73.7393 135.385 73.6985 135.402 73.6496ZM137.083 71.4494C137.137 71.4535 137.196 71.4617 137.258 71.4698C137.321 71.478 137.379 71.4861 137.438 71.4943C137.496 71.5024 137.546 71.5106 137.588 71.5146C137.63 71.5187 137.659 71.5228 137.671 71.5228C137.742 71.5228 137.817 71.5146 137.901 71.5024C137.984 71.4902 138.072 71.4739 138.155 71.4535C138.239 71.4331 138.322 71.4128 138.401 71.3883C138.481 71.3639 138.552 71.3394 138.614 71.3191C138.789 71.2539 138.981 71.1805 139.181 71.0909C139.382 71.0013 139.569 70.8994 139.74 70.7812C139.912 70.6631 140.053 70.5327 140.166 70.3901C140.279 70.2475 140.333 70.0845 140.333 69.9134C140.333 69.8441 140.32 69.7749 140.295 69.7178C140.27 69.6608 140.233 69.6037 140.183 69.5589C140.133 69.5141 140.066 69.4774 139.987 69.4489C139.907 69.4204 139.807 69.4082 139.695 69.4082C139.574 69.4082 139.457 69.4122 139.348 69.4244C139.24 69.4367 139.131 69.453 139.027 69.4815C138.923 69.51 138.819 69.5385 138.714 69.5793C138.61 69.62 138.502 69.6648 138.389 69.7219C138.289 69.7789 138.172 69.8319 138.047 69.8767C137.922 69.9215 137.784 69.9501 137.634 69.9623L137.083 71.4494Z" fill="#F6F6F6"/>
<path d="M142.252 71.8569C142.298 71.6817 142.352 71.4861 142.414 71.2702C142.477 71.0583 142.54 70.8424 142.606 70.6264C142.673 70.4105 142.736 70.1945 142.794 69.9826C142.853 69.7708 142.907 69.5793 142.953 69.4041C142.948 69.3796 142.948 69.3552 142.948 69.3389C142.948 69.3185 142.948 69.2981 142.948 69.2778C142.948 69.2004 142.957 69.1229 142.969 69.0415C142.986 68.964 143.003 68.8907 143.028 68.8255C143.065 68.7277 143.111 68.6625 143.161 68.6299C143.211 68.5973 143.291 68.577 143.399 68.577C143.503 68.577 143.587 68.5933 143.649 68.6218C143.712 68.6503 143.762 68.691 143.799 68.7359C143.837 68.7848 143.858 68.8377 143.87 68.9029C143.883 68.964 143.887 69.0292 143.887 69.0944C143.887 69.1311 143.887 69.1678 143.883 69.2126C143.879 69.2574 143.879 69.29 143.879 69.3144C143.979 69.2411 144.087 69.1678 144.2 69.0903C144.313 69.0129 144.434 68.9437 144.563 68.8825C144.692 68.8214 144.826 68.7685 144.972 68.7277C145.114 68.687 145.264 68.6666 145.418 68.6666C145.481 68.6666 145.539 68.6707 145.602 68.6788C145.66 68.687 145.723 68.6951 145.785 68.7074C145.856 68.7196 145.931 68.7359 146.01 68.7603C146.09 68.7807 146.165 68.8133 146.236 68.85C146.357 68.9151 146.457 68.9926 146.536 69.0863C146.619 69.18 146.657 69.2778 146.657 69.3756C146.657 69.4122 146.645 69.453 146.624 69.4978C146.603 69.5426 146.574 69.5834 146.536 69.62C146.498 69.6567 146.453 69.6852 146.403 69.7097C146.352 69.7341 146.294 69.7463 146.236 69.7463C146.173 69.7463 146.098 69.7341 146.01 69.7137C145.923 69.6934 145.848 69.6648 145.789 69.6282C145.764 69.6119 145.739 69.5915 145.71 69.563C145.681 69.5345 145.656 69.5059 145.635 69.4774C145.61 69.4489 145.589 69.4245 145.568 69.4C145.547 69.3756 145.535 69.3593 145.522 69.3511C145.506 69.347 145.485 69.347 145.464 69.347C145.443 69.347 145.422 69.347 145.406 69.347C145.222 69.347 145.047 69.3796 144.88 69.4448C144.713 69.51 144.559 69.5915 144.413 69.6852C144.267 69.7789 144.133 69.8808 144.012 69.9908C143.891 70.0967 143.787 70.1945 143.695 70.2801C143.624 70.4838 143.541 70.7038 143.453 70.9361C143.366 71.1683 143.278 71.4087 143.19 71.6613V71.755C143.19 71.8324 143.186 71.9099 143.178 71.9873C143.17 72.0647 143.149 72.134 143.111 72.1951C143.074 72.2317 143.015 72.2643 142.94 72.2929C142.865 72.3173 142.782 72.3336 142.681 72.3336C142.531 72.3336 142.414 72.2969 142.339 72.2277C142.264 72.1584 142.227 72.0769 142.227 71.9832C142.227 71.9465 142.235 71.9017 142.252 71.8569Z" fill="#F6F6F6"/>
<path d="M146.799 70.7812C146.799 70.6712 146.841 70.5816 146.924 70.5041C147.007 70.4267 147.116 70.3778 147.254 70.3534C147.291 70.2964 147.354 70.223 147.437 70.1293C147.521 70.0356 147.625 69.9297 147.746 69.8196C147.867 69.7096 148.009 69.5955 148.167 69.4855C148.326 69.3715 148.497 69.2696 148.689 69.18C148.88 69.0862 149.081 69.0129 149.302 68.9559C149.523 68.8988 149.752 68.8703 149.998 68.8703C150.207 68.8703 150.391 68.8866 150.545 68.9233C150.699 68.9599 150.829 69.0088 150.929 69.07C151.029 69.1351 151.104 69.2085 151.158 69.294C151.212 69.3796 151.233 69.4774 151.233 69.5752C151.233 69.6607 151.217 69.7422 151.183 69.8237C151.133 69.9663 151.037 70.0886 150.9 70.1945C150.762 70.3004 150.599 70.3941 150.416 70.4756C150.228 70.5571 150.028 70.6223 149.807 70.6753C149.59 70.7282 149.369 70.7731 149.152 70.8097C148.931 70.8464 148.722 70.8709 148.522 70.8912C148.317 70.9116 148.142 70.9238 147.996 70.936C147.963 70.9809 147.934 71.0379 147.913 71.1072C147.892 71.1764 147.879 71.2457 147.879 71.3109C147.879 71.4576 147.963 71.5717 148.13 71.6531C148.296 71.7346 148.526 71.7754 148.818 71.7754C148.989 71.7754 149.152 71.7632 149.306 71.7346C149.46 71.7061 149.611 71.6735 149.748 71.6328C149.886 71.592 150.019 71.5472 150.14 71.4942C150.261 71.4453 150.374 71.3965 150.478 71.3476C150.608 71.2864 150.733 71.2375 150.849 71.1927C150.966 71.152 151.071 71.1316 151.162 71.1316C151.254 71.1316 151.313 71.1479 151.338 71.1805C151.363 71.2131 151.375 71.2457 151.375 71.2824C151.375 71.3027 151.375 71.3231 151.371 71.3394C151.371 71.3598 151.367 71.3761 151.363 71.3883C151.346 71.4535 151.308 71.5187 151.254 71.5839C151.2 71.6491 151.133 71.7061 151.05 71.755C150.674 71.9628 150.286 72.1095 149.89 72.1991C149.494 72.2888 149.072 72.3336 148.622 72.3336C148.534 72.3336 148.434 72.3295 148.317 72.3214C148.201 72.3132 148.08 72.2969 147.95 72.2765C147.825 72.2521 147.7 72.2195 147.575 72.1787C147.454 72.1339 147.341 72.0769 147.245 72.0076C147.149 71.9384 147.07 71.8487 147.012 71.7469C146.953 71.645 146.924 71.5187 146.924 71.372C146.924 71.2538 146.949 71.1194 146.995 70.9727C146.949 70.9686 146.903 70.9523 146.861 70.9197C146.82 70.879 146.799 70.8383 146.799 70.7812ZM150.19 69.73C150.199 69.7178 150.203 69.7056 150.203 69.6974C150.203 69.6893 150.203 69.677 150.203 69.6648C150.203 69.5955 150.165 69.5467 150.094 69.51C150.023 69.4774 149.936 69.457 149.836 69.457C149.677 69.457 149.519 69.4855 149.369 69.5426C149.214 69.5996 149.072 69.673 148.935 69.7626C148.797 69.8522 148.68 69.9419 148.576 70.0437C148.472 70.1456 148.388 70.2352 148.334 70.3167C148.593 70.3004 148.835 70.276 149.052 70.2434C149.268 70.2108 149.456 70.166 149.619 70.113C149.777 70.06 149.911 70.003 150.011 69.9378C150.099 69.8726 150.161 69.8033 150.19 69.73Z" fill="#F6F6F6"/>
<path d="M156.21 69.131C156.085 69.131 155.947 69.1514 155.805 69.1922C155.663 69.2329 155.509 69.2899 155.355 69.3592C155.2 69.4285 155.042 69.51 154.879 69.5996C154.717 69.6892 154.562 69.7829 154.404 69.8807C154.324 69.9296 154.249 69.9744 154.174 70.0111C154.103 70.0519 154.028 70.0804 153.957 70.1008C153.907 70.1578 153.853 70.2352 153.799 70.3289C153.745 70.4226 153.686 70.5286 153.632 70.6386C153.578 70.7486 153.528 70.8667 153.478 70.9849C153.428 71.1031 153.39 71.2131 153.357 71.3149C153.34 71.3679 153.323 71.4209 153.315 71.4698C153.302 71.5187 153.29 71.5757 153.277 71.6327C153.261 71.6898 153.244 71.7509 153.227 71.8161C153.206 71.8813 153.181 71.9546 153.156 72.0361C153.14 72.085 153.11 72.1217 153.069 72.1502C153.027 72.1787 152.985 72.2032 152.944 72.2154C152.902 72.2317 152.86 72.2398 152.818 72.2439C152.777 72.248 152.748 72.248 152.727 72.248C152.589 72.248 152.476 72.2235 152.389 72.1787C152.301 72.1339 152.259 72.0443 152.259 71.9139C152.259 71.8772 152.259 71.8405 152.264 71.8039C152.268 71.7672 152.28 71.7224 152.297 71.6735C152.376 71.4331 152.456 71.2172 152.526 71.0257C152.597 70.8342 152.677 70.6549 152.752 70.4919C152.827 70.3289 152.906 70.1741 152.981 70.0274C153.056 69.8807 153.14 69.7341 153.219 69.5874C153.298 69.4407 153.386 69.2859 153.473 69.127C153.561 68.9681 153.657 68.7929 153.757 68.6014C153.778 68.5565 153.836 68.5239 153.928 68.4914C154.02 68.4628 154.12 68.4465 154.224 68.4465C154.362 68.4465 154.475 68.4669 154.562 68.5117C154.65 68.5565 154.696 68.6177 154.696 68.6991C154.696 68.7073 154.692 68.7195 154.683 68.7399C154.675 68.7603 154.666 68.7806 154.65 68.8051L154.412 69.2003C154.562 69.1147 154.721 69.0333 154.888 68.9477C155.054 68.8621 155.221 68.7888 155.392 68.7236C155.563 68.6584 155.739 68.6014 155.914 68.5606C156.089 68.5199 156.26 68.4995 156.431 68.4995C156.777 68.4995 157.048 68.5647 157.245 68.6951C157.441 68.8255 157.537 69.0292 157.537 69.3022C157.537 69.4611 157.499 69.6363 157.42 69.8359C157.34 70.0356 157.245 70.2515 157.128 70.4797C157.011 70.7078 156.886 70.9482 156.748 71.2009C156.61 71.4535 156.485 71.7102 156.373 71.9709C156.339 72.0402 156.306 72.1013 156.273 72.1502C156.239 72.1991 156.197 72.2358 156.152 72.2643C156.106 72.2928 156.047 72.3132 155.985 72.3254C155.922 72.3376 155.843 72.3458 155.755 72.3458C155.613 72.3458 155.518 72.3295 155.463 72.2887C155.409 72.2521 155.38 72.195 155.38 72.1135C155.38 72.0443 155.397 71.9546 155.426 71.8528C155.455 71.7509 155.501 71.6368 155.555 71.5146C155.609 71.3924 155.676 71.262 155.751 71.1234C155.826 70.9849 155.905 70.8423 155.993 70.6997C156.064 70.5815 156.131 70.4675 156.197 70.3493C156.264 70.2311 156.323 70.1211 156.377 70.0111C156.431 69.9011 156.473 69.7992 156.506 69.7015C156.54 69.6037 156.556 69.51 156.556 69.4285C156.556 69.3511 156.531 69.2818 156.481 69.2207C156.435 69.1596 156.343 69.131 156.21 69.131Z" fill="#F6F6F6"/>
<path d="M158.433 70.9442C158.479 70.8057 158.542 70.6712 158.621 70.5327C158.7 70.3941 158.796 70.2597 158.913 70.1252C159.03 69.9908 159.168 69.8604 159.326 69.7341C159.485 69.6078 159.672 69.4855 159.885 69.3674C160.031 69.2859 160.181 69.2085 160.344 69.1392C160.503 69.0659 160.669 69.0047 160.836 68.9518C161.003 68.8988 161.17 68.8581 161.337 68.8255C161.504 68.7929 161.671 68.7766 161.833 68.7766C161.954 68.7766 162.059 68.7847 162.15 68.797C162.242 68.8092 162.33 68.8296 162.413 68.854C162.451 68.7644 162.547 68.528 162.705 68.141C162.864 67.7539 163.056 67.2161 163.281 66.5234C163.318 66.4542 163.377 66.3971 163.448 66.3523C163.519 66.3075 163.606 66.283 163.706 66.283C163.777 66.283 163.848 66.2871 163.919 66.2952C163.986 66.3034 164.048 66.3238 164.103 66.3482C164.157 66.3767 164.199 66.4093 164.232 66.4582C164.265 66.503 164.282 66.5642 164.282 66.6375L163.193 69.6852C163.16 69.7707 163.131 69.8889 163.101 70.0315C163.072 70.1741 163.047 70.3289 163.022 70.4919C162.997 70.6549 162.976 70.8138 162.964 70.9727C162.951 71.1316 162.943 71.2661 162.943 71.3802C162.943 71.5228 162.918 71.6613 162.872 71.7998C162.851 71.8609 162.826 71.9098 162.805 71.9546C162.78 71.9954 162.751 72.0321 162.709 72.0565C162.668 72.085 162.622 72.1013 162.559 72.1136C162.501 72.1258 162.426 72.1298 162.334 72.1298C162.23 72.1298 162.146 72.1217 162.092 72.1054C162.038 72.0891 161.992 72.0687 161.963 72.0443C161.933 72.0198 161.917 71.9872 161.913 71.9546C161.908 71.9221 161.904 71.8854 161.9 71.8446C161.9 71.8039 161.896 71.7631 161.888 71.7224C161.879 71.6817 161.867 71.6409 161.842 71.6042C161.8 71.6246 161.737 71.6491 161.662 71.6857C161.587 71.7183 161.508 71.7509 161.433 71.7876C161.358 71.8243 161.283 71.8528 161.212 71.8813C161.141 71.9098 161.091 71.9302 161.062 71.9424C160.978 71.975 160.886 72.0117 160.778 72.0484C160.674 72.085 160.561 72.1176 160.44 72.1502C160.319 72.1828 160.194 72.2073 160.06 72.2276C159.927 72.248 159.798 72.2562 159.66 72.2562C159.497 72.2562 159.339 72.2358 159.184 72.1991C159.03 72.1624 158.892 72.1013 158.771 72.0239C158.65 71.9465 158.554 71.8446 158.479 71.7265C158.404 71.6083 158.371 71.4657 158.371 71.3027C158.371 71.2457 158.375 71.1887 158.383 71.1316C158.392 71.0786 158.408 71.0134 158.433 70.9442ZM159.372 70.9157C159.343 70.9931 159.33 71.0664 159.33 71.1357C159.33 71.209 159.339 71.2783 159.36 71.3435C159.376 71.4087 159.41 71.4657 159.46 71.5105C159.51 71.5594 159.572 71.5961 159.656 71.6246C159.739 71.6531 159.843 71.6694 159.973 71.6694C160.044 71.6694 160.123 71.6613 160.206 71.6409C160.29 71.6246 160.373 71.6002 160.453 71.5757C160.532 71.5513 160.611 71.5228 160.682 71.4942C160.753 71.4657 160.811 71.4372 160.866 71.4168C161.003 71.3516 161.128 71.2905 161.249 71.2294C161.366 71.1683 161.475 71.1031 161.566 71.0338C161.658 70.9646 161.742 70.8831 161.812 70.7975C161.883 70.7119 161.942 70.6101 161.983 70.496C162.021 70.3941 162.05 70.3004 162.079 70.2189C162.109 70.1374 162.129 70.0519 162.155 69.9745C162.175 69.893 162.196 69.8115 162.213 69.73C162.23 69.6485 162.25 69.5548 162.267 69.4529C162.25 69.4366 162.225 69.4244 162.192 69.4081C162.163 69.3959 162.117 69.3877 162.054 69.3877C161.908 69.3877 161.75 69.404 161.579 69.4407C161.404 69.4733 161.228 69.5222 161.045 69.5874C160.861 69.6526 160.682 69.7259 160.507 69.8196C160.332 69.9093 160.169 70.0111 160.019 70.1252C159.868 70.2393 159.739 70.3615 159.627 70.496C159.506 70.6223 159.422 70.7649 159.372 70.9157Z" fill="#F6F6F6"/>
<path d="M164.545 71.5513C164.599 71.4046 164.666 71.2335 164.741 71.0379C164.816 70.8423 164.895 70.6386 164.983 70.4186C165.066 70.2026 165.154 69.9785 165.242 69.7504C165.329 69.5222 165.408 69.3022 165.483 69.0862C165.488 69.0781 165.5 69.0577 165.521 69.0333C165.542 69.0088 165.575 68.9844 165.613 68.9599C165.65 68.9355 165.705 68.9151 165.763 68.8988C165.826 68.8825 165.896 68.8703 165.98 68.8703C166.042 68.8703 166.101 68.8744 166.159 68.8825C166.218 68.8907 166.268 68.9029 166.314 68.9233C166.36 68.9396 166.393 68.964 166.422 68.9925C166.447 69.021 166.464 69.0536 166.464 69.0944C166.464 69.1025 166.464 69.1107 166.464 69.1188C166.464 69.127 166.464 69.1351 166.46 69.1433L166.309 69.5467C166.138 69.9989 165.967 70.4471 165.792 70.9034C165.617 71.3557 165.446 71.812 165.279 72.2684C165.271 72.2847 165.262 72.301 165.246 72.3254C165.229 72.3499 165.212 72.3702 165.187 72.3947C165.162 72.4191 165.133 72.4354 165.096 72.4517C165.058 72.468 165.016 72.4762 164.966 72.4762C164.874 72.4762 164.791 72.4639 164.716 72.4354C164.645 72.4069 164.582 72.3743 164.532 72.3336C164.482 72.2928 164.445 72.248 164.42 72.1991C164.395 72.1502 164.382 72.1054 164.382 72.0606C164.382 72.0484 164.382 72.0361 164.382 72.028C164.382 72.0198 164.386 72.0076 164.395 71.9954L164.545 71.5513ZM165.963 67.6235C165.98 67.5705 166.013 67.5054 166.059 67.4279C166.105 67.3505 166.188 67.2853 166.309 67.2242C166.368 67.1998 166.439 67.1794 166.522 67.1631C166.606 67.1427 166.664 67.1346 166.702 67.1346C166.739 67.1346 166.777 67.1427 166.814 67.1631C166.852 67.1835 166.885 67.1998 166.914 67.2201C166.952 67.2446 166.985 67.2731 167.019 67.3057C167.11 67.3098 167.169 67.3342 167.194 67.375C167.219 67.4157 167.236 67.4646 167.236 67.5176C167.236 67.5583 167.231 67.595 167.219 67.6276C167.206 67.6602 167.198 67.6887 167.19 67.7091C167.169 67.762 167.127 67.8109 167.065 67.8558C167.002 67.9006 166.931 67.9372 166.852 67.9698C166.773 68.0024 166.689 68.0269 166.601 68.0432C166.514 68.0595 166.439 68.0676 166.372 68.0676C166.289 68.0676 166.226 68.0595 166.18 68.0391C166.134 68.0187 166.076 67.978 166.009 67.9087C165.967 67.8721 165.947 67.8395 165.942 67.8191C165.938 67.7987 165.934 67.7783 165.934 67.762C165.934 67.7335 165.938 67.7091 165.942 67.6887C165.947 67.6683 165.955 67.6439 165.963 67.6235Z" fill="#F6F6F6"/>
<path d="M167.29 70.7812C167.29 70.6712 167.331 70.5816 167.415 70.5041C167.498 70.4267 167.607 70.3778 167.744 70.3534C167.782 70.2964 167.845 70.223 167.928 70.1293C168.011 70.0356 168.116 69.9297 168.237 69.8196C168.358 69.7096 168.5 69.5955 168.658 69.4855C168.817 69.3715 168.988 69.2696 169.18 69.18C169.371 69.0862 169.572 69.0129 169.793 68.9559C170.014 68.8988 170.243 68.8703 170.489 68.8703C170.698 68.8703 170.882 68.8866 171.036 68.9233C171.19 68.9599 171.32 69.0088 171.42 69.07C171.52 69.1351 171.595 69.2085 171.649 69.294C171.703 69.3796 171.724 69.4774 171.724 69.5752C171.724 69.6607 171.708 69.7422 171.674 69.8237C171.624 69.9663 171.528 70.0886 171.39 70.1945C171.253 70.3004 171.09 70.3941 170.907 70.4756C170.719 70.5571 170.519 70.6223 170.298 70.6753C170.081 70.7282 169.859 70.7731 169.643 70.8097C169.421 70.8464 169.213 70.8709 169.013 70.8912C168.808 70.9116 168.633 70.9238 168.487 70.936C168.454 70.9809 168.424 71.0379 168.404 71.1072C168.383 71.1764 168.37 71.2457 168.37 71.3109C168.37 71.4576 168.454 71.5717 168.621 71.6531C168.787 71.7346 169.017 71.7754 169.309 71.7754C169.48 71.7754 169.643 71.7632 169.797 71.7346C169.951 71.7061 170.101 71.6735 170.239 71.6328C170.377 71.592 170.51 71.5472 170.631 71.4942C170.752 71.4453 170.865 71.3965 170.969 71.3476C171.098 71.2864 171.224 71.2375 171.34 71.1927C171.457 71.152 171.562 71.1316 171.653 71.1316C171.745 71.1316 171.803 71.1479 171.828 71.1805C171.854 71.2131 171.866 71.2457 171.866 71.2824C171.866 71.3027 171.866 71.3231 171.862 71.3394C171.862 71.3598 171.858 71.3761 171.854 71.3883C171.837 71.4535 171.799 71.5187 171.745 71.5839C171.691 71.6491 171.624 71.7061 171.541 71.755C171.165 71.9628 170.777 72.1095 170.381 72.1991C169.985 72.2888 169.563 72.3336 169.113 72.3336C169.025 72.3336 168.925 72.3295 168.808 72.3214C168.691 72.3132 168.57 72.2969 168.441 72.2765C168.316 72.2521 168.191 72.2195 168.066 72.1787C167.945 72.1339 167.832 72.0769 167.736 72.0076C167.64 71.9384 167.561 71.8487 167.503 71.7469C167.444 71.645 167.415 71.5187 167.415 71.372C167.415 71.2538 167.44 71.1194 167.486 70.9727C167.44 70.9686 167.394 70.9523 167.352 70.9197C167.311 70.879 167.29 70.8383 167.29 70.7812ZM170.685 69.73C170.694 69.7178 170.698 69.7056 170.698 69.6974C170.698 69.6893 170.698 69.677 170.698 69.6648C170.698 69.5955 170.66 69.5467 170.59 69.51C170.519 69.4774 170.431 69.457 170.331 69.457C170.172 69.457 170.014 69.4855 169.864 69.5426C169.709 69.5996 169.567 69.673 169.43 69.7626C169.292 69.8522 169.175 69.9419 169.071 70.0437C168.967 70.1456 168.883 70.2352 168.829 70.3167C169.088 70.3004 169.33 70.276 169.547 70.2434C169.764 70.2108 169.951 70.166 170.114 70.113C170.272 70.06 170.406 70.003 170.506 69.9378C170.594 69.8726 170.656 69.8033 170.685 69.73Z" fill="#F6F6F6"/>
<path d="M176.705 69.131C176.58 69.131 176.442 69.1514 176.3 69.1922C176.159 69.2329 176.004 69.2899 175.85 69.3592C175.696 69.4285 175.537 69.51 175.374 69.5996C175.212 69.6892 175.057 69.7829 174.899 69.8807C174.82 69.9296 174.744 69.9744 174.669 70.0111C174.598 70.0519 174.523 70.0804 174.452 70.1008C174.402 70.1578 174.348 70.2352 174.294 70.3289C174.24 70.4226 174.181 70.5286 174.127 70.6386C174.073 70.7486 174.023 70.8667 173.973 70.9849C173.923 71.1031 173.885 71.2131 173.852 71.3149C173.835 71.3679 173.818 71.4209 173.81 71.4698C173.797 71.5187 173.785 71.5757 173.772 71.6327C173.756 71.6898 173.739 71.7509 173.722 71.8161C173.702 71.8813 173.677 71.9546 173.651 72.0361C173.635 72.085 173.606 72.1217 173.564 72.1502C173.522 72.1787 173.48 72.2032 173.439 72.2154C173.397 72.2317 173.355 72.2398 173.314 72.2439C173.272 72.248 173.243 72.248 173.222 72.248C173.084 72.248 172.972 72.2235 172.884 72.1787C172.796 72.1339 172.755 72.0443 172.755 71.9139C172.755 71.8772 172.755 71.8405 172.759 71.8039C172.763 71.7672 172.775 71.7224 172.792 71.6735C172.871 71.4331 172.951 71.2172 173.022 71.0257C173.092 70.8342 173.172 70.6549 173.247 70.4919C173.322 70.3289 173.401 70.1741 173.476 70.0274C173.551 69.8807 173.635 69.7341 173.714 69.5874C173.793 69.4407 173.881 69.2859 173.969 69.127C174.056 68.9681 174.152 68.7929 174.252 68.6014C174.273 68.5565 174.331 68.5239 174.423 68.4914C174.515 68.4628 174.615 68.4465 174.719 68.4465C174.857 68.4465 174.97 68.4669 175.057 68.5117C175.145 68.5565 175.191 68.6177 175.191 68.6991C175.191 68.7073 175.187 68.7195 175.178 68.7399C175.17 68.7603 175.162 68.7806 175.145 68.8051L174.907 69.2003C175.057 69.1147 175.216 69.0333 175.383 68.9477C175.55 68.8621 175.716 68.7888 175.887 68.7236C176.059 68.6584 176.234 68.6014 176.409 68.5606C176.584 68.5199 176.755 68.4995 176.926 68.4995C177.272 68.4995 177.544 68.5647 177.74 68.6951C177.936 68.8255 178.032 69.0292 178.032 69.3022C178.032 69.4611 177.994 69.6363 177.915 69.8359C177.836 70.0356 177.74 70.2515 177.623 70.4797C177.506 70.7078 177.381 70.9482 177.243 71.2009C177.106 71.4535 176.98 71.7102 176.868 71.9709C176.834 72.0402 176.801 72.1013 176.768 72.1502C176.734 72.1991 176.693 72.2358 176.647 72.2643C176.601 72.2928 176.542 72.3132 176.48 72.3254C176.417 72.3376 176.338 72.3458 176.25 72.3458C176.109 72.3458 176.013 72.3295 175.958 72.2887C175.904 72.2521 175.875 72.195 175.875 72.1135C175.875 72.0443 175.892 71.9546 175.921 71.8528C175.95 71.7509 175.996 71.6368 176.05 71.5146C176.104 71.3924 176.171 71.262 176.246 71.1234C176.321 70.9849 176.401 70.8423 176.488 70.6997C176.559 70.5815 176.626 70.4675 176.693 70.3493C176.759 70.2311 176.818 70.1211 176.872 70.0111C176.926 69.9011 176.968 69.7992 177.001 69.7015C177.035 69.6037 177.051 69.51 177.051 69.4285C177.051 69.3511 177.026 69.2818 176.976 69.2207C176.93 69.1596 176.839 69.131 176.705 69.131Z" fill="#F6F6F6"/>
<path d="M178.929 70.9442C178.974 70.8057 179.037 70.6712 179.116 70.5327C179.196 70.3941 179.291 70.2597 179.408 70.1252C179.525 69.9908 179.663 69.8604 179.821 69.7341C179.98 69.6078 180.168 69.4855 180.38 69.3674C180.526 69.2859 180.676 69.2085 180.839 69.1392C180.998 69.0659 181.165 69.0047 181.331 68.9518C181.498 68.8988 181.665 68.8581 181.832 68.8255C181.999 68.7929 182.166 68.7766 182.328 68.7766C182.449 68.7766 182.554 68.7847 182.645 68.797C182.737 68.8092 182.825 68.8296 182.908 68.854C182.946 68.7644 183.042 68.528 183.2 68.141C183.359 67.7539 183.551 67.2161 183.776 66.5234C183.814 66.4542 183.872 66.3971 183.943 66.3523C184.014 66.3075 184.101 66.283 184.201 66.283C184.272 66.283 184.343 66.2871 184.414 66.2952C184.481 66.3034 184.544 66.3238 184.598 66.3482C184.652 66.3767 184.694 66.4093 184.727 66.4582C184.76 66.503 184.777 66.5642 184.777 66.6375L183.688 69.6852C183.655 69.7707 183.626 69.8889 183.597 70.0315C183.567 70.1741 183.542 70.3289 183.517 70.4919C183.492 70.6549 183.471 70.8138 183.459 70.9727C183.446 71.1316 183.438 71.2661 183.438 71.3802C183.438 71.5228 183.413 71.6613 183.367 71.7998C183.346 71.8609 183.321 71.9098 183.3 71.9546C183.275 71.9954 183.246 72.0321 183.204 72.0565C183.163 72.085 183.117 72.1013 183.054 72.1136C182.996 72.1258 182.921 72.1298 182.829 72.1298C182.725 72.1298 182.641 72.1217 182.587 72.1054C182.533 72.0891 182.487 72.0687 182.458 72.0443C182.429 72.0198 182.412 71.9872 182.408 71.9546C182.404 71.9221 182.399 71.8854 182.395 71.8446C182.395 71.8039 182.391 71.7631 182.383 71.7224C182.374 71.6817 182.362 71.6409 182.337 71.6042C182.295 71.6246 182.232 71.6491 182.157 71.6857C182.082 71.7183 182.003 71.7509 181.928 71.7876C181.853 71.8243 181.778 71.8528 181.707 71.8813C181.636 71.9098 181.586 71.9302 181.557 71.9424C181.473 71.975 181.381 72.0117 181.273 72.0484C181.169 72.085 181.056 72.1176 180.935 72.1502C180.814 72.1828 180.689 72.2073 180.555 72.2276C180.422 72.248 180.293 72.2562 180.155 72.2562C179.992 72.2562 179.834 72.2358 179.679 72.1991C179.525 72.1624 179.387 72.1013 179.266 72.0239C179.145 71.9465 179.05 71.8446 178.974 71.7265C178.899 71.6083 178.866 71.4657 178.866 71.3027C178.866 71.2457 178.87 71.1887 178.878 71.1316C178.883 71.0786 178.904 71.0134 178.929 70.9442ZM179.867 70.9157C179.838 70.9931 179.825 71.0664 179.825 71.1357C179.825 71.209 179.834 71.2783 179.855 71.3435C179.871 71.4087 179.905 71.4657 179.955 71.5105C180.005 71.5594 180.067 71.5961 180.151 71.6246C180.234 71.6531 180.339 71.6694 180.468 71.6694C180.539 71.6694 180.618 71.6613 180.701 71.6409C180.785 71.6246 180.868 71.6002 180.948 71.5757C181.027 71.5513 181.106 71.5228 181.177 71.4942C181.248 71.4657 181.306 71.4372 181.361 71.4168C181.498 71.3516 181.623 71.2905 181.744 71.2294C181.861 71.1683 181.97 71.1031 182.061 71.0338C182.153 70.9646 182.237 70.8831 182.308 70.7975C182.378 70.7119 182.437 70.6101 182.479 70.496C182.516 70.3941 182.545 70.3004 182.575 70.2189C182.604 70.1374 182.625 70.0519 182.65 69.9745C182.67 69.893 182.691 69.8115 182.708 69.73C182.725 69.6485 182.746 69.5548 182.762 69.4529C182.746 69.4366 182.721 69.4244 182.687 69.4081C182.658 69.3959 182.612 69.3877 182.55 69.3877C182.404 69.3877 182.245 69.404 182.074 69.4407C181.899 69.4733 181.724 69.5222 181.54 69.5874C181.356 69.6526 181.177 69.7259 181.002 69.8196C180.827 69.9093 180.664 70.0111 180.514 70.1252C180.364 70.2393 180.234 70.3615 180.122 70.496C179.996 70.6223 179.917 70.7649 179.867 70.9157Z" fill="#F6F6F6"/>
<path d="M185.103 70.7934C185.157 70.6386 185.24 70.4756 185.353 70.3004C185.465 70.1252 185.616 69.95 185.799 69.7748C185.983 69.5955 186.204 69.4244 186.462 69.2533C186.721 69.0821 187.021 68.9273 187.359 68.7766C187.414 68.7521 187.497 68.7277 187.61 68.7032C187.722 68.6788 187.839 68.6625 187.956 68.6543C188.098 68.5484 188.285 68.4954 188.527 68.4954C188.811 68.4954 189.049 68.5443 189.241 68.6462C189.433 68.748 189.595 68.8825 189.72 69.0536C189.758 69.1107 189.796 69.1636 189.833 69.2166C189.866 69.2696 189.896 69.3266 189.921 69.3836C189.946 69.4448 189.962 69.5059 189.979 69.5751C189.996 69.6444 190 69.7218 190 69.8074C190 70.007 189.954 70.2108 189.867 70.4186C189.775 70.6264 189.65 70.8301 189.483 71.0257C189.316 71.2212 189.116 71.4127 188.878 71.592C188.64 71.7713 188.377 71.9343 188.089 72.0809C187.893 72.1787 187.676 72.2561 187.443 72.3091C187.205 72.3621 186.942 72.3906 186.65 72.3906C186.371 72.3906 186.129 72.3661 185.924 72.3132C185.72 72.2602 185.549 72.1869 185.415 72.0932C185.278 71.9954 185.178 71.8813 185.111 71.7468C185.044 71.6124 185.011 71.4616 185.011 71.2986C185.007 71.1438 185.04 70.9727 185.103 70.7934ZM186.004 70.8423C185.983 70.8993 185.966 70.9564 185.958 71.0094C185.949 71.0623 185.945 71.1112 185.945 71.1601C185.945 71.2416 185.962 71.3231 185.991 71.3924C186.02 71.4657 186.07 71.5268 186.141 71.5798C186.208 71.6327 186.296 71.6735 186.4 71.702C186.504 71.7305 186.629 71.7468 186.775 71.7468C187.051 71.7468 187.305 71.6979 187.543 71.6001C187.781 71.5024 187.989 71.3801 188.173 71.2334C188.356 71.0868 188.511 70.9279 188.636 70.7608C188.761 70.5938 188.849 70.4389 188.899 70.2963C188.932 70.2067 188.961 70.1252 188.982 70.0478C189.007 69.9704 189.015 69.897 189.015 69.8318C189.015 69.7666 188.999 69.7055 188.965 69.6485C188.932 69.5914 188.886 69.5263 188.832 69.457C188.799 69.4122 188.765 69.3674 188.736 69.3225C188.703 69.2736 188.673 69.2288 188.648 69.184C188.619 69.2207 188.59 69.2492 188.557 69.2777C188.523 69.3022 188.473 69.3266 188.411 69.3511C188.344 69.3714 188.256 69.3918 188.144 69.4081C188.031 69.4244 187.885 69.4407 187.706 69.4529C187.585 69.4814 187.464 69.5222 187.343 69.5833C187.222 69.6403 187.101 69.7096 186.984 69.787C186.867 69.8644 186.754 69.95 186.646 70.0396C186.538 70.1293 186.442 70.223 186.358 70.3208C186.275 70.4145 186.2 70.5082 186.137 70.6019C186.075 70.6956 186.029 70.7649 186.004 70.8423Z" fill="#F6F6F6"/>
</g>
<defs>
<clipPath id="clip0_42_2">
<rect width="190" height="74" fill="white"/>
</clipPath>
</defs>
</svg>
