<?xml version="1.0" encoding="UTF-8"?>
<svg id="Capa_1" data-name="Capa 1" xmlns="http://www.w3.org/2000/svg" viewBox="0 0 1526.01 1525.83">
  <defs>
    <style>
      .cls-1 {
        fill: #fff;
      }

      .cls-2 {
        fill: #60a8dd;
      }

      .cls-3 {
        fill: #6caddf;
      }
    </style>
  </defs>
  <path class="cls-2" d="m1479.97,1022.96c-2.59,7-4.83,14.15-7.84,20.96-5.06,11.43-9.14,23.28-14.53,34.56-5.52,11.55-10.71,23.29-16.86,34.5-8.65,15.77-16.77,31.86-26.65,46.93-.92.34-1.13,1.09-1.15,1.95-.25.36-.49.73-.74,1.09-.71.2-1.06.68-1.12,1.39-.18.54-.36,1.08-.53,1.61-.2.27-.41.54-.62.8-3.94,6.05-7.88,12.11-11.82,18.16-.35.44-.7.89-1.05,1.33-.66,2.3-1.98,4.16-3.79,5.7-1.12.24-1.3,1.07-1.28,2.03-.03.34-.17.63-.41.87-.9.12-1.46.57-1.5,1.53-.19.49-.39.98-.58,1.46-2.15.32-2.58,1.88-2.67,3.69,0,0-.18.25-.18.25-1.23.23-1.75.99-1.66,2.21-14.09,19.49-28.59,38.66-44.35,56.85-.89.1-1.5.5-1.57,1.47-1.33,2.14-2.76,4.19-4.91,5.61-.38.35-.76.7-1.14,1.06,0,0,.08-.06.07-.06-.88.26-1.12.95-1.16,1.77-2.13,2.38-4.26,4.77-6.39,7.15-1.62.21-2.44,1.21-2.67,2.77-.38.39-.77.79-1.15,1.18-.79.11-1.48.35-1.67,1.26,0,0,.08-.09.07-.09-.95.24-1.15.97-1.19,1.81-9.52,10.49-19.4,20.62-29.93,30.1-1.34-.01-2.02.64-2.05,1.98-.7.66-1.39,1.32-2.09,1.99-.84.04-1.57.25-1.8,1.2,0,0,.08-.08.08-.08-.92.18-1.15.88-1.26,1.67-.4.4-.8.79-1.2,1.19-.25.24-.51.47-.76.71,0,0-.26.22-.26.22-.95.17-1.61.64-1.72,1.68-.62.49-1.23.97-1.85,1.46-.38.33-.75.66-1.13.99-.94,1.8-2.68,2.74-4.17,3.96-.81.04-1.5.27-1.77,1.15,0,0,.08-.07.08-.07-.79.19-1.08.76-1.17,1.5-12.55,9.86-23.9,21.16-36.92,30.45-1.23-.04-1.95.53-2.13,1.76,0,0-.16.13-.16.13-.76.11-1.45.35-1.74,1.16-.35.31-.7.61-1.05.92-1.1.02-1.84.47-1.99,1.64-1.06.8-2.13,1.6-3.19,2.4-.27.2-.54.39-.81.59-.08.2-.22.32-.43.37-.13.12-.27.24-.4.37-.78.53-1.57,1.05-2.35,1.58-.79.09-1.48.34-1.77,1.19-.37.29-.74.57-1.1.86-.32.27-.64.54-.97.81,0,0-.17.12-.17.12-.77.11-1.47.34-1.77,1.17-.38.29-.75.59-1.13.88-.99.06-1.72.44-1.91,1.5-1.29.86-2.58,1.72-3.87,2.58-1.18-.07-1.98.36-2.13,1.63-.22.23-.49.36-.82.39-.92-.05-1.76.05-2.06,1.12,0,0,.09-.07.09-.07-.83.12-1.12.71-1.22,1.45-.3.15-.6.31-.91.46-1.11-.03-1.9.37-2.08,1.57-.24.25-.53.4-.87.45-1.15-.07-1.95.33-2.13,1.57-1.65,1.51-3.38,2.89-5.6,3.49-.45.32-.9.64-1.35.96,0,0,.03-.01.03-.01-.9-.06-1.68.11-2.11,1.01-1.69,1.3-3.38,2.59-5.07,3.89-.82.05-1.53.28-1.86,1.13-2.02,1.3-4.05,2.6-6.07,3.89-.3.24-.6.49-.9.73-2.36,1.42-4.72,2.85-7.08,4.27-.86.02-1.6.23-1.94,1.14-10.02,6.53-20.37,12.5-31.02,17.94-.44-.76-.73-.74-.85.16,0,0,.03-.1.03-.1-.79.04-1.09.57-1.23,1.26-22.76,12.46-46.01,23.96-70.13,33.5-11.22,4.44-22.13,9.75-33.77,13.13-.32.17-.64.34-.95.52-.65.17-1.31.34-1.96.51-.36.19-.71.39-1.07.58-.4.11-.8.22-1.19.33-2.21-.05-4.34.11-5.88,2.03,0,0-.02.01-.02.01-.32.05-.59.18-.82.4-8.02,2.55-16.03,5.1-24.05,7.65-.8-.06-1.54.02-2.06.74l-1.04.21c-1.11,0-2.27-.2-3.01.95,0,0-.05.02-.05.02-.62.23-1.24.45-1.86.68-21.33,6.31-42.93,11.54-64.69,16.09-1.61.34-3.29.28-4.95.41-.95-.14-1.86-.14-2.44.81l-.4.14s-.42-.05-.42-.05c-.34.13-.69.26-1.03.39-.73.12-1.46.24-2.19.35-.38-.49-.7-.38-.96.12-.59.05-1.18.1-1.78.15-.38.16-.75.32-1.12.49-12.25,2.33-24.55,4.3-36.97,5.49-.32.11-.63.22-.95.32-2.29.78-4.66.78-7.04.69-.67.17-1.34.33-2.01.5-3.74.38-7.49.77-11.23,1.15-1.71-1.04-3.37-1.25-4.92.33-6.68.66-13.23,2.8-20.06,1.77-3.27-.15-6.52-.02-9.72.71-3.78.14-7.55.29-11.32.43-2.68.04-5.35.07-8.03.1-22.37,1.95-44.71.35-67.06-.54-3.2-.7-6.45-.89-9.72-.69-11.36.7-22.46-1.83-33.65-3.03-33.26-3.58-66.12-9.57-98.58-17.71-50.53-12.68-99.24-30.31-146.18-52.95-54.4-26.23-104.9-58.53-151.6-96.75-37.97-31.08-72.61-65.55-103.98-103.33-37.71-45.42-69.82-94.48-96.12-147.29-31.94-64.14-54.38-131.49-67.18-202.04-4.24-23.41-7.11-46.99-9.77-70.61-.54-4.79-1.19-9.52-.86-14.33-.4-3.15.58-6.4-.61-9.51-2.07-22.34-1.9-44.69-.54-67.06.03-2.68.07-5.35.1-8.03,1.45-12.38-.22-24.95,2.35-37.25.92-2.52,2.67-4.96.83-7.78.41-4.07.82-8.14,1.23-12.22.16-.67.32-1.34.48-2.01-.09-2.37-.09-4.73.67-7.02.11-.33.23-.66.34-.98.14-1.65.28-3.31.42-4.96.86-.85.64-1.93.6-2.96.48-3.68.96-7.36,1.44-11.04.18-.64.37-1.29.55-1.93,0,0-.02.03-.02.03,1.06-.55,1.14-1.2.19-1.94.77-4.71,1.55-9.42,2.32-14.13.16-.37.32-.75.48-1.12.05-.59.1-1.18.14-1.77.12-.08.36-.18.35-.24-.04-.25-.15-.48-.23-.72.12-.73.24-1.46.36-2.19.13-.34.26-.67.39-1.01-.09-.29-.06-.57.09-.83.95-.58.95-1.49.81-2.43.21-1.91.43-3.81.64-5.72.17-.63.33-1.26.5-1.89,2.89-12.81,5.71-25.6,9.27-38.28,2.06-7.3,4.55-14.67,5.8-22.28.47-2.88,1.56-5.66,2.37-8.49.17-.34.35-.68.53-1.03.14-.65.29-1.3.43-1.96.18-.36.37-.73.56-1.09.89-2.99,1.77-5.99,2.65-8.98.22-.23.36-.51.41-.83,0,0,0-.01,0-.01,1.19-.71.99-1.89,1-2.99.19-.72.37-1.44.56-2.16.24-.23.39-.51.43-.85.2-.72.4-1.44.6-2.16.22-.22.36-.49.42-.8.34-1.01.67-2.03,1.01-3.04.28-.49.56-.98.84-1.48,1.61-6.74,3.97-13.17,7.13-19.36,1.62-3.18,1.59-7.04,3.39-10.24.2-.32.39-.65.59-.97,0,0-.02.04-.02.04,1.24-.65,1.04-1.82,1.08-2.91,9.73-23.56,19.5-47.09,32.27-69.23,1.65-2.85,2.84-5.97,4.25-8.96.22-.18.38-.41.48-.69.19-.38.39-.77.58-1.15.8-.19,1.26-.67,1.26-1.52,1.36-4.86,4.4-8.85,7.06-12.97,4.55-7.05,7.5-15.03,12.83-21.6.7-.21,1.05-.69,1.11-1.4.18-.54.36-1.07.53-1.61.21-.27.41-.53.62-.8.42-.72.84-1.45,1.26-2.17.24-.3.49-.6.73-.9,1.3-2.02,2.61-4.05,3.91-6.07.32-.45.64-.9.96-1.35,3.83-5.87,7.66-11.74,11.49-17.61.88-.12,1.45-.56,1.49-1.51.18-.49.37-.99.55-1.48.75-.09,1.33-.38,1.46-1.22,0,0-.06.1-.06.1,1.34-.4,1.13-1.58,1.31-2.57,0,0,.18-.24.18-.24,1.24-.24,1.75-1.01,1.64-2.25,1.84-2.65,3.69-5.3,5.53-7.94.25-.18.44-.41.58-.69,0,0,.14-.18.14-.18.28-.32.56-.64.84-.96,0,0,.05-.06.05-.06.3-.38.6-.76.9-1.13.15-.32.3-.64.45-.96.28-.17.49-.41.62-.71.61-.75,1.22-1.5,1.82-2.25,1.47-.44,2.13-1.47,2.14-2.96.28-.35.55-.69.83-1.04.89-.26,1.14-.97,1.24-1.78,0,0,.1-.15.1-.15.28-.34.55-.67.83-1.01.31-.35.62-.69.93-1.04.8-.3,1.05-.95,1.09-1.73.11-.22.29-.34.54-.36,1.17-.16,1.41-.97,1.42-1.97,6.13-7.66,12.26-15.32,18.39-22.98.28-.15.48-.37.6-.66,3.95-4.45,7.89-8.89,11.84-13.34.38-.35.75-.71,1.13-1.06,0,0-.07.06-.07.06.89-.26,1.11-.98,1.21-1.78,0,0,.11-.13.11-.13.28-.3.56-.61.85-.91,1.8-2.03,3.59-4.07,5.39-6.1,1.07-.12,1.53-.8,1.67-1.79,0,0,.15-.15.14-.15,1.1-.14,1.72-.77,1.85-1.87,0,0,.13-.13.13-.13.79-.12,1.49-.36,1.68-1.27,0,0-.08.08-.07.08.95-.24,1.16-.96,1.19-1.8,10.71-12.01,22.21-23.22,34.07-34.08.84-.04,1.58-.24,1.8-1.2,0,0-.08.08-.08.08.92-.18,1.15-.88,1.26-1.67,1.93-1.75,3.87-3.5,5.8-5.25.37-.33.75-.66,1.12-.99.95-1.81,2.72-2.75,4.21-4,.25-.21.49-.42.74-.64.21-.23.47-.37.79-.42.4-.39.8-.77,1.2-1.16.78-1.18,1.7-2.22,3.06-2.76.33-.31.67-.61,1-.92.75-.68,1.51-1.37,2.26-2.05.3-.16.53-.39.69-.7,8.32-6.79,16.63-13.57,24.95-20.36.37-.3.74-.61,1.11-.91.4-.33.79-.66,1.19-1,.82-.1,1.52-.37,1.74-1.28.34-.27.67-.53,1.01-.8,1.2.03,1.96-.47,2.06-1.74.19-.21.43-.32.72-.32.41-.32.83-.64,1.24-.95,0,0-.01,0,0,0,2.25.15,3.97-.38,3.98-3.1.3-.68.83-.99,1.56-.99.95-.05,1.39-.61,1.52-1.5,1.06-.77,2.12-1.54,3.18-2.31.79-.09,1.48-.34,1.77-1.18.37-.29.74-.58,1.1-.87.32-.28.64-.56.96-.84,0,0,.15-.1.15-.1.79-.1,1.49-.34,1.79-1.18.37-.29.74-.58,1.11-.87,1.01-.05,1.74-.45,1.93-1.53,1.27-.85,2.55-1.7,3.82-2.55.39-.28.78-.57,1.17-.85,0,0,.09-.06.09-.06,1.53-.3,3.03-.63,3.79-2.23,0,0-.09.07-.09.07.83-.13,1.12-.7,1.21-1.44.49-.19.99-.37,1.49-.56.74-.07,1.23-.44,1.4-1.18.32-.25.65-.49.97-.74,1.15.07,1.96-.33,2.13-1.58,1.13-.78,2.26-1.57,3.39-2.35.15-.11.3-.23.44-.36,6.07-3.88,12.13-7.76,18.2-11.65.3-.24.61-.48.91-.72,2.36-1.42,4.72-2.85,7.07-4.27.86-.02,1.61-.24,1.94-1.15,2.07-1.28,4.14-2.56,6.21-3.83.31-.12.56-.32.74-.59,24.92-14.83,50.59-28.25,77-40.24,9.58-4.35,19.43-8.13,29.15-12.16,1.1-.03,2.28.13,2.95-1.09,6.96-2.65,13.93-5.31,20.9-7.96.33-.18.65-.35.98-.53,1.4-.47,2.81-.95,4.21-1.42.27-.07.51-.19.71-.38.75-.2,1.49-.41,2.24-.61,1.09-.03,2.25.15,2.94-1.02,1-.33,2-.67,3-1,.29-.16.58-.33.87-.49.69-.18,1.38-.35,2.07-.53.31-.15.61-.31.92-.46.7-.18,1.4-.35,2.1-.53,1.12,0,2.31.22,3.03-.99,0,0,0,0,0,0,.34-.04.62-.19.86-.43,15.91-4.78,31.69-9.98,47.93-13.64.38-.17.75-.35,1.13-.52,10.19-2.24,20.13-5.59,30.6-6.54.49-.24.98-.48,1.46-.72.34-.05.67-.1,1.01-.15,1.36-.09,2.86.46,3.97-.84.91-.09,1.82-.19,2.73-.28,1.21.1,2.46.4,3.31-.87,0,0,.02,0,.02,0,.6-.16,1.21-.32,1.81-.47.74-.11,1.48-.23,2.22-.34.39.49.7.38.96-.12.3-.13.61-.16.93-.09.65-.18,1.29-.36,1.94-.53,4.72-.78,9.44-1.56,14.16-2.34.74.97,1.39.91,1.94-.17,0,0-.03.02-.03.02.65-.18,1.3-.37,1.94-.55,3.05-.43,6.09-.86,9.14-1.3.73.96,1.38.9,1.95-.15,0,0-.01.01-.01.01,1.03.03,2.11.25,2.94-.64,1.65-.13,3.29-.25,4.94-.38.33-.12.66-.23.99-.35,1.39-.17,2.79-.33,4.18-.5.38.55.7.46.99-.09,6.36-.87,13.01-.43,19.09-1.55,11.84-2.2,23.76-2.1,35.6-3.19,13.33-1.23,26.81-.94,40.23-1.15,6.63-.1,13.28-.36,19.87.8,3.37.04,6.74.08,10.11.12,9.12.78,18.28,1.21,27.4,2.02,8.42.75,16.99,1.46,25.51,1.87,1.81.09,3.6.42,5.4.63.62.13,1.25.26,1.88.39,5.06.25,10.04,2.11,14.84,2.35,9.93.49,19.46,2.92,29.2,4.12.64.18,1.29.36,1.94.54.32-.07.63-.05.93.09.26.51.58.62.97.12.74.12,1.48.23,2.22.34.6.16,1.2.32,1.8.47,0,0,.02,0,.02,0,.58.98,1.5.96,2.45.83,1.2.11,2.39.22,3.58.32,1.11,1.29,2.61.75,3.97.84,27.09,5.36,53.75,12.37,79.98,21.03.72,1.17,1.89.97,3,.97,0,0,0,0,0,0,.72,1.21,1.91.99,3.02.99.7.18,1.41.35,2.11.53.3.15.61.31.92.47.69.18,1.38.35,2.07.53.29.16.58.33.87.49.72.19,1.44.38,2.16.57.22.24.5.38.83.43,0,0,.03.02.03.02.49.28.98.57,1.47.85,1.23.26,2.47.52,3.7.78.2.19.44.31.71.38,8.04,3.01,16.08,6.02,24.12,9.03.48.82,1.25.96,2.11.9.68.21,1.36.41,2.03.62.22.23.48.37.79.44,20.83,7.86,41.01,17.21,60.75,27.44,20.03,10.38,39.93,21.03,58.94,33.24,3.16,2.03,6.26,4.13,9.39,6.2.33.88,1.05,1.1,1.88,1.14.38.27.75.55,1.13.82.44.34.88.69,1.32,1.03.56.32,1.12.64,1.68.96.44.35.88.7,1.32,1.04,2.6,1.59,5.2,3.17,7.79,4.75.14.13.28.26.43.38,0,0,.31.29.32.29.2.88.64,1.51,1.64,1.54.71-.08,1.22.2,1.55.84.17.75.66,1.11,1.4,1.17.5.18.99.36,1.49.54.09.75.38,1.34,1.21,1.47,0,0-.09-.06-.09-.06.77,1.59,2.27,1.93,3.8,2.22,0,0,.09.06.09.06.29.3.59.59.88.89,5.34,3.83,10.36,8.12,16.11,11.38.12.89.57,1.45,1.52,1.5.52.33,1.04.66,1.55.99,0,2.76,1.76,3.26,4.02,3.11.34.17.68.34,1.02.51.15.23.36.39.61.49.22.14.36.35.4.61.16,1.16.98,1.4,1.96,1.4,7.33,6.55,15.09,12.57,23,18.4.16.29.39.51.69.66,0,0,.21.21.21.21.28.26.55.52.83.78,1.73,1.42,3.46,2.85,5.19,4.27.11,1.15.79,1.66,1.89,1.71,1.85,1.46,3.9,2.69,5.19,4.76.35.39.7.77,1.05,1.16,0,0-.06-.08-.06-.07.28.89.98,1.12,1.8,1.15,2.96,2.32,5.81,4.77,8.22,7.69.5,1.91,1.23,3.55,3.67,3.33,7.49,6.53,14.7,13.35,21.34,20.75-.1,1.52.6,2.23,2.12,2.14,5,4.33,9.39,9.24,13.75,14.19.07,1.16.67,1.82,1.83,1.96.38.39.75.78,1.13,1.17.19,1.4.85,2.41,2.33,2.69.59.65,1.19,1.29,1.78,1.94.34.38.67.75,1.01,1.12,1.78.94,2.72,2.69,3.94,4.16.04.82.27,1.52,1.16,1.78,0,0-.08-.05-.08-.05.38.35.77.7,1.15,1.05,7.11,7.29,13.54,15.17,19.85,23.15,3.34,4.22,6.8,8.35,10.21,12.51.84,1.02,1.81,1.97,1.71,3.44.63,1.03.79,2.42,2.23,2.81,0,0-.07-.02-.07-.02.34.35.68.7,1.02,1.04,0,0-.03-.06-.04-.06.18,1.19.91,1.85,2.03,2.14.28.34.56.67.85,1.01,0,1.12.43,1.89,1.64,2.05.45.67.89,1.34,1.34,2.01.03,1.47.69,2.49,2.12,2.94.29.36.57.73.86,1.09.06,1.45.71,2.47,2.14,2.91,9.62,13.46,19.32,26.86,27.88,41.04.25.31.49.63.74.94.41.71.83,1.43,1.24,2.14.21.28.43.55.64.83.79,1.37,1.58,2.73,2.37,4.1.02.86.24,1.61,1.15,1.94,6.68,10.14,12.42,20.81,18.03,31.56-.23,1.38.18,2.33,1.71,2.51,0,0,.08.11.08.11.1.29.26.53.49.72,12.74,23.82,24.41,48.14,34.51,73.21.03,1.11-.13,2.28,1.1,2.94,2.57,5.54,4.97,11.11,6.34,17.13.57,2.49,2.59,4.64,3.19,7.12,1.94,7.95,6.41,15.06,7.57,23.25-.12,1.02-.13,1.98,1.07,2.41.12,5.08,5.05,9.09,3.24,14.59,6.01,7.67,5.6,17.55,8.98,26.13.58,1.48.49,3.23.71,4.86-.14,1.01-.11,1.95.95,2.51,4.14,16.34,8.04,32.69,10.62,49.43,1.59,10.32,3.62,20.67,5.45,31.01,2.37,13.42,3.88,27.01,4.59,40.57,1.32,25.26,3.93,50.49,3.14,75.85-.16,4.99-.04,9.98-.86,14.92-.03,2.38-.05,4.75-.08,7.13-.73,9.25-.33,18.58-2.49,27.73-.53,2.26,1.58,5.17.39,7.27-3.63,6.42-.06,13.32-1.84,19.78-.17.63.04,1.4-.23,1.97-1.79,3.85-1.25,8.17-2.09,11.91-1.7,7.54.41,15.7-4.12,22.96-1.03,1.65.4,6.15-.33,9.38-3.72,16.61-5.84,33.56-10.37,50-.69,2.5-2.14,4.81-2.72,7.33-2.08,9.1-3.65,18.31-6.63,27.2-2.18,6.49-4.21,13.04-6.31,19.56-1.19.43-1.19,1.4-1.07,2.41-.37,5.21-3.08,9.71-4.48,14.61-.24.62-.47,1.24-.71,1.85-.48,1.39-.95,2.78-1.43,4.17-.17.32-.35.64-.53.96Zm-458.96-580.21c-.38-.26-.75-.51-1.13-.77-19.65-11.59-40.55-19.86-63.11-23.7-.25-.2-.54-.3-.86-.31-.33.07-.65.03-.95-.12-.62-.92-1.52-.87-2.45-.74-4.96-.34-9.92-.74-14.88-1.01-20.57-1.12-40.75,1.35-60.57,6.86-.67.25-1.33.49-2,.74-.35.08-.7.16-1.05.25-1.11,0-2.28-.2-3.01.98-20.66,7.64-40.27,17.15-56.81,32.09-1.07-.04-1.91.24-2.04,1.49-.77.8-1.53,1.61-2.3,2.41-.29.26-.58.53-.87.79l-.2.2c-.24.25-.48.49-.71.74-.47.45-.94.9-1.42,1.35-.25.12-.44.31-.57.55-5.68,5.82-11.94,11.06-16.39,18.07-2.35,3.71-6.38,6.46-8.31,10.31-4.76,9.51-11.24,18.09-14.87,28.2-1.89,5.25-4.94,10.16-6.23,15.52-3.71,15.43-8.24,30.77-8.3,46.84-.02,5.88-.76,11.8-.46,17.57.41,8.13,2.44,16.17,3.76,24.25.85,5.18-.06,6.01-5.47,5.43-11.88-1.27-23.8-2.28-35.66-3.74-19.3-2.39-38.37-6.06-57.15-11.17-.75-1.1-1.9-.89-2.98-.9h0c-.23-.52-.53-.69-.96-.19-.74-.15-1.48-.3-2.22-.45-.23-.2-.5-.32-.8-.36h-.02c-.78-1.23-1.99-.99-3.14-.94-.64-.12-1.29-.24-1.93-.36-.65-.23-1.31-.46-1.96-.68-2.05-.55-4.1-1.11-6.15-1.66-.24-.2-.51-.32-.82-.35-5.66-1.8-11.32-3.6-16.99-5.39-.66-2.34-2.58-1.42-4.08-1.58-.68-.18-1.37-.36-2.05-.55-.28-.16-.57-.32-.85-.49l-2.21-.65c-.21-.18-.46-.3-.73-.36-14.25-4.3-27.47-11.14-41.03-17.08-15.3-6.7-29.86-14.96-44.08-23.77-.34-.9-1.08-1.11-1.94-1.14-6.9-3.96-13.73-8.03-20.05-12.91-.31-.82-1-1.06-1.78-1.15-12.38-7.86-23.76-17.06-35.18-26.21-.1-.91-.51-1.53-1.51-1.6-1.2-.21-2.02-.91-2.55-1.98-.25-.86-.93-1.11-1.71-1.23l-.22-.19c-.28-.25-.57-.5-.85-.75-13.12-11.56-26.44-22.9-38.17-35.93.04-1.67-.13-3.17-2.42-2.89l-1.62-1.44-.66-.75-.26-.26c-.16-.28-.38-.49-.66-.64-5.66-6.44-11.39-12.83-16.95-19.35-1.63-1.91-2.84-2.25-4.06.12-2.26,4.4-4.71,8.73-6.6,13.29-5.11,12.28-9.79,24.66-12.08,37.91-1.21,6.98-2.7,13.88-2.85,20.99-.11.09-.32.2-.31.26.05.23.17.45.27.68-.09,2.05-.18,4.1-.27,6.14-.29.24-.31.49-.04.75.45,1.46.41,2.91,0,4.37-.74,2.2-.83,4.4.08,6.58.27,16.53,3.85,32.48,8.44,48.25.05.27.17.51.34.73.56,1.74,1.12,3.48,1.67,5.22.06.33.21.61.45.83.2.68.4,1.36.59,2.04,0,1.17-.3,2.45,1.17,3.05,5.37,11.31,10.59,22.7,17.8,33.02-.03,1.5.63,2.52,2.06,3.01.98,1.33,1.96,2.65,2.94,3.98-.04,1.21.52,1.94,1.73,2.13l.15.19c.14.76.4,1.44,1.24,1.69.29.35.57.69.86,1.04.03,1.79.99,2.76,2.69,3.09l.28.26c.15.22.34.41.57.56,1.49,1.91,3.74,3.2,4.6,5.63l1.02,1.35-.05-.05c.45.34.9.68,1.35,1.02.5.42,1.01.83,1.51,1.25.07.83.28,1.56,1.24,1.76l-.07-.04,1.04,1.03-.04-.07c.23.98.97,1.17,1.82,1.21,1.5,2.49,3.92,4.04,6.03,5.91.56,1.41,1.57,2.13,3.11,2.04.32.28.65.56.97.84.23.91.91,1.17,1.74,1.22.2.11.31.28.31.51.15,1.19.98,1.44,1.99,1.43.61.39,1.23.79,1.84,1.18l.03,3.7-4.1-.28c-.39-.15-.79-.3-1.18-.45-23-1.5-44.47-8.19-64.7-19.1-.94-.99-1.78-2.45-3.18-2.4-1.11.04-.72,1.48-.81,2.36l-.04.04c-.71.33-.68.66,0,.98.2.22.24.47.14.74,0,.52,0,1.03,0,1.55,1.57,7.17.39,14.55,1.84,21.76,1.11,5.56,1.25,11.32,2.54,16.82.95,4.04,3.37,7.71,3.9,11.96-2.59,2.26-.25,2.55,1.26,3.18l.47,2.51c.28.49.56.98.84,1.47,5.08,11.69,10.04,23.4,17.11,34.14,20.66,31.39,48.13,54.36,83.05,68.38,8.89,3.57,18.12,6.06,28.76,9.02-13.7,3.77-26.14,5.4-38.81,5.72-12.79.33-25.51-.37-38.56-1.72,28.33,74.6,82.35,114.73,161.93,121.26-.65.56-1.11,1.01-1.62,1.4-37.3,28.66-78.75,48.88-124.2,60.91-22.22,5.88-44.8,9.74-67.8,10.81-.62.02-1.25.03-1.87.05-.94.02-1.88.04-2.82.07-.47.01-.94.02-1.41.03-11.56,1.36-23.11,1.31-34.66-.07-1.32-.03-2.64-.06-3.96-.09-5.7.42-11.33-1.68-17.71-.6,1.73,1.18,2.9,2.05,4.13,2.82,21.35,13.34,43.61,24.94,66.75,34.89,54.04,23.23,110.51,36.29,169.14,39.41,31.25,1.66,62.52.57,93.68-3.36,34.67-4.37,68.64-11.62,101.67-23.07,8.94-3.1,17.87-6.28,26.59-9.96,12.18-5.14,24.15-10.78,36.21-16.21.46-.29.91-.58,1.37-.86,0,0,.02-.01.02-.01.3-.2.6-.4.89-.6,15.85-8.36,31.17-17.63,46.18-27.39.28-.23.56-.47.84-.7.71-.43,1.41-.87,2.12-1.3.32-.24.64-.47.96-.71l.34-.27c.2-.14.37-.3.52-.49,4.17-2.91,8.5-5.64,12.5-8.78,11.12-8.74,22.63-17,32.89-26.8.26-.26.51-.51.77-.77l.15-.15c.25-.26.51-.52.76-.78.21-.21.46-.33.76-.35.41-.34.82-.68,1.23-1.01l-.07.05c.41-.5.83-1,1.24-1.49.05-.22.18-.38.39-.46.12-.13.24-.26.36-.39.69-.54,1.38-1.09,2.06-1.63.89,0,1.7-.12,1.92-1.19l-.04.07c.34-.34.68-.69,1.03-1.03l-.02.03,1.05-1.02s-.03.06-.03.06c.34-.45.68-.89,1.02-1.34.76-.85,1.52-1.69,2.28-2.54.82-.05,1.53-.27,1.74-1.2l-.08.07c1.47-.29,2.1-1.27,2.2-2.68,4.7-4.74,9.39-9.47,14.09-14.21.34-.52.68-1.04,1.02-1.56l.31-.3c1.49-.13,2.73-.51,2.46-2.42.03-.3.16-.55.38-.75.26-.26.52-.52.78-.78l.12-.11c2.19.1,3.08-.99,2.82-3.11.52-.69,1.04-1.38,1.56-2.08.18-.14.33-.3.47-.48l.34-.32c1.04-.2,1.61-.8,1.66-1.88,1.77-2.09,3.53-4.18,5.3-6.26.24-.27.48-.53.72-.8,1.39-1.71,2.78-3.41,4.17-5.12.27-.32.55-.64.82-.96,2.83-3.68,5.65-7.36,8.48-11.05,1.07-.17,1.48-.89,1.55-1.88.49-.7.98-1.41,1.47-2.11.81-.14,1.33-.57,1.37-1.44.34-.54.68-1.07,1.02-1.61,1.43-.47,2.09-1.49,2.1-2.97l.56-1.12c.2-.16.36-.35.48-.57l.24-.28.74-.91c.48-.73.96-1.47,1.44-2.2.25-.16.42-.39.52-.67,5.52-8.45,11.04-16.9,16.56-25.36.22-.18.4-.4.51-.67,0,0,.13-.18.13-.18.26-.38.53-.76.79-1.14,4.59-9.46,10.81-17.98,15.44-27.47,5.67-11.64,11.28-23.3,16.79-35.01,7.15-15.19,12.33-31.17,18.46-46.73,2.65-6.74,4.56-14.4,5.98-21.84.2-.24.32-.52.36-.84.23-1.07.47-2.13.71-3.2.16-.22.27-.46.31-.73l.02-.05c1.16-.76.96-1.92.93-3.04,0,0-.02.02-.02.02.14-.07.41-.16.41-.21-.04-.25-.15-.5-.24-.74.14-.72.28-1.43.42-2.15.15-.32.29-.64.44-.96.52-2.34,1.03-4.69,1.55-7.03.15-.31.31-.61.46-.92l-.02.02c1.03-.56,1-1.49.87-2.46.18-1.54.37-3.08.55-4.63l.59-1.98c-.07-.33-.02-.65.15-.94.86-.56.88-1.41.76-2.3.15-1.25.3-2.5.45-3.75.19-.43.37-.85.56-1.28l.15-1.65c.93-.51,1.11-1.14.29-1.92.14-.77.27-1.54.41-2.31.16-.23.25-.49.28-.77,2.58-15.73,5.28-31.44,6.5-47.36.4-5.2,1.23-10.48,1.45-15.6.67-15.26.21-30.58.13-45.87-.01-2.59.59-4.61,3.41-5.29.99-.04,1.42-.68,1.61-1.56l.24-.19c1.6-.12,3.13-.35,3.56-2.29l-.07.07c.82-.14,1.11-.72,1.21-1.46,1.09-.99,2.03-2.19,3.58-2.54.87-.06,1.28-.59,1.42-1.4,1.41-1.17,2.83-2.35,4.24-3.52.28-.1.5-.28.65-.53l1.97-1.48c1.32.06,2.05-.55,2.13-1.89.37-.35.74-.7,1.11-1.04.3-.26.6-.53.9-.79,0,0,.22-.19.22-.19.26-.23.52-.46.78-.69l.32-.23c1.41-.11,2.71-.35,2.61-2.22,9.45-8.98,18.75-18.12,27.35-27.95.31-.14.52-.37.65-.69.16-.22.37-.35.65-.37.76-.12,1.18-.56,1.27-1.32,3.81-4.85,7.62-9.7,11.43-14.55.89-.1,1.5-.5,1.57-1.47.54-.84,1.08-1.68,1.62-2.52.79-.13,1.33-.53,1.4-1.39.54-.92,1.09-1.83,1.63-2.75.21-.16.38-.35.52-.58l.22-.27c.23-.26.47-.51.7-.77.48-.75.97-1.5,1.45-2.26,1.18-.18,1.58-.96,1.57-2.05.18-.36.35-.72.53-1.08.21-.16.39-.36.52-.59.41-1.76,2.49-2.66,2.46-5.33-3.65,1.4-7.08,2.72-10.51,4.03-1.11.03-2.32-.19-2.94,1.12-.7.29-1.39.58-2.09.88-.3.06-.57.2-.79.42-.71.2-1.42.4-2.13.6-.3.18-.61.35-.91.53-1.38.46-2.76.92-4.14,1.38-.7-.8-.82-.11-1,.4-9.84,3.22-19.52,6.97-29.78,8.77-1.17-.07-2.39-.33-3.18.92h-.01c-.62.18-1.23.37-1.85.55-1.01.16-2.03.33-3.04.49-1.43.07-3.02-.55-4.09.99h.01c-.32.02-.6.13-.84.34-4.73.88-9.46,1.75-14.2,2.63-3.14.16-6.42-.67-9.34,1.2-.18.25-.42.33-.71.23.03-1.1.07-2.21.1-3.31l.1-.07c.81-.07,1.52-.3,1.83-1.17.39-.29.77-.58,1.16-.87.27-.25.55-.5.82-.76.85-.47,1.7-.93,2.55-1.4.94-.04,1.38-.6,1.51-1.48,1.43-1.12,2.87-2.24,4.3-3.36.25-.16.46-.36.61-.62,3.11-3.22,7.42-4.93,10.36-8.38,7.16-8.38,15.04-16.15,21.55-25.08.35-.43.7-.86,1.05-1.29.93-2.68,2.8-4.67,4.76-6.59,1.43-.55,1.34-1.8,1.37-3,6.67-11.89,13-23.92,16.99-37.72-6.8,3.5-12.83,6.6-18.87,9.71-2.6-.1-4.82.58-6.16,3.03-1.99.97-3.97,1.94-5.96,2.92-1.15.03-2.45-.24-2.93,1.3-2.7,1.21-5.4,2.42-8.1,3.63-.86-.85-.84.02-1.01.51-1.32.52-2.64,1.04-3.96,1.56-.3.17-.59.34-.89.5-1.37.5-2.74,1-4.11,1.49-1.11,0-2.3-.21-2.99,1.03h.02c-1.98-.16-3.7.38-5.04,1.91l-.04.02c-1.09.04-2.26-.15-2.96,1.03-1.99.67-3.97,1.34-5.96,2.01-1.11,0-2.29-.21-3.03.97-1,.32-2.01.64-3.01.97-.5-.75-.79-.45-1.01.2-9.8,3.34-19.79,5.99-29.97,7.86-3.61,1.44-5.26-2.85-8.37-2.86-3.25-2.89-6.49-5.78-9.74-8.67-.13-.18-.28-.34-.45-.48-.19-.05-.3-.17-.33-.37-.2-.82-.6-1.44-1.55-1.49-.24.02-.43-.07-.58-.27-.31-.29-.62-.58-.93-.87-.68-.49-1.35-.98-2.03-1.47-.14-.98-.74-1.47-1.71-1.54-3.14-2.18-6.29-4.37-9.43-6.55-.16-.18-.33-.34-.53-.47l-.31-.24-1.03-.72c-.37-.18-.74-.36-1.11-.53-.18-.22-.39-.39-.64-.51l-.21-.15Z"/>
  <path class="cls-3" d="m806.21,1524.37c3.2-.73,6.45-.87,9.72-.71-3.14,1.55-6.45.96-9.72.71Z"/>
  <path class="cls-3" d="m710.08,1523.67c3.27-.2,6.51-.01,9.72.69-3.28.27-6.57.83-9.72-.69Z"/>
  <path class="cls-3" d="m1.56,806.11c1.19,3.11.21,6.35.61,9.51-1.37-3.1-.89-6.31-.61-9.51Z"/>
  <path class="cls-3" d="m794.9,1.02c-3.37-.04-6.74-.08-10.11-.12,3.38-1.1,6.75-1.01,10.11.12Z"/>
  <path class="cls-3" d="m4.3,685.99c1.84,2.82.1,5.26-.83,7.78-.6-2.69.64-5.18.83-7.78Z"/>
  <path class="cls-3" d="m786.86,1524.9c2.68-.03,5.35-.07,8.03-.1-2.66,1.18-5.34,1.1-8.03.1Z"/>
  <path class="cls-3" d="m1227.04,157.93c-2.25.15-4.01-.35-4.02-3.11,1.79.46,3.08,1.55,4.02,3.11Z"/>
  <path class="cls-3" d="m303,154.83c0,2.72-1.73,3.25-3.98,3.1.9-1.58,2.22-2.63,3.98-3.1Z"/>
  <path class="cls-3" d="m1.12,731.03c-.03,2.68-.06,5.35-.1,8.03-1.03-2.69-1.04-5.37.1-8.03Z"/>
  <path class="cls-3" d="m1282.71,204.99c-2.43.23-3.17-1.42-3.67-3.33,1.61.68,3.03,1.57,3.67,3.33Z"/>
  <path class="cls-3" d="m1011.99,1483.84c1.53-1.91,3.67-2.07,5.88-2.03-1.73,1.33-3.75,1.85-5.88,2.03Z"/>
  <path class="cls-3" d="m1524.93,793.87c.03-2.38.05-4.75.08-7.13,1.05,2.39.98,4.77-.08,7.13Z"/>
  <path class="cls-3" d="m1386.84,1201.54c.09-1.81.52-3.37,2.67-3.69-.54,1.48-1.33,2.79-2.67,3.69Z"/>
  <path class="cls-3" d="m835.99,1521.89c1.54-1.58,3.2-1.37,4.92-.33-1.64.11-3.28.22-4.92.33Z"/>
  <path class="cls-3" d="m1202.87,140c-1.53-.29-3.03-.63-3.8-2.22,1.67.05,3,.68,3.8,2.22Z"/>
  <path class="cls-3" d="m326.95,137.78c-.76,1.6-2.27,1.93-3.79,2.23.8-1.53,2.13-2.17,3.79-2.23Z"/>
  <path class="cls-3" d="m1322.89,1280.61c.23-1.56,1.04-2.56,2.67-2.77-.41,1.39-1.38,2.23-2.67,2.77Z"/>
  <path class="cls-3" d="m612.98,15.13c-1.11,1.29-2.61.75-3.97.84,1.15-1.1,2.56-.96,3.97-.84Z"/>
  <path class="cls-3" d="m1368.18,299.8c-1.44-.39-1.6-1.78-2.23-2.81,1.52.32,2.33,1.21,2.23,2.81Z"/>
  <path class="cls-3" d="m1377.07,310.92c-1.44-.45-2.1-1.47-2.12-2.94,1.2.63,1.88,1.63,2.12,2.94Z"/>
  <path class="cls-3" d="m1380.07,314.92c-1.43-.44-2.08-1.46-2.14-2.91,1.23.59,1.89,1.6,2.14,2.91Z"/>
  <path class="cls-3" d="m1433.84,399.98c-1.53-.19-1.94-1.13-1.71-2.51,1,.54,1.73,1.28,1.71,2.51Z"/>
  <path class="cls-3" d="m1325.22,247.88c-1.49-.28-2.14-1.28-2.33-2.69,1.28.46,1.96,1.44,2.33,2.69Z"/>
  <path class="cls-3" d="m154.07,303.95c-.02,1.49-.67,2.52-2.14,2.96.27-1.31.95-2.32,2.14-2.96Z"/>
  <path class="cls-3" d="m917.02,15.97c-1.36-.09-2.86.46-3.97-.84,1.41-.12,2.82-.26,3.97.84Z"/>
  <path class="cls-3" d="m482.06,53.91c-.67,1.22-1.84,1.06-2.95,1.09.75-.99,1.83-1.09,2.95-1.09Z"/>
  <path class="cls-3" d="m619.01,13.98c-.84,1.27-2.1.97-3.31.87.93-.93,2.11-.94,3.31-.87Z"/>
  <path class="cls-3" d="m1207.96,1382.32c.2-1.06.93-1.44,1.91-1.5-.36.85-.91,1.46-1.91,1.5Z"/>
  <path class="cls-3" d="m1201.96,1386.54c.15-1.27.94-1.71,2.13-1.63-.49.83-1.13,1.46-2.13,1.63Z"/>
  <path class="cls-3" d="m8.04,655.84c.03,1.04.26,2.11-.6,2.96-.33-1.1-.23-2.1.6-2.96Z"/>
  <path class="cls-3" d="m1194.96,1391.46c.18-1.2.97-1.6,2.08-1.57-.46.83-1.07,1.46-2.08,1.57Z"/>
  <path class="cls-3" d="m318.07,143.47c-.19,1.08-.92,1.48-1.93,1.53.38-.84.94-1.46,1.93-1.53Z"/>
  <path class="cls-3" d="m658.92,7.3c-.83.89-1.9.67-2.94.64.83-.9,1.85-.92,2.94-.64Z"/>
  <path class="cls-3" d="m1191.96,1393.48c.18-1.25.98-1.65,2.13-1.57-.48.84-1.15,1.42-2.13,1.57Z"/>
  <path class="cls-3" d="m1182.93,1398.93c.44-.9,1.22-1.07,2.11-1.01-.51.74-.86,1.83-2.11,1.01Z"/>
  <path class="cls-3" d="m1003.02,38.97c-1.12,0-2.3.21-3.02-.99,1.13-.03,2.23.02,3.02.99Z"/>
  <path class="cls-3" d="m526.02,37.97c-.72,1.21-1.91.99-3.03.99.8-.98,1.9-1.02,3.03-.99Z"/>
  <path class="cls-3" d="m297.06,159.21c-.11,1.27-.87,1.77-2.06,1.74.43-.89,1.07-1.52,2.06-1.74Z"/>
  <path class="cls-3" d="m999.99,37.97c-1.11,0-2.27.2-3-.97,1.12-.04,2.21.01,3,.97Z"/>
  <path class="cls-3" d="m980.99,1493.81c.74-1.15,1.91-.95,3.01-.95-.82.91-1.89,1.02-3.01.95Z"/>
  <path class="cls-3" d="m39.08,522.94c0,1.1.19,2.28-1,2.99-.05-1.13.07-2.19,1-2.99Z"/>
  <path class="cls-3" d="m1223.95,1370.49c.15-1.17.89-1.62,1.99-1.64-.38.88-1,1.49-1.99,1.64Z"/>
  <path class="cls-3" d="m1262.85,186.97c-1.11-.05-1.78-.56-1.89-1.71.95.22,1.57.8,1.89,1.71Z"/>
  <path class="cls-3" d="m55.1,479.01c-.04,1.09.16,2.27-1.08,2.91,0-1.1.09-2.18,1.08-2.91Z"/>
  <path class="cls-3" d="m1470.02,476.96c-1.23-.66-1.07-1.84-1.1-2.94.97.76,1.12,1.82,1.1,2.94Z"/>
  <path class="cls-3" d="m1228.89,1366.64c.18-1.23.9-1.8,2.13-1.76-.45.9-1.12,1.54-2.13,1.76Z"/>
  <path class="cls-3" d="m334.06,132.34c-.17,1.25-.98,1.65-2.13,1.58.48-.84,1.14-1.43,2.13-1.58Z"/>
  <path class="cls-3" d="m1306.17,227.87c-1.52.09-2.22-.63-2.12-2.14.71.71,1.41,1.43,2.12,2.14Z"/>
  <path class="cls-3" d="m1321.76,244.02c-1.16-.14-1.76-.8-1.83-1.96.94.35,1.59.96,1.83,1.96Z"/>
  <path class="cls-3" d="m1371.12,302.9c-1.12-.29-1.86-.95-2.03-2.14,1.24.18,1.79,1.02,2.03,2.14Z"/>
  <path class="cls-3" d="m204.14,244.17c-.14,1.1-.75,1.73-1.85,1.87.33-.91.82-1.66,1.85-1.87Z"/>
  <path class="cls-3" d="m202.14,246.18c-.14.99-.6,1.67-1.67,1.79.15-.97.78-1.5,1.67-1.79Z"/>
  <path class="cls-3" d="m1277.95,1325.44c.11-1.04.77-1.51,1.72-1.68-.2.95-.76,1.52-1.72,1.68Z"/>
  <path class="cls-3" d="m139.18,324.28c-.17.99.03,2.17-1.31,2.57.03-1.06.17-2.07,1.31-2.57Z"/>
  <path class="cls-3" d="m141,321.8c.11,1.23-.4,2.01-1.64,2.25.14-1.05.82-1.7,1.64-2.25Z"/>
  <path class="cls-3" d="m1286.97,1316.87c.02-1.34.71-2,2.05-1.98-.41.94-1.06,1.64-2.05,1.98Z"/>
  <path class="cls-3" d="m1385.01,1204c-.09-1.22.42-1.99,1.66-2.21-.14,1.05-.81,1.7-1.66,2.21Z"/>
  <path class="cls-3" d="m1373.61,305.97c-1.21-.16-1.64-.93-1.64-2.05.88.42,1.44,1.09,1.64,2.05Z"/>
  <path class="cls-3" d="m514.04,41.98c-.69,1.17-1.85.99-2.94,1.02.76-.96,1.82-1.08,2.94-1.02Z"/>
  <path class="cls-3" d="m1488.19,526.87c-1.2-.43-1.2-1.39-1.07-2.41.81.6.99,1.48,1.07,2.41Z"/>
  <path class="cls-3" d="m1502.06,574.96c-1.05-.56-1.09-1.5-.95-2.51.81.65,1,1.54.95,2.51Z"/>
  <path class="cls-3" d="m852.14,1520.41c.67-.17,1.34-.33,2.01-.5-.57.58-1.22.84-2.01.5Z"/>
  <path class="cls-3" d="m1199.16,137.85c-.84-.14-1.12-.73-1.21-1.47.83.14,1.17.69,1.21,1.47Z"/>
  <path class="cls-3" d="m159.08,297.21c-.04.78-.29,1.42-1.09,1.73.36-.58.72-1.15,1.09-1.73Z"/>
  <path class="cls-3" d="m907,1511.82c.58-.96,1.49-.95,2.44-.81-.65.75-1.51.88-2.44.81Z"/>
  <path class="cls-3" d="m979.08,1494.51c.62-.23,1.24-.45,1.86-.68-.47.64-1.09.86-1.86.68Z"/>
  <path class="cls-3" d="m985.04,1492.64c.51-.72,1.26-.8,2.06-.74-.54.65-1.23.88-2.06.74Z"/>
  <path class="cls-3" d="m161.03,294.88c0,.99-.25,1.81-1.42,1.97.47-.66.94-1.31,1.42-1.97Z"/>
  <path class="cls-3" d="m1126.95,1433.24c.13-.69.43-1.21,1.23-1.26-.09.73-.39,1.26-1.23,1.26Z"/>
  <path class="cls-3" d="m1160.01,1413.99c.33-.91,1.08-1.12,1.94-1.14-.65.38-1.29.76-1.94,1.14Z"/>
  <path class="cls-3" d="m1176,1403.95c.33-.86,1.04-1.08,1.86-1.13-.38.77-1.06,1.06-1.86,1.13Z"/>
  <path class="cls-3" d="m137.94,326.76c-.13.84-.71,1.13-1.46,1.22.14-.82.67-1.17,1.46-1.22Z"/>
  <path class="cls-3" d="m135.93,329.46c-.05.95-.61,1.39-1.49,1.51.5-.5.99-1.01,1.49-1.51Z"/>
  <path class="cls-3" d="m1197.95,1389.43c.1-.74.39-1.33,1.22-1.45-.05.78-.41,1.3-1.22,1.45Z"/>
  <path class="cls-3" d="m1199.08,1388.05c.31-1.08,1.14-1.17,2.06-1.12-.47.77-1.16,1.14-2.06,1.12Z"/>
  <path class="cls-3" d="m1210.99,1379.94c.3-.83.99-1.06,1.77-1.17-.35.76-.98,1.08-1.77,1.17Z"/>
  <path class="cls-3" d="m1215,1376.98c.29-.85.98-1.09,1.77-1.19-.34.77-.98,1.08-1.77,1.19Z"/>
  <path class="cls-3" d="m1226.99,1367.93c.3-.81.98-1.05,1.74-1.16-.31.8-.96,1.07-1.74,1.16Z"/>
  <path class="cls-3" d="m1267.94,1334.43c.09-.73.38-1.31,1.17-1.5-.08.74-.36,1.32-1.17,1.5Z"/>
  <path class="cls-3" d="m1414.09,365.91c-.91-.33-1.13-1.08-1.15-1.94.38.65.77,1.29,1.15,1.94Z"/>
  <path class="cls-3" d="m93.93,397.45c0,.85-.45,1.33-1.26,1.52,0-.86.62-1.19,1.26-1.52Z"/>
  <path class="cls-3" d="m1269.03,1333c.27-.88.96-1.11,1.77-1.15-.33.79-.98,1.08-1.77,1.15Z"/>
  <path class="cls-3" d="m1281.9,1321.65c.11-.79.35-1.49,1.26-1.67-.04.84-.4,1.44-1.26,1.67Z"/>
  <path class="cls-3" d="m1283.08,1320.06c.23-.96.96-1.16,1.8-1.2-.34.79-.95,1.18-1.8,1.2Z"/>
  <path class="cls-3" d="m1318.95,1284.78c.04-.84.24-1.57,1.19-1.81-.02.85-.38,1.48-1.19,1.81Z"/>
  <path class="cls-3" d="m1333.11,256.89c-.89-.27-1.12-.96-1.16-1.78.8.33,1.09.98,1.16,1.78Z"/>
  <path class="cls-3" d="m1320.07,1283.05c.19-.9.88-1.14,1.67-1.26-.22.87-.83,1.2-1.67,1.26Z"/>
  <path class="cls-3" d="m906.99,13.98c-.6-.16-1.2-.32-1.8-.47.74-.37,1.31-.11,1.8.47Z"/>
  <path class="cls-3" d="m1331.95,1270.7c.04-.81.28-1.5,1.16-1.77-.07.8-.36,1.45-1.16,1.77Z"/>
  <path class="cls-3" d="m1339.08,1262.33c.07-.97.68-1.38,1.57-1.47-.53.49-1.05.98-1.57,1.47Z"/>
  <path class="cls-3" d="m1044.1,53.93c-.85.05-1.62-.09-2.11-.9.85-.05,1.57.22,2.11.9Z"/>
  <path class="cls-3" d="m194.13,255.11c-.09.8-.32,1.51-1.21,1.78.07-.82.38-1.47,1.21-1.78Z"/>
  <path class="cls-3" d="m1390.09,1196.39c.04-.96.6-1.41,1.5-1.53-.5.51-1,1.02-1.5,1.53Z"/>
  <path class="cls-3" d="m1392.01,1193.99c-.03-.96.16-1.79,1.28-2.03-.42.68-.85,1.35-1.28,2.03Z"/>
  <path class="cls-3" d="m1412.95,1161.86c.02-.86.23-1.61,1.15-1.95-.38.65-.76,1.3-1.15,1.95Z"/>
  <path class="cls-3" d="m205.95,242.77c-.19.91-.89,1.15-1.68,1.27.23-.87.84-1.22,1.68-1.27Z"/>
  <path class="cls-3" d="m207.07,241.05c-.04.84-.25,1.56-1.19,1.8.02-.85.39-1.47,1.19-1.8Z"/>
  <path class="cls-3" d="m1481.93,1017.83c.24-.62.47-1.24.71-1.85.18.78-.05,1.4-.71,1.85Z"/>
  <path class="cls-3" d="m242.94,205.77c-.23.96-.96,1.16-1.8,1.2.34-.8.95-1.19,1.8-1.2Z"/>
  <path class="cls-3" d="m1487.12,1001.37c-.12-1.02-.13-1.98,1.07-2.41-.07.93-.26,1.81-1.07,2.41Z"/>
  <path class="cls-3" d="m366.01,111.83c-.33.92-1.08,1.13-1.94,1.15.65-.38,1.29-.77,1.94-1.15Z"/>
  <path class="cls-3" d="m244.12,204.18c-.11.79-.34,1.49-1.26,1.67.04-.85.41-1.44,1.26-1.67Z"/>
  <path class="cls-3" d="m1177.89,123c-.83-.05-1.56-.26-1.88-1.14.63.38,1.26.76,1.88,1.14Z"/>
  <path class="cls-3" d="m1270.83,193.97c-.82-.04-1.52-.26-1.8-1.15.8.07,1.46.36,1.8,1.15Z"/>
  <path class="cls-3" d="m1193.51,133.82c-1-.03-1.44-.66-1.64-1.54.88.16,1.3.8,1.64,1.54Z"/>
  <path class="cls-3" d="m620.84,13.51c-.6.16-1.21.32-1.81.47.49-.59,1.07-.84,1.81-.47Z"/>
  <path class="cls-3" d="m656,7.93c-.58,1.05-1.23,1.11-1.95.15.65-.05,1.3-.1,1.95-.15Z"/>
  <path class="cls-3" d="m6.01,671.77c-.16.67-.32,1.34-.48,2.01-.36-.8-.09-1.44.48-2.01Z"/>
  <path class="cls-3" d="m328.07,136.41c-.1.74-.39,1.31-1.21,1.44.05-.78.39-1.32,1.21-1.44Z"/>
  <path class="cls-3" d="m909.46,14.81c-.96.14-1.87.15-2.45-.83.94-.08,1.8.06,2.45.83Z"/>
  <path class="cls-3" d="m315.03,145.87c-.3.84-1,1.08-1.79,1.18.35-.77,1-1.08,1.79-1.18Z"/>
  <path class="cls-3" d="m901.07,12.95c-.65-.18-1.29-.36-1.94-.54.78-.3,1.41-.05,1.94.54Z"/>
  <path class="cls-3" d="m626.89,12.42c-.65.18-1.29.36-1.94.53.53-.59,1.16-.84,1.94-.53Z"/>
  <path class="cls-3" d="m855.1,5.94c-.63-.13-1.25-.26-1.88-.39.74-.43,1.34-.16,1.88.39Z"/>
  <path class="cls-3" d="m10.03,642.86c-.18.65-.37,1.29-.55,1.93-.3-.78-.11-1.43.55-1.93Z"/>
  <path class="cls-3" d="m642.99,9.9c-.56,1.08-1.21,1.14-1.94.17.65-.06,1.3-.11,1.94-.17Z"/>
  <path class="cls-3" d="m10.2,640.95c.95.75.88,1.39-.19,1.94.06-.65.13-1.3.19-1.94Z"/>
  <path class="cls-3" d="m644.9,9.38c-.65.18-1.3.37-1.94.55.51-.67,1.16-.85,1.94-.55Z"/>
  <path class="cls-3" d="m14.91,616.49c.14.95.14,1.85-.81,2.43-.08-.93.07-1.78.81-2.43Z"/>
  <path class="cls-3" d="m156.13,301.13c-.1.81-.35,1.52-1.24,1.78.13-.79.44-1.46,1.24-1.78Z"/>
  <path class="cls-3" d="m311.02,148.85c-.29.84-.98,1.09-1.77,1.18.34-.77.99-1.08,1.77-1.18Z"/>
  <path class="cls-3" d="m306.07,152.34c-.12.89-.56,1.45-1.52,1.5.5-.5,1.01-1,1.52-1.5Z"/>
  <path class="cls-3" d="m16.05,608.87c-.17.63-.34,1.26-.5,1.89-.31-.76-.07-1.37.5-1.89Z"/>
  <path class="cls-3" d="m1221.47,153.83c-.96-.05-1.4-.61-1.52-1.5.51.5,1.02,1,1.52,1.5Z"/>
  <path class="cls-3" d="m293.99,161.75c-.22.91-.92,1.18-1.74,1.28.29-.82.97-1.11,1.74-1.28Z"/>
  <path class="cls-3" d="m1231.04,160.94c-.98,0-1.8-.25-1.96-1.4.65.47,1.31.93,1.96,1.4Z"/>
  <path class="cls-3" d="m34.03,538.8c-.18.34-.35.69-.53,1.03.18-.34.35-.69.53-1.03Z"/>
  <path class="cls-3" d="m1228.68,158.93c-.26-.1-.46-.26-.61-.49.37-.06.57.11.61.49Z"/>
  <path class="cls-3" d="m299.03,157.93c-.41.32-.83.64-1.24.95.41-.32.83-.64,1.24-.95Z"/>
  <path class="cls-3" d="m291.06,164.03c-.37.3-.74.61-1.11.91.37-.3.74-.61,1.11-.91Z"/>
  <path class="cls-3" d="m35.01,535.75c-.19.36-.37.73-.56,1.09.19-.36.37-.73.56-1.09Z"/>
  <path class="cls-3" d="m38.07,525.94c-.05.32-.18.6-.41.83.14-.28.27-.55.41-.83Z"/>
  <path class="cls-3" d="m1254.72,180c-.3-.15-.53-.38-.69-.66.23.22.46.44.69.66Z"/>
  <path class="cls-3" d="m14.01,619.76c-.13.34-.26.68-.39,1.01.13-.34.26-.67.39-1.01Z"/>
  <path class="cls-3" d="m13.27,622.95c.08.24.2.47.23.72,0,.06-.23.16-.35.24-.1-.34-.06-.66.12-.96Z"/>
  <path class="cls-3" d="m13,625.69c-.16.38-.32.75-.48,1.12.16-.38.32-.75.48-1.12Z"/>
  <path class="cls-3" d="m313.09,147.15c-.32.28-.64.56-.96.84.32-.28.64-.56.96-.84Z"/>
  <path class="cls-3" d="m1255.76,180.99c-.28-.26-.55-.52-.83-.78.28.26.55.52.83.78Z"/>
  <path class="cls-3" d="m265,185.29c-.16.3-.39.54-.69.7.23-.23.46-.46.69-.7Z"/>
  <path class="cls-3" d="m1203.84,140.95c-.29-.3-.59-.59-.88-.89.29.3.59.59.88.89Z"/>
  <path class="cls-3" d="m323.06,140.06c-.39.28-.78.57-1.17.85.39-.28.78-.57,1.17-.85Z"/>
  <path class="cls-3" d="m262.05,188.04c-.33.31-.67.61-1,.92.33-.31.67-.61,1-.92Z"/>
  <path class="cls-3" d="m157.07,299.98c-.28.34-.56.67-.83,1.01.28-.34.55-.67.83-1.01Z"/>
  <path class="cls-3" d="m41.08,516.98c-.06.31-.2.58-.42.8.14-.27.28-.53.42-.8Z"/>
  <path class="cls-3" d="m7.02,663.76c-.11.33-.23.66-.34.98.11-.33.23-.66.34-.98Z"/>
  <path class="cls-3" d="m42.94,512.46c-.28.49-.56.98-.84,1.48.28-.49.56-.98.84-1.48Z"/>
  <path class="cls-3" d="m257.98,191.72c-.4.39-.8.77-1.2,1.16.4-.39.8-.77,1.2-1.16Z"/>
  <path class="cls-3" d="m1196.46,135.84c-.74-.06-1.23-.43-1.4-1.17.47.39.94.78,1.4,1.17Z"/>
  <path class="cls-3" d="m330.96,134.66c-.17.75-.65,1.11-1.4,1.18.46-.39.93-.79,1.4-1.18Z"/>
  <path class="cls-3" d="m1269.09,192.89c-.35-.39-.7-.77-1.05-1.16.35.39.7.77,1.05,1.16Z"/>
  <path class="cls-3" d="m54.04,481.88c-.2.32-.39.65-.59.97.2-.32.39-.65.59-.97Z"/>
  <path class="cls-3" d="m1191.56,132c-.15-.12-.3-.25-.43-.38,0,0,.35.02.35.02l.08.37Z"/>
  <path class="cls-3" d="m337.89,129.62c-.14.13-.28.25-.44.36,0,0,.09-.37.09-.37h.35Z"/>
  <path class="cls-3" d="m670.02,5.99c-.28.55-.61.64-.99.09.33-.03.66-.06.99-.09Z"/>
  <path class="cls-3" d="m1183.34,126.86c-.44-.35-.88-.69-1.32-1.04.44.35.88.7,1.32,1.04Z"/>
  <path class="cls-3" d="m256,193.3c-.25.21-.5.42-.74.64.25-.21.5-.42.74-.64Z"/>
  <path class="cls-3" d="m1180.34,124.86c-.44-.34-.88-.69-1.32-1.03.44.34.88.69,1.32,1.03Z"/>
  <path class="cls-3" d="m251.05,197.94c-.37.33-.75.66-1.12.99.37-.33.75-.66,1.12-.99Z"/>
  <path class="cls-3" d="m40.07,519.93c-.05.34-.19.62-.43.85.15-.28.29-.57.43-.85Z"/>
  <path class="cls-3" d="m357,117.26c-.3.24-.61.48-.91.72.3-.24.61-.48.91-.72Z"/>
  <path class="cls-3" d="m624.02,13.04c-.26.51-.57.62-.96.12.3-.18.63-.22.96-.12Z"/>
  <path class="cls-3" d="m1479.97,1022.96c.18-.32.35-.64.53-.96-.18.32-.35.64-.53.96Z"/>
  <path class="cls-3" d="m372.96,107.4c-.18.28-.43.47-.74.59.25-.2.5-.39.74-.59Z"/>
  <path class="cls-3" d="m1328.01,250.94c-.34-.37-.67-.75-1.01-1.12.34.37.67.75,1.01,1.12Z"/>
  <path class="cls-3" d="m1411.08,1164.35c.06-.71.41-1.2,1.12-1.39-.37.46-.75.93-1.12,1.39Z"/>
  <path class="cls-3" d="m1409.93,1166.76c.21-.27.41-.54.62-.8-.21.27-.41.54-.62.8Z"/>
  <path class="cls-3" d="m1397.07,1186.26c.35-.44.7-.89,1.05-1.33-.35.45-.7.89-1.05,1.33Z"/>
  <path class="cls-3" d="m195.08,254.08c-.28.3-.56.61-.85.91.28-.3.56-.61.85-.91Z"/>
  <path class="cls-3" d="m1046.93,54.99c-.31-.07-.58-.21-.79-.44.27.15.53.29.79.44Z"/>
  <path class="cls-3" d="m1333.03,1268.99c.38-.35.76-.7,1.14-1.06-.38.35-.76.7-1.14,1.06Z"/>
  <path class="cls-3" d="m902.97,13.16c-.39.5-.7.39-.97-.12.34-.1.66-.06.97.12Z"/>
  <path class="cls-3" d="m503.93,45.42c-.33.18-.65.35-.98.53.33-.18.65-.35.98-.53Z"/>
  <path class="cls-3" d="m1434.41,400.81c-.23-.2-.4-.44-.49-.72.16.24.33.48.49.72Z"/>
  <path class="cls-3" d="m92.1,400.12c-.1.27-.26.5-.48.69-.08-.38.08-.61.48-.69Z"/>
  <path class="cls-3" d="m1279.93,1323.54c.25-.24.51-.47.76-.71-.26.24-.51.47-.76.71Z"/>
  <path class="cls-3" d="m1017.87,44c-.27-.07-.51-.2-.71-.38.36-.15.6-.02.71.38Z"/>
  <path class="cls-3" d="m1274.97,1327.89c.38-.33.75-.66,1.13-.99-.38.33-.75.66-1.13.99Z"/>
  <path class="cls-3" d="m192.99,256.84c-.38.35-.75.71-1.13,1.06.38-.35.75-.71,1.13-1.06Z"/>
  <path class="cls-3" d="m114.94,361.48c-.06.71-.4,1.2-1.11,1.4.37-.47.74-.94,1.11-1.4Z"/>
  <path class="cls-3" d="m508.86,43.62c-.2.19-.44.31-.71.38.11-.4.35-.53.71-.38Z"/>
  <path class="cls-3" d="m1410.57,359.88c-.21-.28-.43-.55-.64-.83.21.28.43.55.64.83Z"/>
  <path class="cls-3" d="m1013.47,42.84c-.49-.28-.98-.57-1.47-.85.49.28.98.57,1.47.85Z"/>
  <path class="cls-3" d="m1219.95,1373.48c.27-.2.54-.39.81-.59-.27.2-.54.39-.81.59Z"/>
  <path class="cls-3" d="m1219.12,1374.21c.13-.13.27-.25.4-.37,0,0-.06.36-.06.36h-.34Z"/>
  <path class="cls-3" d="m116.09,359.07c-.21.27-.41.53-.62.8.21-.27.41-.53.62-.8Z"/>
  <path class="cls-3" d="m1212.93,1378.65c.32-.27.64-.54.97-.81-.32.27-.64.54-.97.81Z"/>
  <path class="cls-3" d="m1408.69,356.9c-.25-.31-.49-.63-.74-.94.25.31.49.63.74.94Z"/>
  <path class="cls-3" d="m1011.97,41.97c-.33-.05-.61-.19-.83-.43.28.14.55.28.83.43Z"/>
  <path class="cls-3" d="m1008.98,40.98c-.29-.16-.58-.33-.87-.49.29.17.58.33.87.49Z"/>
  <path class="cls-3" d="m118.08,356c-.24.3-.49.6-.73.9.24-.3.49-.6.73-.9Z"/>
  <path class="cls-3" d="m122.95,348.58c-.32.45-.64.9-.96,1.35.32-.45.64-.9.96-1.35Z"/>
  <path class="cls-3" d="m517.91,40.49c-.29.16-.58.33-.87.49.29-.16.58-.33.87-.49Z"/>
  <path class="cls-3" d="m1006.04,39.96c-.31-.16-.61-.31-.92-.47.31.16.61.31.92.47Z"/>
  <path class="cls-3" d="m1185.01,1397.93c.45-.32.9-.64,1.35-.96-.45.32-.9.64-1.35.96Z"/>
  <path class="cls-3" d="m520.9,39.49c-.31.15-.61.31-.92.46.31-.15.61-.31.92-.46Z"/>
  <path class="cls-3" d="m1334.18,257.89c-.38-.35-.77-.7-1.15-1.05.38.35.77.7,1.15,1.05Z"/>
  <path class="cls-3" d="m1169.02,1408.57c.3-.24.6-.49.9-.73-.3.24-.6.49-.9.73Z"/>
  <path class="cls-3" d="m180.02,271.23c-.12.3-.32.52-.6.66.2-.22.4-.44.6-.66Z"/>
  <path class="cls-3" d="m1128.14,1432.09c.12-.9.41-.92.85-.16,0,0-.4.18-.4.18h-.44Z"/>
  <path class="cls-3" d="m147.11,313.16c-.13.28-.32.51-.58.69.19-.23.39-.46.58-.69Z"/>
  <path class="cls-3" d="m1022.1,1480.39c.32-.17.64-.34.95-.52-.32.17-.64.34-.95.52Z"/>
  <path class="cls-3" d="m1019.07,1481.48c.36-.19.71-.39,1.07-.58-.36.19-.71.39-1.07.58Z"/>
  <path class="cls-3" d="m526.89,37.54c-.24.24-.52.39-.86.43.29-.14.57-.29.86-.43Z"/>
  <path class="cls-3" d="m1011.15,1484.24c.23-.22.5-.35.82-.4-.27.13-.55.26-.82.4Z"/>
  <path class="cls-3" d="m148.08,312.02c-.28.32-.56.64-.84.96.28-.32.56-.64.84-.96Z"/>
  <path class="cls-3" d="m575.94,23.38c-.37.17-.75.35-1.13.52.37-.17.75-.35,1.13-.52Z"/>
  <path class="cls-3" d="m149.03,310.83c-.3.38-.6.76-.9,1.13.3-.38.6-.76.9-1.13Z"/>
  <path class="cls-3" d="m150.1,309.17c-.14.3-.35.54-.62.71.21-.24.42-.47.62-.71Z"/>
  <path class="cls-3" d="m902,1512.77c.26-.5.58-.61.96-.12,0,0-.47.16-.47.16l-.49-.04Z"/>
  <path class="cls-3" d="m905.15,1512.3c.34-.13.68-.26,1.03-.39-.34.13-.69.26-1.03.39Z"/>
  <path class="cls-3" d="m899.1,1513.41c.37-.16.75-.32,1.12-.49-.37.16-.75.32-1.12.49Z"/>
  <path class="cls-3" d="m861.19,1519.22c.32-.11.63-.22.95-.32-.32.11-.63.22-.95.32Z"/>
  <path class="cls-3" d="m1369.13,300.82c-.34-.35-.68-.69-1.02-1.04.34.35.68.69,1.02,1.04Z"/>
  <path class="cls-3" d="m608,16.12c-.49.24-.97.48-1.46.72.49-.24.98-.48,1.46-.72Z"/>
  <path class="cls-3" d="m664.85,6.58c-.33.12-.66.23-.99.35.33-.12.66-.23.99-.35Z"/>
  <path class="cls-1" d="m1134.99,444.96c1.99-.97,3.97-1.94,5.96-2.92,2.22-.67,4.55-1.11,6.16-3.03,6.03-3.1,12.07-6.21,18.87-9.71-3.99,13.8-10.32,25.83-16.99,37.72-1.07.72-1.33,1.81-1.37,3-1.97,1.92-3.84,3.91-4.76,6.59-.35.43-.7.86-1.05,1.29-6.51,8.94-14.39,16.7-21.55,25.08-2.94,3.45-7.25,5.16-10.36,8.38-.2.2-.41.41-.61.62-1.43,1.12-2.87,2.24-4.3,3.36-.5.49-1.01.99-1.51,1.48-.85.47-1.7.93-2.55,1.4-.27.25-.55.5-.83.76-.39.29-.77.58-1.16.87-.79.1-1.46.39-1.83,1.17,0,0-.1.07-.1.07-2.31.66-4.24,1.87-6.15,4.16,2.49.27,4.28-.22,6.05-.84.29.1.53.03.72-.23,3.27.79,6.31-.14,9.34-1.2,4.73-.88,9.46-1.75,14.19-2.63.28-.11.56-.23.84-.35,0,0-.01,0-.01,0,1.44,0,2.92.16,4.09-.99,1.01-.16,2.03-.33,3.04-.49.76.32,1.36.08,1.85-.54,0,0,.01,0,.01,0,1.17.08,2.3.01,3.18-.92,10.25-1.81,19.94-5.55,29.78-8.77.33-.13.67-.27,1-.4,1.38-.46,2.76-.92,4.13-1.37.3-.17.61-.35.92-.53.71-.2,1.42-.4,2.13-.6.26-.14.53-.28.79-.42.7-.29,1.39-.58,2.09-.88,1.11-.03,2.18-.17,2.94-1.12,3.43-1.31,6.86-2.63,10.51-4.03.03,2.67-2.05,3.57-2.46,5.33-.39.02-.56.22-.52.6-.18.36-.35.72-.53,1.08-.84.44-1.46,1.05-1.57,2.05-.48.75-.97,1.5-1.45,2.25-.23.26-.47.51-.7.77,0,0-.22.27-.22.26-.4.01-.57.21-.52.58-.54.92-1.09,1.83-1.63,2.75-.47.46-.93.92-1.4,1.39-.54.84-1.08,1.68-1.62,2.52-.52.49-1.05.98-1.57,1.47-3.81,4.85-7.62,9.7-11.43,14.55-.42.44-.85.88-1.27,1.32-.27.03-.49.15-.65.37-.22.23-.43.46-.65.69-8.6,9.82-17.89,18.96-27.35,27.95-1.27.28-2.22.92-2.61,2.22,0,0-.32.23-.32.23-.26.23-.52.46-.78.69,0,0-.22.19-.22.19-.3.26-.6.53-.9.79-.37.35-.74.7-1.11,1.04-1.02.28-1.66.99-2.13,1.89-.66.49-1.32.99-1.97,1.48-.38-.03-.6.15-.65.53-1.41,1.17-2.83,2.35-4.24,3.52-.47.47-.94.93-1.42,1.4-1.55.35-2.49,1.55-3.58,2.54-.8.16-1.15.69-1.21,1.47,0,0,.07-.07.07-.07-1.49.3-2.76.93-3.56,2.29,0,0-.24.19-.24.19-.54.52-1.07,1.04-1.61,1.56-2.82.68-3.42,2.7-3.41,5.29.08,15.29.54,30.61-.13,45.87-.23,5.13-1.05,10.4-1.45,15.6-1.22,15.93-3.92,31.63-6.5,47.36-.38.18-.48.44-.28.77-.14.77-.27,1.54-.41,2.31-.1.64-.19,1.28-.29,1.92-.05.55-.1,1.1-.15,1.66-.19.43-.37.85-.56,1.27-.15,1.25-.3,2.5-.45,3.75-.7.62-.85,1.41-.76,2.29-.17.29-.22.61-.15.94-.59.54-.85,1.18-.59,1.98-.18,1.54-.37,3.08-.55,4.63-.8.64-.94,1.51-.87,2.46,0,0,.02-.02.02-.02-.15.31-.31.61-.46.92-.52,2.34-1.03,4.69-1.55,7.03-.15.32-.29.64-.44.96-.14.72-.28,1.43-.42,2.15-.18.3-.23.61-.17.95,0,0,.02-.02.02-.02-.98.81-.98,1.92-.93,3.04,0,0-.02.05-.02.05-.38.15-.49.4-.31.73-.23,1.07-.47,2.13-.7,3.2-.12.28-.24.56-.36.84-1.42,7.45-3.33,15.11-5.98,21.84-6.13,15.57-11.32,31.55-18.46,46.73-5.51,11.71-11.12,23.37-16.79,35.01-4.62,9.49-10.84,18.01-15.44,27.47-.26.38-.53.76-.79,1.14,0,0-.13.18-.13.18-.4.06-.57.29-.51.67-5.52,8.45-11.04,16.9-16.56,25.36-.39.07-.56.29-.52.67-.48.73-.96,1.47-1.44,2.2-.25.3-.49.61-.74.91,0,0-.24.28-.24.28-.38.02-.54.21-.48.57-.19.37-.37.75-.56,1.12-1.15.67-1.88,1.64-2.1,2.97-.34.54-.68,1.07-1.02,1.61-.46.48-.91.96-1.37,1.44-.49.7-.98,1.41-1.47,2.11-.87.34-1.48.88-1.55,1.88-2.83,3.68-5.65,7.36-8.48,11.05-.27.32-.55.64-.82.96-1.39,1.71-2.78,3.41-4.17,5.12-.24.27-.48.53-.72.8-1.77,2.09-3.53,4.18-5.3,6.26-.87.35-1.51.9-1.66,1.88,0,0-.34.32-.34.32,0,0-.4.09-.4.09l-.06.39c-.52.69-1.04,1.38-1.56,2.08-1.25.75-2.3,1.7-2.82,3.11,0,0-.12.11-.12.11-.26.26-.52.52-.78.78-.22.2-.35.45-.38.75-1.15.47-2.21,1.04-2.46,2.42,0,0-.31.3-.31.3-.85.19-1.1.77-1.02,1.56-4.7,4.74-9.39,9.48-14.09,14.21-1.24.48-2.01,1.35-2.2,2.68,0,0,.08-.07.08-.07-.83.04-1.43.41-1.74,1.2-.76.85-1.52,1.69-2.28,2.54-.34.45-.68.89-1.02,1.34,0,0,.03-.06.03-.06-.35.34-.7.68-1.05,1.02,0,0,.02-.03.02-.03-.34.34-.68.69-1.03,1.03,0,0,.04-.07.04-.07-.9-.02-1.54.38-1.92,1.19-.69.54-1.38,1.09-2.06,1.63,0,0-.34.03-.34.03l-.02.36c-.22.08-.35.23-.39.45-.84.14-1.15.73-1.24,1.49,0,0,.07-.05.07-.05-.41.34-.82.68-1.23,1.01-.3.02-.55.13-.76.35-.25.26-.51.52-.77.78,0,0-.15.15-.15.15-.26.26-.51.51-.77.77-10.25,9.8-21.77,18.06-32.89,26.8-3.99,3.14-8.32,5.86-12.49,8.77,0,0-.41.08-.41.08l-.12.41s-.34.27-.34.27c-.32.24-.64.47-.96.71-.71.43-1.41.87-2.12,1.3-.28.23-.56.47-.84.7-15.02,9.77-30.33,19.03-46.18,27.39-.3.2-.6.4-.89.6,0,0-.02.01-.02.01-.46.29-.91.58-1.37.86-12.06,5.43-24.03,11.07-36.21,16.21-8.71,3.68-17.65,6.86-26.59,9.96-33.03,11.45-66.99,18.7-101.67,23.07-31.16,3.92-62.43,5.02-93.68,3.36-58.63-3.12-115.1-16.18-169.14-39.41-23.14-9.95-45.39-21.55-66.75-34.89-1.23-.77-2.4-1.64-4.13-2.82,6.38-1.08,12.01,1.02,17.71.6,1.3,1.02,2.62.91,3.96.09,11.55,1.38,23.1,1.42,34.66.06.48.54.95.54,1.41-.03.94-.02,1.88-.04,2.82-.07.64.62,1.27.71,1.87-.05,23-1.08,45.58-4.93,67.8-10.81,45.44-12.03,86.9-32.25,124.2-60.91.51-.39.97-.83,1.62-1.4-79.58-6.54-133.6-46.66-161.93-121.26,13.04,1.35,25.77,2.05,38.56,1.72,12.67-.33,25.11-1.96,38.81-5.72-10.64-2.96-19.87-5.45-28.76-9.02-34.92-14.02-62.39-36.99-83.05-68.38-7.07-10.75-12.03-22.45-17.11-34.14-.28-.49-.56-.98-.84-1.47-.16-.84-.32-1.67-.47-2.51.24-1.32-.34-2.32-1.26-3.18-.54-4.25-2.95-7.92-3.9-11.96-1.29-5.5-1.43-11.27-2.54-16.82-1.44-7.21-.27-14.59-1.84-21.76.55-.52.55-1.03,0-1.55.1-.28.06-.52-.14-.74.06-.33.06-.65,0-.98,0,0,.04-.04.04-.04,1.33.01,2.66.03,4,.04,20.23,10.9,41.69,17.6,64.7,19.1.39.15.79.3,1.18.45,1.37.09,2.73.19,4.1.28,1.48.29,2.97.66,4.83-.58-1.92-1.24-3.39-2.18-4.86-3.13-.61-.39-1.23-.79-1.84-1.18-.66-.48-1.33-.95-1.99-1.43,0-.23-.11-.4-.31-.51-.58-.41-1.16-.81-1.74-1.22-.32-.28-.65-.56-.97-.84-.73-1.14-1.62-2.06-3.11-2.04-2.11-1.87-4.53-3.42-6.03-5.91-.34-.81-.95-1.2-1.82-1.21,0,0,.04.07.04.07-.35-.34-.69-.69-1.04-1.04,0,0,.07.04.07.04-.03-.86-.43-1.45-1.24-1.77-.5-.42-1.01-.83-1.51-1.25-.45-.34-.9-.68-1.35-1.02,0,0,.05.05.05.05-.34-.45-.68-.9-1.02-1.35-.86-2.42-3.12-3.71-4.6-5.63.02-.39-.17-.58-.57-.56,0,0-.28-.26-.28-.26-.44-1.43-1.43-2.38-2.69-3.09-.29-.35-.57-.69-.86-1.04-.13-.77-.43-1.41-1.24-1.69,0,0-.15-.19-.15-.19-.18-1.03-.84-1.68-1.73-2.13-.98-1.33-1.96-2.65-2.94-3.98-.21-1.33-.92-2.32-2.06-3.01-7.21-10.31-12.43-21.71-17.8-33.02-.13-1.12-.21-2.25-1.17-3.05-.2-.68-.4-1.36-.59-2.04-.15-.28-.3-.56-.45-.83-.56-1.74-1.12-3.48-1.67-5.22.16-.35.04-.59-.35-.73-4.59-15.77-8.17-31.72-8.43-48.25.46-2.2.52-4.4-.09-6.58.41-1.46.45-2.91,0-4.37.24-.24.26-.49.04-.75.09-2.05.18-4.1.27-6.14.17-.31.18-.62.04-.94.15-7.11,1.64-14.01,2.85-20.99,2.29-13.24,6.97-25.63,12.08-37.91,1.89-4.56,4.34-8.89,6.6-13.29,1.22-2.37,2.43-2.02,4.06-.12,5.57,6.52,11.29,12.91,16.95,19.35.22.21.44.43.66.64,0,0,.26.26.26.26.22.25.44.5.66.75.54.48,1.08.96,1.63,1.44.6,1.14,1.01,2.43,2.42,2.89,11.74,13.03,25.06,24.37,38.17,35.93.28.25.57.5.85.75,0,0,.22.19.22.19.27.83.95,1.08,1.71,1.23.53,1.08,1.35,1.77,2.55,1.98.5.53,1,1.06,1.5,1.6,11.42,9.15,22.8,18.35,35.17,26.21.32.81.99,1.08,1.78,1.15,6.32,4.87,13.14,8.95,20.05,12.91.65.38,1.29.76,1.94,1.14,14.22,8.81,28.78,17.07,44.08,23.77,13.56,5.94,26.78,12.78,41.03,17.08,0,0,.28.39.28.39l.45-.03c.74.22,1.47.43,2.21.65.28.16.57.32.85.49.68.18,1.37.36,2.05.55,1.13,1.11,2.64,1.24,4.08,1.58,5.66,1.8,11.32,3.6,16.99,5.39.27.12.54.24.82.35,2.05.55,4.1,1.11,6.15,1.66.51.64,1.16.87,1.96.68.64.12,1.29.24,1.93.36.86.93,1.97,1.02,3.14.93,0,0,.02,0,.02,0,.27.12.53.24.8.36.74.15,1.48.3,2.22.45.32.06.64.12.96.19,0,0,0,0,0,0,.8.93,1.86,1,2.98.9,18.78,5.12,37.85,8.79,57.15,11.17,11.86,1.47,23.78,2.47,35.66,3.74,5.41.58,6.31-.25,5.47-5.43-1.32-8.08-3.35-16.12-3.76-24.25-.29-5.78.44-11.69.46-17.57.06-16.06,4.59-31.41,8.3-46.84,1.29-5.36,4.35-10.27,6.23-15.52,3.63-10.11,10.11-18.69,14.87-28.2,1.93-3.85,5.96-6.6,8.31-10.31,4.45-7.01,10.71-12.25,16.39-18.07.38.01.57-.18.57-.56.47-.45.94-.9,1.42-1.35.24-.25.48-.49.72-.74,0,0,.2-.2.2-.2.29-.26.58-.53.87-.79.77-.8,1.53-1.61,2.3-2.41.68-.5,1.36-.99,2.04-1.49,16.54-14.93,36.15-24.44,56.81-32.09,1.12.03,2.21-.01,3.01-.98.35-.08.7-.16,1.05-.25.82.16,1.47-.12,2-.74,19.83-5.52,40-7.98,60.57-6.86,4.96.27,9.92.67,14.88,1.01.67.75,1.52.86,2.45.74.3.15.62.19.95.12.29.1.57.2.86.31,22.56,3.84,43.46,12.1,63.11,23.7.38.26.75.51,1.13.77,0,0,.21.15.21.15.05.39.27.57.64.51.37.18.74.36,1.11.53.34.24.69.48,1.03.72,0,0,.31.24.31.24,0,0,.13.41.13.41l.41.06c3.14,2.18,6.29,4.37,9.43,6.55.25.87.74,1.47,1.71,1.54.68.49,1.35.98,2.03,1.47.31.29.62.58.93.87.15.19.34.28.58.27.52.5,1.03.99,1.55,1.49.03.2.14.32.33.37,0,0,.07.4.07.4l.38.09c3.25,2.89,6.49,5.78,9.74,8.67,1.84,3.75,4.5,5.07,8.37,2.86,10.19-1.87,20.17-4.52,29.97-7.86.34-.07.67-.13,1.01-.2,1-.32,2.01-.64,3.01-.97,1.13.05,2.23,0,3.03-.97,1.99-.67,3.97-1.34,5.96-2.01,1.13.06,2.18-.08,2.96-1.03,0,0,.04-.02.04-.02,1.92-.03,3.63-.58,5.04-1.93,0,0-.02.01-.02.01,1.12,0,2.21-.06,2.99-1.03,1.37-.5,2.74-1,4.11-1.49.3-.17.59-.34.89-.51,1.32-.52,2.64-1.04,3.96-1.55.34-.17.67-.34,1.01-.52,2.7-1.21,5.4-2.42,8.1-3.63,1.08-.2,2.21-.3,2.93-1.3Z"/>
  <path class="cls-3" d="m1096.92,524.37c-1.77.62-3.55,1.12-6.05.84,1.9-2.29,3.83-3.49,6.15-4.16-.03,1.1-.07,2.21-.1,3.31Z"/>
  <path class="cls-3" d="m1059.99,469.95c-3.87,2.21-6.54.88-8.37-2.86,3.11.01,4.76,4.3,8.37,2.86Z"/>
  <path class="cls-3" d="m443,678.06c1.47.95,2.94,1.89,4.86,3.13-1.85,1.23-3.35.86-4.83.58-.01-1.24-.02-2.47-.03-3.71Z"/>
  <path class="cls-3" d="m1106.97,522.94c-3.03,1.06-6.07,2-9.34,1.2,2.92-1.87,6.19-1.04,9.34-1.2Z"/>
  <path class="cls-3" d="m1147.12,439.01c-1.61,1.92-3.94,2.36-6.16,3.03,1.35-2.45,3.56-3.13,6.16-3.03Z"/>
  <path class="cls-3" d="m373.05,661.93c-1.33-.01-2.66-.03-4-.04.1-.88-.3-2.32.81-2.36,1.41-.05,2.24,1.41,3.18,2.4Z"/>
  <path class="cls-3" d="m371.52,536.17c.61,2.19.54,4.38.09,6.58-.92-2.18-.82-4.38-.09-6.58Z"/>
  <path class="cls-3" d="m377.45,715.75c.92.86,1.5,1.86,1.26,3.18-1.51-.63-3.86-.93-1.26-3.18Z"/>
  <path class="cls-3" d="m1111.01,454.98c-1.41,1.35-3.13,1.9-5.04,1.93,1.34-1.54,3.06-2.07,5.04-1.93Z"/>
  <path class="cls-3" d="m972.15,950.97c.52-1.42,1.57-2.36,2.82-3.11.26,2.13-.63,3.21-2.82,3.11Z"/>
  <path class="cls-3" d="m420.04,476.99c-1.41-.46-1.82-1.75-2.42-2.89,2.29-.28,2.46,1.22,2.42,2.89Z"/>
  <path class="cls-3" d="m1130.32,567.05c.39-1.3,1.35-1.95,2.61-2.22.09,1.87-1.2,2.11-2.61,2.22Z"/>
  <path class="cls-3" d="m1108.31,585.04c.8-1.36,2.07-1.99,3.56-2.29-.43,1.94-1.96,2.18-3.56,2.29Z"/>
  <path class="cls-3" d="m619.03,604.54c-1.43-.34-2.94-.48-4.08-1.58,1.5.16,3.42-.76,4.08,1.58Z"/>
  <path class="cls-3" d="m411.05,647.92c1.26.72,2.25,1.66,2.69,3.09-1.7-.33-2.66-1.31-2.69-3.09Z"/>
  <path class="cls-3" d="m968.41,955.02c.25-1.38,1.31-1.95,2.46-2.42.27,1.91-.97,2.29-2.46,2.42Z"/>
  <path class="cls-3" d="m433.03,670.83c1.49-.02,2.38.89,3.11,2.04-1.54.09-2.55-.63-3.11-2.04Z"/>
  <path class="cls-3" d="m359.14,1032.93c-1.34.82-2.66.93-3.96-.09,1.32.03,2.64.06,3.96.09Z"/>
  <path class="cls-3" d="m950.8,973.77c.19-1.34.96-2.2,2.2-2.68-.1,1.41-.73,2.39-2.2,2.68Z"/>
  <path class="cls-3" d="m1003.89,911.87c.22-1.33.94-2.3,2.1-2.97,0,1.48-.67,2.5-2.1,2.97Z"/>
  <path class="cls-3" d="m1126.08,518.98c-1.17,1.14-2.65.99-4.09.99,1.07-1.54,2.66-.91,4.09-.99Z"/>
  <path class="cls-3" d="m402.07,635.88c1.15.69,1.86,1.68,2.06,3.01-1.43-.49-2.09-1.52-2.06-3.01Z"/>
  <path class="cls-3" d="m407.07,642.87c.89.45,1.55,1.1,1.73,2.13-1.21-.2-1.77-.92-1.73-2.13Z"/>
  <path class="cls-3" d="m656.99,615.83c-1.11.1-2.17.03-2.98-.9,1.08,0,2.23-.21,2.98.9Z"/>
  <path class="cls-3" d="m650.01,613.92c-1.16.09-2.28,0-3.14-.93,1.15-.05,2.36-.29,3.14.93Z"/>
  <path class="cls-3" d="m383.1,599.82c.96.8,1.05,1.93,1.17,3.05-1.47-.6-1.18-1.88-1.17-3.05Z"/>
  <path class="cls-3" d="m1124.86,571.88c.47-.9,1.12-1.61,2.13-1.89-.09,1.34-.82,1.95-2.13,1.89Z"/>
  <path class="cls-3" d="m977.34,944.98c.14-.99.79-1.53,1.66-1.88-.04,1.08-.62,1.68-1.66,1.88Z"/>
  <path class="cls-3" d="m1134.17,517.02c-.88.93-2.01,1-3.18.92.79-1.25,2.01-.99,3.18-.92Z"/>
  <path class="cls-3" d="m1183.38,507.95c.11-1,.74-1.6,1.57-2.05,0,1.09-.4,1.87-1.57,2.05Z"/>
  <path class="cls-3" d="m1177.95,502.93c-.76.95-1.83,1.09-2.94,1.12.62-1.31,1.83-1.09,2.94-1.12Z"/>
  <path class="cls-3" d="m1147.63,470.01c.04-1.19.3-2.28,1.37-3-.03,1.19.06,2.44-1.37,3Z"/>
  <path class="cls-3" d="m1097.01,459.96c-.8.97-1.9,1.02-3.03.97.74-1.18,1.91-.97,3.03-.97Z"/>
  <path class="cls-3" d="m1105.93,456.92c-.77.95-1.83,1.09-2.96,1.03.69-1.18,1.86-1,2.96-1.03Z"/>
  <path class="cls-3" d="m1086.01,739.91c-.05-1.12-.06-2.23.93-3.04.04,1.12.24,2.29-.93,3.04Z"/>
  <path class="cls-3" d="m1113.98,453.95c-.78.97-1.87,1.04-2.99,1.03.69-1.24,1.87-1.03,2.99-1.03Z"/>
  <path class="cls-3" d="m1036,453.47c-.97-.07-1.46-.67-1.71-1.54.97.07,1.57.55,1.71,1.54Z"/>
  <path class="cls-3" d="m1134.99,444.96c-.73,1-1.85,1.09-2.93,1.3.49-1.54,1.78-1.26,2.93-1.3Z"/>
  <path class="cls-3" d="m874.01,423.96c-.79.97-1.89,1.01-3.01.98.73-1.18,1.9-.98,3.01-.98Z"/>
  <path class="cls-3" d="m998.47,918.91c.07-1,.68-1.54,1.55-1.88-.07,1-.48,1.71-1.55,1.88Z"/>
  <path class="cls-3" d="m954.97,417.86c-.93.13-1.78.01-2.45-.74.93-.14,1.83-.18,2.45.74Z"/>
  <path class="cls-3" d="m877.06,422.98c-.53.62-1.19.9-2,.74.67-.25,1.34-.49,2-.74Z"/>
  <path class="cls-3" d="m1123.96,449.88c-.34.17-.67.35-1.01.52.17-.49.16-1.36,1.01-.52Z"/>
  <path class="cls-3" d="m399.91,1032.84c-.6.77-1.23.68-1.87.05.62-.02,1.25-.03,1.87-.05Z"/>
  <path class="cls-3" d="m1041.09,457.56c-.52-.5-1.03-.99-1.55-1.49.94.05,1.34.67,1.55,1.49Z"/>
  <path class="cls-3" d="m814.19,457.02c-.68.49-1.36.99-2.04,1.49.13-1.25.97-1.52,2.04-1.49Z"/>
  <path class="cls-3" d="m937.87,985.83c.09-.76.4-1.35,1.24-1.49-.41.5-.83,1-1.24,1.49Z"/>
  <path class="cls-3" d="m941.93,981.86c.39-.81,1.03-1.21,1.92-1.19-.23,1.07-1.04,1.19-1.92,1.19Z"/>
  <path class="cls-3" d="m949.14,974.9c.32-.79.91-1.16,1.74-1.2-.22.93-.92,1.15-1.74,1.2Z"/>
  <path class="cls-3" d="m967.09,956.87c-.08-.79.17-1.37,1.02-1.56-.34.52-.68,1.04-1.02,1.56Z"/>
  <path class="cls-3" d="m1174.28,519.95c.52-.49,1.05-.98,1.57-1.47-.07.97-.68,1.37-1.57,1.47Z"/>
  <path class="cls-3" d="m1097.11,520.98c.36-.77,1.04-1.07,1.83-1.17-.31.86-1.02,1.09-1.83,1.17Z"/>
  <path class="cls-3" d="m1001.49,914.92c.46-.48.91-.96,1.37-1.44-.04.87-.56,1.3-1.37,1.44Z"/>
  <path class="cls-3" d="m1089.93,724.9c-.07-.94.07-1.82.87-2.46.13.97.16,1.9-.87,2.46Z"/>
  <path class="cls-3" d="m1091.35,717.81c-.26-.8,0-1.44.59-1.98-.2.66-.39,1.32-.59,1.98Z"/>
  <path class="cls-3" d="m1092.09,714.89c-.1-.88.06-1.67.76-2.29.12.89.11,1.73-.76,2.29Z"/>
  <path class="cls-3" d="m1094,705.91c.1-.64.19-1.28.29-1.92.83.78.65,1.4-.29,1.92Z"/>
  <path class="cls-3" d="m1164.94,507.85c-.33.13-.67.27-1,.4.18-.51.3-1.2,1-.4Z"/>
  <path class="cls-3" d="m439.16,675.44c.66.48,1.33.95,1.99,1.43-1.01,0-1.84-.24-1.99-1.43Z"/>
  <path class="cls-3" d="m437.11,673.71c.58.41,1.16.81,1.74,1.22-.83-.05-1.51-.31-1.74-1.22Z"/>
  <path class="cls-3" d="m425.17,663.71c.87,0,1.48.41,1.82,1.21-.85-.04-1.6-.24-1.82-1.21Z"/>
  <path class="cls-3" d="m460.99,515.09c-.76-.15-1.44-.4-1.71-1.23.78.12,1.46.37,1.71,1.23Z"/>
  <path class="cls-3" d="m1103.48,516.8c.5-.49,1.01-.99,1.51-1.48-.13.88-.57,1.44-1.51,1.48Z"/>
  <path class="cls-3" d="m1177.46,515.96c.47-.46.93-.92,1.4-1.38-.07.86-.61,1.25-1.4,1.38Z"/>
  <path class="cls-3" d="m423.01,661.03c.81.31,1.21.91,1.24,1.77-.95-.21-1.17-.94-1.24-1.77Z"/>
  <path class="cls-3" d="m465.05,518.67c-.5-.53-1-1.06-1.5-1.6.99.07,1.41.68,1.5,1.6Z"/>
  <path class="cls-3" d="m408.95,645.2c.8.28,1.11.92,1.24,1.69-.84-.25-1.1-.92-1.24-1.69Z"/>
  <path class="cls-3" d="m1130.98,517.95c-.49.62-1.09.87-1.85.54.62-.18,1.24-.36,1.85-.54Z"/>
  <path class="cls-3" d="m644.94,612.63c-.8.18-1.45-.04-1.96-.68.65.23,1.31.46,1.96.68Z"/>
  <path class="cls-3" d="m1106.46,586.79c.53-.52,1.07-1.04,1.61-1.56-.19.88-.61,1.51-1.61,1.56Z"/>
  <path class="cls-3" d="m1111.79,582.82c.06-.77.41-1.31,1.21-1.47-.09.75-.39,1.32-1.21,1.47Z"/>
  <path class="cls-3" d="m502.01,546.02c-.8-.07-1.47-.33-1.78-1.15.79.09,1.47.32,1.78,1.15Z"/>
  <path class="cls-3" d="m524,560.06c-.65-.38-1.29-.76-1.94-1.14.85.02,1.6.24,1.94,1.14Z"/>
  <path class="cls-3" d="m1116.58,578.81c.47-.47.94-.94,1.42-1.4-.13.81-.54,1.34-1.42,1.4Z"/>
  <path class="cls-3" d="m419.19,657.46c.34.45.68.9,1.02,1.35-.34-.45-.68-.9-1.02-1.35Z"/>
  <path class="cls-3" d="m976.53,945.78l.06-.39s.4-.09.4-.09c-.13.18-.29.34-.47.48Z"/>
  <path class="cls-3" d="m1128.1,568.95c.3-.27.6-.53.9-.79-.3.27-.6.53-.9.79Z"/>
  <path class="cls-3" d="m1129.23,567.97c.26-.23.52-.46.78-.69-.26.23-.52.46-.78.69Z"/>
  <path class="cls-3" d="m1160.28,536.88c.22-.23.43-.46.65-.69-.13.32-.34.55-.65.69Z"/>
  <path class="cls-3" d="m380.04,591c.39.14.5.38.35.73-.18-.22-.29-.46-.35-.73Z"/>
  <path class="cls-3" d="m382.05,596.95c.15.28.3.56.45.83-.25-.23-.4-.51-.45-.83Z"/>
  <path class="cls-3" d="m609.84,601.27l-.45.03s-.28-.39-.28-.39c.27.06.52.18.73.36Z"/>
  <path class="cls-3" d="m612.9,602.41c-.28-.16-.57-.32-.85-.49.28.16.57.32.85.49Z"/>
  <path class="cls-3" d="m636.83,610.29c-.27-.12-.54-.24-.82-.35.31.04.58.15.82.35Z"/>
  <path class="cls-3" d="m1161.57,535.82c.42-.44.85-.88,1.27-1.32-.09.75-.51,1.2-1.27,1.32Z"/>
  <path class="cls-3" d="m371.56,531.04c.21.26.2.52-.04.75-.27-.27-.25-.52.04-.75Z"/>
  <path class="cls-3" d="m650.83,614.29c-.27-.12-.53-.24-.8-.36.3.04.57.16.8.36Z"/>
  <path class="cls-3" d="m654.01,614.93c-.32-.06-.64-.12-.96-.19.43-.5.73-.34.96.19Z"/>
  <path class="cls-3" d="m1122,519.96c-.28.12-.56.23-.84.35.24-.21.52-.33.84-.35Z"/>
  <path class="cls-3" d="m1100.1,518.95c.28-.25.55-.51.83-.76-.28.25-.55.51-.83.76Z"/>
  <path class="cls-3" d="m414.02,651.27c.4-.02.59.17.57.56-.23-.15-.42-.33-.57-.56Z"/>
  <path class="cls-3" d="m420.15,658.76c.45.34.9.68,1.35,1.02-.45-.34-.9-.68-1.35-1.02Z"/>
  <path class="cls-3" d="m369.02,661.94c.06.33.06.65,0,.98-.68-.32-.71-.65,0-.98Z"/>
  <path class="cls-3" d="m424.18,662.75c.35.35.69.69,1.04,1.04-.35-.35-.69-.69-1.04-1.04Z"/>
  <path class="cls-3" d="m369.16,663.66c.56.51.56,1.03,0,1.55,0-.51,0-1.03,0-1.55Z"/>
  <path class="cls-3" d="m459.06,513.67c-.28-.25-.57-.5-.85-.75.28.25.57.5.85.75Z"/>
  <path class="cls-3" d="m1180.49,511.82c-.05-.38.12-.57.52-.58-.14.23-.31.42-.52.58Z"/>
  <path class="cls-3" d="m1109.29,511.96c.2-.21.41-.41.61-.62-.15.26-.36.46-.61.62Z"/>
  <path class="cls-3" d="m1181.23,510.97c.23-.26.47-.51.7-.77-.23.26-.47.51-.7.77Z"/>
  <path class="cls-3" d="m438.93,681.48c-.39-.15-.79-.3-1.18-.45.39.15.79.3,1.18.45Z"/>
  <path class="cls-3" d="m1094.7,701.68c-.2-.33-.11-.59.28-.77-.03.28-.12.53-.28.77Z"/>
  <path class="cls-3" d="m1169.99,505.95c-.31.18-.61.35-.92.53.31-.18.61-.35.92-.53Z"/>
  <path class="cls-3" d="m1093.29,708.85c.19-.42.38-.85.56-1.27-.19.42-.38.85-.56,1.27Z"/>
  <path class="cls-3" d="m1172.91,504.93c-.26.14-.53.28-.79.42.22-.22.49-.36.79-.42Z"/>
  <path class="cls-3" d="m1185.48,504.83c-.05-.37.13-.57.52-.6-.13.24-.3.43-.52.6Z"/>
  <path class="cls-3" d="m379.19,721.44c.28.49.56.98.84,1.47-.28-.49-.56-.98-.84-1.47Z"/>
  <path class="cls-3" d="m1089.49,725.79c.15-.31.31-.61.46-.92-.15.31-.31.61-.46.92Z"/>
  <path class="cls-3" d="m1087.5,733.78c.15-.32.29-.64.44-.96-.15.32-.29.64-.44.96Z"/>
  <path class="cls-3" d="m1086.92,736.88c-.07-.34-.01-.66.17-.95.09.25.2.49.24.74,0,.05-.26.14-.41.21Z"/>
  <path class="cls-3" d="m1085.67,740.69c-.18-.33-.07-.58.31-.73-.05.27-.15.51-.31.73Z"/>
  <path class="cls-3" d="m1084.61,744.73c.12-.28.24-.56.36-.84-.03.32-.15.59-.36.84Z"/>
  <path class="cls-3" d="m1027.15,876.93c.26-.38.53-.76.79-1.14-.26.38-.53.76-.79,1.14Z"/>
  <path class="cls-3" d="m1026.51,877.78c-.06-.38.11-.61.51-.67-.12.27-.29.49-.51.67Z"/>
  <path class="cls-3" d="m1009.43,903.81c-.04-.38.13-.61.52-.67-.1.29-.27.51-.52.67Z"/>
  <path class="cls-3" d="m1007.26,906.92c.25-.3.49-.61.74-.91-.25.31-.49.61-.74.91Z"/>
  <path class="cls-3" d="m1006.54,907.77c-.06-.36.1-.55.48-.57-.12.22-.29.41-.48.57Z"/>
  <path class="cls-3" d="m989.17,930.92c.27-.32.55-.64.82-.96-.27.32-.55.64-.82.96Z"/>
  <path class="cls-3" d="m1141.81,477.89c.35-.43.7-.86,1.05-1.29-.35.43-.7.86-1.05,1.29Z"/>
  <path class="cls-3" d="m415.99,472.66c-.22-.25-.44-.5-.66-.75.22.25.44.5.66.75Z"/>
  <path class="cls-3" d="m971.25,951.85c.26-.26.52-.52.78-.78-.26.26-.52.52-.78.78Z"/>
  <path class="cls-3" d="m415.07,471.65c-.22-.21-.44-.43-.66-.64.28.15.5.37.66.64Z"/>
  <path class="cls-3" d="m1122.23,573.89c.06-.38.27-.56.65-.53-.16.26-.37.43-.65.53Z"/>
  <path class="cls-3" d="m945.83,978.78c.34-.44.68-.89,1.02-1.34-.34.44-.68.89-1.02,1.34Z"/>
  <path class="cls-3" d="m944.81,979.74c.35-.34.7-.68,1.05-1.02-.35.34-.7.68-1.05,1.02Z"/>
  <path class="cls-3" d="m943.81,980.74c.34-.34.69-.68,1.03-1.03-.34.34-.68.68-1.03,1.03Z"/>
  <path class="cls-3" d="m808.77,461.91c-.24.25-.48.5-.72.74.24-.25.48-.5.72-.74Z"/>
  <path class="cls-3" d="m939.5,983.88l.02-.36s.34-.04.34-.03c-.12.14-.24.27-.36.39Z"/>
  <path class="cls-3" d="m1090.97,461.89c-.34.07-.67.13-1.01.2.22-.65.51-.95,1.01-.2Z"/>
  <path class="cls-3" d="m936.71,986.8c.41-.34.82-.68,1.22-1.01-.41.34-.82.68-1.22,1.01Z"/>
  <path class="cls-3" d="m935.18,987.93c.26-.26.51-.52.77-.78-.26.26-.51.52-.77.78Z"/>
  <path class="cls-3" d="m934.26,988.85c.26-.26.51-.51.77-.77-.26.26-.51.51-.77.77Z"/>
  <path class="cls-3" d="m809.85,460.92c-.29.26-.58.53-.87.79.29-.26.58-.53.87-.79Z"/>
  <path class="cls-3" d="m1041.88,458.41l-.38-.09s-.07-.4-.07-.4c.17.14.32.31.46.48Z"/>
  <path class="cls-3" d="m888.36,1024.91l.12-.41s.41-.08.41-.08c-.15.19-.32.35-.52.49Z"/>
  <path class="cls-3" d="m887.06,1025.9c.32-.24.64-.48.96-.71-.32.24-.64.48-.96.71Z"/>
  <path class="cls-3" d="m884.1,1027.9c.28-.23.56-.47.84-.7-.28.24-.56.47-.84.7Z"/>
  <path class="cls-3" d="m395.21,1032.96c-.46.57-.92.57-1.41.03.47-.01.94-.02,1.41-.03Z"/>
  <path class="cls-3" d="m1038.96,455.81c-.31-.29-.62-.58-.93-.87.31.29.62.58.93.87Z"/>
  <path class="cls-3" d="m837.02,1055.89c.3-.2.6-.4.89-.6-.3.2-.6.4-.89.6Z"/>
  <path class="cls-3" d="m835.64,1056.77c.46-.29.91-.58,1.37-.86-.46.29-.91.58-1.37.86Z"/>
  <path class="cls-3" d="m1118.98,451.96c-.3.17-.59.34-.89.51.3-.17.59-.34.89-.51Z"/>
  <path class="cls-3" d="m1024.86,445.38l-.41-.06s-.13-.41-.13-.41c.2.13.38.29.53.47Z"/>
  <path class="cls-3" d="m1024.01,444.67c-.34-.24-.69-.48-1.03-.72.34.24.69.48,1.03.72Z"/>
  <path class="cls-3" d="m1021.87,443.42c-.38.05-.59-.12-.64-.51.25.12.47.29.64.51Z"/>
  <path class="cls-3" d="m1021.01,442.75c-.37-.26-.75-.51-1.13-.77.37.26.75.51,1.13.77Z"/>
  <path class="cls-3" d="m956.78,418.28c-.29-.1-.57-.2-.86-.31.32,0,.61.11.86.31Z"/>
  <path class="cls-3" d="m984.29,936.84c.24-.27.48-.53.72-.8-.24.27-.48.53-.72.8Z"/>
  <path class="cls-3" d="m371.87,523.96c.14.32.13.63-.04.94-.1-.23-.22-.44-.27-.68-.01-.06.2-.17.31-.26Z"/>
  <path class="cls-3" d="m806.64,464.01c0,.38-.19.57-.57.56.13-.25.32-.44.57-.56Z"/>
</svg>